<svg xmlns="http://www.w3.org/2000/svg" xmlns:xlink="http://www.w3.org/1999/xlink" x="0" y="0" width="1433" height="607.9375" style="
        width:1433px;
        height:607.9375px;
        background: #FFF;
        fill: none;
">
        
        
        <svg xmlns="http://www.w3.org/2000/svg" class="role-diagram-draw-area"><g class="shapes-region" style="stroke: black; fill: none;"><g class="composite-shape"><path class="real" d=" M110.51,181.15 C110.51,103.34 181.92,40.27 270.01,40.27 C358.1,40.27 429.51,103.34 429.51,181.15 C429.51,258.96 358.1,322.04 270.01,322.04 C181.92,322.04 110.51,258.96 110.51,181.15 Z" style="stroke-width: 4; stroke: rgb(253, 0, 0); stroke-opacity: 1; fill: rgb(208, 2, 27); fill-opacity: 0.05; stroke-dasharray: 10.5, 6;"/></g><g class="composite-shape"><path class="real" d=" M187.88,295.27 C187.88,228.99 246.09,175.27 317.88,175.27 C389.68,175.27 447.88,228.99 447.88,295.27 C447.88,361.54 389.68,415.27 317.88,415.27 C246.09,415.27 187.88,361.54 187.88,295.27 Z" style="stroke-width: 4; stroke: rgb(22, 164, 137); stroke-opacity: 1; fill: rgb(22, 164, 137); fill-opacity: 0.4; stroke-dasharray: 10.5, 6;"/></g><g class="composite-shape"><path class="real" d=" M252.99,423.16 C249.08,357.76 319.18,300.35 409.57,294.95 C499.96,289.55 576.4,338.19 580.31,403.6 C584.22,469.01 514.11,526.41 423.73,531.82 C333.34,537.22 256.9,488.57 252.99,423.16 Z" style="stroke-width: 4; stroke: rgb(255, 190, 73); stroke-opacity: 1; fill: rgb(245, 166, 35); fill-opacity: 0.07; stroke-dasharray: 10.5, 6;"/></g><g class="composite-shape"><path class="real" d=" M321.51,187.54 C321.51,117.67 386.65,61.04 467.01,61.04 C547.37,61.04 612.51,117.67 612.51,187.54 C612.51,257.4 547.37,314.04 467.01,314.04 C386.65,314.04 321.51,257.4 321.51,187.54 Z" style="stroke-width: 4; stroke: rgb(0, 86, 255); stroke-opacity: 0.62; fill: rgb(0, 21, 255); fill-opacity: 0.08; stroke-dasharray: 10.5, 6;"/></g><g class="composite-shape"><path class="real" d=" M30.87,254.32 C58.36,199.42 133.89,181.58 199.58,214.48 C265.26,247.37 296.23,318.54 268.74,373.43 C241.25,428.33 165.71,446.16 100.03,413.27 C34.34,380.38 3.38,309.21 30.87,254.32 Z" style="stroke-width: 4; stroke: rgb(64, 198, 23); stroke-opacity: 1; fill: rgb(126, 211, 33); fill-opacity: 0.18; stroke-dasharray: 10.5, 6;"/></g><g class="arrow-line"><path class="connection real" stroke-dasharray="" d="  M144.39,521.04 C180.09,453.49 278.19,331.92 320.96,296.54" style="stroke: rgb(22, 164, 137); stroke-opacity: 1; stroke-width: 4; fill: none; fill-opacity: 1;"/><g stroke="none" fill="rgb(22,164,137)" fill-opacity="1" transform="matrix(-0.7999989281485084,0.6000014291326627,-0.6000014291326627,-0.7999989281485084,325.38671875,293.03515625)" style="stroke: none; fill: rgb(22, 164, 137); stroke-width: 4;"><path d=" M16.97,-8.15 L0,0 L16.97,8.15 Z"/></g></g><g/></g><g/><g/><g/></svg>
        <svg xmlns="http://www.w3.org/2000/svg" xmlns:xlink="http://www.w3.org/1999/xlink" width="1431" height="605.9375" style="width:1431px;height:605.9375px;font-family:Asana-Math, Asana;background:#FFF;"><g><g><g><g><g><g><g transform="matrix(1,0,0,1,29,559.33)"><path transform="matrix(0.04233,0,0,-0.04233,0,0)" d="M176 -11C232 -11 347 62 390 125C431 186 465 296 465 371C465 438 442 482 406 482C364 482 311 456 259 409C218 374 198 348 162 289L186 408C189 425 191 440 191 452C191 471 183 482 169 482C148 482 110 461 36 408L8 388L15 368L47 389C75 407 86 412 95 412C105 412 112 403 112 389C112 381 110 361 108 351L50 8C40 -52 21 -143 1 -233L-7 -270L0 -276C21 -269 41 -264 73 -259L115 3C136 -4 158 -11 176 -11ZM143 165C165 293 272 424 355 424C381 424 393 402 393 356C393 275 353 156 300 80C280 51 248 36 207 36C176 36 151 43 125 59Z" stroke="rgb(0,0,0)" stroke-opacity="1" stroke-width="0" fill="rgb(0,0,0)" fill-opacity="1"></path></g></g><g><g transform="matrix(1,0,0,1,50.125,559.33)"><path transform="matrix(0.04233,0,0,-0.04233,0,0)" d="M146 266C146 526 243 632 301 700L282 726C225 675 60 542 60 266C60 159 85 58 133 -32C168 -99 200 -138 282 -215L301 -194C255 -137 146 -15 146 266Z" stroke="rgb(0,0,0)" stroke-opacity="1" stroke-width="0" fill="rgb(0,0,0)" fill-opacity="1"></path></g></g><g><g transform="matrix(1,0,0,1,64.1875,559.33)"><path transform="matrix(0.04233,0,0,-0.04233,0,0)" d="M9 1C24 -7 40 -11 52 -11C85 -11 124 18 155 65L231 182L242 113C255 28 278 -11 314 -11C336 -11 368 6 400 35L449 79L440 98C404 68 379 53 363 53C348 53 335 63 325 83C316 102 305 139 300 168L282 269L317 318C364 383 391 406 422 406C438 406 450 398 455 383L469 387L484 472C472 479 463 482 454 482C414 482 374 446 312 354L275 299L269 347C257 446 230 482 171 482C145 482 123 474 114 461L56 378L73 368C103 402 123 416 142 416C175 416 197 375 214 277L225 215L185 153C142 86 108 54 80 54C65 54 54 58 52 63L41 91L21 88C21 53 13 27 9 1Z" stroke="rgb(0,0,0)" stroke-opacity="1" stroke-width="0" fill="rgb(0,0,0)" fill-opacity="1"></path></g></g><g><g transform="matrix(1,0,0,1,85.3125,559.33)"><path transform="matrix(0.04233,0,0,-0.04233,0,0)" d="M179.50274 -172L179.50274 713L120.50274 713L120.50274 -172Z" stroke="rgb(0,0,0)" stroke-opacity="1" stroke-width="0" fill="rgb(0,0,0)" fill-opacity="1"></path></g></g><g><g transform="matrix(1,0,0,1,98.015625,559.33)"><path transform="matrix(0.04233,0,0,-0.04233,0,0)" d="M394 -12C554 -12 671 181 673 325C674 363 660 458 607 458C592 458 562 441 548 434L548 423C593 392 607 338 606 284C605 189 542 17 425 17C366 17 362 73 363 119C365 185 380 261 403 324L393 324C372 317 350 309 328 304C323 217 294 16 174 16C111 16 100 81 100 129C102 278 168 388 306 443L306 463C152 428 40 300 25 137C9 -29 213 -49 295 47C316 3 344 -12 394 -12Z" stroke="rgb(22,164,137)" stroke-opacity="1" stroke-width="0" fill="rgb(22,164,137)" fill-opacity="1"></path></g></g><g><g><g><g><g transform="matrix(1,0,0,1,129.5625,565.802875)"><path transform="matrix(0.029631,0,0,-0.029631,0,0)" d="M125 390L69 107C68 99 56 61 56 31C56 6 67 -9 86 -9C121 -9 156 11 234 74L265 99L255 117L210 86C181 66 161 56 150 56C141 56 136 64 136 76C136 102 150 183 179 328L192 390L299 390L310 440C272 436 238 434 200 434C216 528 227 577 245 631L234 646C214 634 187 622 156 610L131 440C87 419 61 408 43 403L41 390ZM603 204L574 77C570 60 568 42 568 26C568 4 577 -9 592 -9C615 -9 656 17 738 85L731 106C707 86 678 59 656 59C647 59 641 68 641 82C641 87 641 90 642 93L734 472L724 481L691 463C650 478 633 482 606 482C578 482 558 477 531 464C469 433 436 403 411 354C367 265 336 145 336 67C336 23 351 -11 370 -11C407 -11 487 41 603 204ZM651 414C629 305 610 253 576 201C519 117 458 59 426 59C414 59 408 72 408 99C408 163 436 280 471 360C495 415 518 433 566 433C589 433 607 429 651 414ZM1143 365C1146 403 1151 435 1159 476C1148 481 1144 482 1139 482C1108 482 1077 458 1041 407C1002 351 963 291 947 256L979 408C983 425 985 438 985 450C985 470 977 482 962 482C941 482 903 461 829 408L801 388L808 368L840 389C868 407 879 412 888 412C898 412 905 403 905 390C905 332 862 126 822 -2L832 -9C847 -4 863 -1 886 4L899 6L925 126C943 209 966 262 1010 319C1044 363 1071 384 1093 384C1108 384 1118 379 1129 365ZM1438 482C1371 482 1218 419 1218 259C1218 182 1263 136 1340 136C1348 136 1359 136 1370 137L1329 99C1313 84 1302 66 1302 52C1302 42 1309 31 1323 19C1254 -4 1126 -48 1126 -159C1126 -230 1196 -276 1305 -276C1434 -276 1547 -204 1547 -121C1547 -85 1526 -49 1483 -14L1423 35C1389 62 1376 81 1376 100C1376 114 1391 128 1403 146C1501 170 1572 253 1572 342C1572 357 1569 376 1568 380C1585 378 1593 378 1602 378C1619 378 1629 379 1652 382L1661 427L1658 433C1630 426 1610 424 1556 424C1556 425 1532 482 1438 482ZM1339 1L1416 -58C1462 -94 1481 -121 1481 -154C1481 -206 1412 -248 1329 -248C1247 -248 1190 -206 1190 -145C1190 -43 1300 -11 1339 1ZM1413 448C1471 448 1500 412 1500 341C1500 238 1452 168 1382 168C1321 168 1289 209 1289 288C1289 383 1340 448 1413 448ZM1990 111L1966 94C1913 56 1865 36 1829 36C1782 36 1753 73 1753 133C1753 158 1756 185 1761 214C1778 218 1887 248 1912 259C1997 296 2036 342 2036 404C2036 451 2002 482 1952 482C1884 496 1774 423 1737 349C1707 299 1677 180 1677 113C1677 35 1721 -11 1793 -11C1850 -11 1906 17 1998 92ZM1775 274C1792 343 1812 386 1841 412C1859 428 1890 440 1914 440C1943 440 1962 420 1962 388C1962 344 1927 297 1875 272C1847 258 1811 247 1766 237ZM2175 390L2119 107C2118 99 2106 61 2106 31C2106 6 2117 -9 2136 -9C2171 -9 2206 11 2284 74L2315 99L2305 117L2260 86C2231 66 2211 56 2200 56C2191 56 2186 64 2186 76C2186 102 2200 183 2229 328L2242 390L2349 390L2360 440C2322 436 2288 434 2250 434C2266 528 2277 577 2295 631L2284 646C2264 634 2237 622 2206 610L2181 440C2137 419 2111 408 2093 403L2091 390Z" stroke="rgb(22,164,137)" stroke-opacity="1" stroke-width="0" fill="rgb(22,164,137)" fill-opacity="1"></path></g></g></g></g></g><g><g transform="matrix(1,0,0,1,202.6875,559.33)"><path transform="matrix(0.04233,0,0,-0.04233,0,0)" d="M204 123C177 114 159 108 106 93C99 17 74 -48 16 -144L30 -155L71 -136C152 -31 190 32 218 109Z" stroke="rgb(0,0,0)" stroke-opacity="1" stroke-width="0" fill="rgb(0,0,0)" fill-opacity="1"></path></g></g><g><g transform="matrix(1,0,0,1,221.6875,559.33)"><path transform="matrix(0.04233,0,0,-0.04233,0,0)" d="M154 473C89 473 51 426 18 377C18 371 27 368 30 365L30 366C54 394 74 412 111 412C206 412 215 290 214 220C212 136 203 53 186 -29C140 -86 92 -181 65 -249C69 -257 74 -265 77 -273C98 -268 119 -260 139 -251C165 -183 189 -106 203 -36C387 199 540 317 547 438C550 493 485 453 459 446L459 435C502 284 287 130 220 19L220 23C302 358 258 473 154 473Z" stroke="rgb(0,0,0)" stroke-opacity="1" stroke-width="0" fill="rgb(0,0,0)" fill-opacity="1"></path></g></g><g><g transform="matrix(1,0,0,1,246.28125,559.33)"><path transform="matrix(0.04233,0,0,-0.04233,0,0)" d="M51 726L32 700C87 636 187 526 187 266C187 -10 83 -131 32 -194L51 -215C104 -165 273 -23 273 265C273 542 108 675 51 726Z" stroke="rgb(0,0,0)" stroke-opacity="1" stroke-width="0" fill="rgb(0,0,0)" fill-opacity="1"></path></g></g></g></g></g></g></g><g><g><g><g><g><g><g transform="matrix(1,0,0,1,446,192.19)"><path transform="matrix(0.03519,0,0,-0.03519,0,0)" d="M176 -11C232 -11 347 62 390 125C431 186 465 296 465 371C465 438 442 482 406 482C364 482 311 456 259 409C218 374 198 348 162 289L186 408C189 425 191 440 191 452C191 471 183 482 169 482C148 482 110 461 36 408L8 388L15 368L47 389C75 407 86 412 95 412C105 412 112 403 112 389C112 381 110 361 108 351L50 8C40 -52 21 -143 1 -233L-7 -270L0 -276C21 -269 41 -264 73 -259L115 3C136 -4 158 -11 176 -11ZM143 165C165 293 272 424 355 424C381 424 393 402 393 356C393 275 353 156 300 80C280 51 248 36 207 36C176 36 151 43 125 59Z" stroke="rgb(34,0,255)" stroke-opacity="1" stroke-width="0" fill="rgb(34,0,255)" fill-opacity="1"></path></g></g><g><g transform="matrix(1,0,0,1,463.5625,192.19)"><path transform="matrix(0.03519,0,0,-0.03519,0,0)" d="M146 266C146 526 243 632 301 700L282 726C225 675 60 542 60 266C60 159 85 58 133 -32C168 -99 200 -138 282 -215L301 -194C255 -137 146 -15 146 266Z" stroke="rgb(34,0,255)" stroke-opacity="1" stroke-width="0" fill="rgb(34,0,255)" fill-opacity="1"></path></g></g><g><g transform="matrix(1,0,0,1,475.25,192.19)"><path transform="matrix(0.03519,0,0,-0.03519,0,0)" d="M9 1C24 -7 40 -11 52 -11C85 -11 124 18 155 65L231 182L242 113C255 28 278 -11 314 -11C336 -11 368 6 400 35L449 79L440 98C404 68 379 53 363 53C348 53 335 63 325 83C316 102 305 139 300 168L282 269L317 318C364 383 391 406 422 406C438 406 450 398 455 383L469 387L484 472C472 479 463 482 454 482C414 482 374 446 312 354L275 299L269 347C257 446 230 482 171 482C145 482 123 474 114 461L56 378L73 368C103 402 123 416 142 416C175 416 197 375 214 277L225 215L185 153C142 86 108 54 80 54C65 54 54 58 52 63L41 91L21 88C21 53 13 27 9 1Z" stroke="rgb(34,0,255)" stroke-opacity="1" stroke-width="0" fill="rgb(34,0,255)" fill-opacity="1"></path></g></g><g><g transform="matrix(1,0,0,1,492.8125,192.19)"><path transform="matrix(0.03519,0,0,-0.03519,0,0)" d="M179.50274 -172L179.50274 713L120.50274 713L120.50274 -172Z" stroke="rgb(34,0,255)" stroke-opacity="1" stroke-width="0" fill="rgb(34,0,255)" fill-opacity="1"></path></g></g><g><g transform="matrix(1,0,0,1,503.375,192.19)"><path transform="matrix(0.03519,0,0,-0.03519,0,0)" d="M394 -12C554 -12 671 181 673 325C674 363 660 458 607 458C592 458 562 441 548 434L548 423C593 392 607 338 606 284C605 189 542 17 425 17C366 17 362 73 363 119C365 185 380 261 403 324L393 324C372 317 350 309 328 304C323 217 294 16 174 16C111 16 100 81 100 129C102 278 168 388 306 443L306 463C152 428 40 300 25 137C9 -29 213 -49 295 47C316 3 344 -12 394 -12Z" stroke="rgb(34,0,255)" stroke-opacity="1" stroke-width="0" fill="rgb(34,0,255)" fill-opacity="1"></path></g></g><g><g><g><g><g transform="matrix(1,0,0,1,529.578125,198.398625)"><path transform="matrix(0.024633,0,0,-0.024633,0,0)" d="M16 23L16 -3C203 -3 203 0 239 0C275 0 275 -3 468 -3L468 82C353 77 307 81 122 77L304 270C401 373 431 428 431 503C431 618 353 689 226 689C154 689 105 669 56 619L39 483L68 483L81 529C97 587 133 612 200 612C286 612 341 558 341 473C341 398 299 324 186 204Z" stroke="rgb(34,0,255)" stroke-opacity="1" stroke-width="0" fill="rgb(34,0,255)" fill-opacity="1"></path></g></g></g></g></g><g><g transform="matrix(1,0,0,1,543.984375,192.19)"><path transform="matrix(0.03519,0,0,-0.03519,0,0)" d="M204 123C177 114 159 108 106 93C99 17 74 -48 16 -144L30 -155L71 -136C152 -31 190 32 218 109Z" stroke="rgb(34,0,255)" stroke-opacity="1" stroke-width="0" fill="rgb(34,0,255)" fill-opacity="1"></path></g></g><g><g transform="matrix(1,0,0,1,559.78125,192.19)"><path transform="matrix(0.03519,0,0,-0.03519,0,0)" d="M154 473C89 473 51 426 18 377C18 371 27 368 30 365L30 366C54 394 74 412 111 412C206 412 215 290 214 220C212 136 203 53 186 -29C140 -86 92 -181 65 -249C69 -257 74 -265 77 -273C98 -268 119 -260 139 -251C165 -183 189 -106 203 -36C387 199 540 317 547 438C550 493 485 453 459 446L459 435C502 284 287 130 220 19L220 23C302 358 258 473 154 473Z" stroke="rgb(34,0,255)" stroke-opacity="1" stroke-width="0" fill="rgb(34,0,255)" fill-opacity="1"></path></g></g><g><g transform="matrix(1,0,0,1,580.234375,192.19)"><path transform="matrix(0.03519,0,0,-0.03519,0,0)" d="M51 726L32 700C87 636 187 526 187 266C187 -10 83 -131 32 -194L51 -215C104 -165 273 -23 273 265C273 542 108 675 51 726Z" stroke="rgb(34,0,255)" stroke-opacity="1" stroke-width="0" fill="rgb(34,0,255)" fill-opacity="1"></path></g></g></g></g></g></g></g><g><g><g><g><g><g><g transform="matrix(1,0,0,1,40,339.19)"><path transform="matrix(0.03519,0,0,-0.03519,0,0)" d="M176 -11C232 -11 347 62 390 125C431 186 465 296 465 371C465 438 442 482 406 482C364 482 311 456 259 409C218 374 198 348 162 289L186 408C189 425 191 440 191 452C191 471 183 482 169 482C148 482 110 461 36 408L8 388L15 368L47 389C75 407 86 412 95 412C105 412 112 403 112 389C112 381 110 361 108 351L50 8C40 -52 21 -143 1 -233L-7 -270L0 -276C21 -269 41 -264 73 -259L115 3C136 -4 158 -11 176 -11ZM143 165C165 293 272 424 355 424C381 424 393 402 393 356C393 275 353 156 300 80C280 51 248 36 207 36C176 36 151 43 125 59Z" stroke="rgb(0,161,0)" stroke-opacity="1" stroke-width="0" fill="rgb(0,161,0)" fill-opacity="1"></path></g></g><g><g transform="matrix(1,0,0,1,57.5625,339.19)"><path transform="matrix(0.03519,0,0,-0.03519,0,0)" d="M146 266C146 526 243 632 301 700L282 726C225 675 60 542 60 266C60 159 85 58 133 -32C168 -99 200 -138 282 -215L301 -194C255 -137 146 -15 146 266Z" stroke="rgb(0,161,0)" stroke-opacity="1" stroke-width="0" fill="rgb(0,161,0)" fill-opacity="1"></path></g></g><g><g transform="matrix(1,0,0,1,69.25,339.19)"><path transform="matrix(0.03519,0,0,-0.03519,0,0)" d="M9 1C24 -7 40 -11 52 -11C85 -11 124 18 155 65L231 182L242 113C255 28 278 -11 314 -11C336 -11 368 6 400 35L449 79L440 98C404 68 379 53 363 53C348 53 335 63 325 83C316 102 305 139 300 168L282 269L317 318C364 383 391 406 422 406C438 406 450 398 455 383L469 387L484 472C472 479 463 482 454 482C414 482 374 446 312 354L275 299L269 347C257 446 230 482 171 482C145 482 123 474 114 461L56 378L73 368C103 402 123 416 142 416C175 416 197 375 214 277L225 215L185 153C142 86 108 54 80 54C65 54 54 58 52 63L41 91L21 88C21 53 13 27 9 1Z" stroke="rgb(0,161,0)" stroke-opacity="1" stroke-width="0" fill="rgb(0,161,0)" fill-opacity="1"></path></g></g><g><g transform="matrix(1,0,0,1,86.8125,339.19)"><path transform="matrix(0.03519,0,0,-0.03519,0,0)" d="M179.50274 -172L179.50274 713L120.50274 713L120.50274 -172Z" stroke="rgb(0,161,0)" stroke-opacity="1" stroke-width="0" fill="rgb(0,161,0)" fill-opacity="1"></path></g></g><g><g transform="matrix(1,0,0,1,97.375,339.19)"><path transform="matrix(0.03519,0,0,-0.03519,0,0)" d="M394 -12C554 -12 671 181 673 325C674 363 660 458 607 458C592 458 562 441 548 434L548 423C593 392 607 338 606 284C605 189 542 17 425 17C366 17 362 73 363 119C365 185 380 261 403 324L393 324C372 317 350 309 328 304C323 217 294 16 174 16C111 16 100 81 100 129C102 278 168 388 306 443L306 463C152 428 40 300 25 137C9 -29 213 -49 295 47C316 3 344 -12 394 -12Z" stroke="rgb(0,161,0)" stroke-opacity="1" stroke-width="0" fill="rgb(0,161,0)" fill-opacity="1"></path></g></g><g><g><g><g><g transform="matrix(1,0,0,1,123.578125,345.398625)"><path transform="matrix(0.024633,0,0,-0.024633,0,0)" d="M280 181L280 106C280 46 269 32 220 30L158 27L158 -3C291 0 291 0 315 0C339 0 339 0 472 -3L472 27L424 30C375 33 364 46 364 106L364 181C423 181 444 180 472 177L472 248L364 245L365 697L285 667L2 204L2 181ZM280 245L65 245L280 597Z" stroke="rgb(0,161,0)" stroke-opacity="1" stroke-width="0" fill="rgb(0,161,0)" fill-opacity="1"></path></g></g></g></g></g><g><g transform="matrix(1,0,0,1,137.984375,339.19)"><path transform="matrix(0.03519,0,0,-0.03519,0,0)" d="M204 123C177 114 159 108 106 93C99 17 74 -48 16 -144L30 -155L71 -136C152 -31 190 32 218 109Z" stroke="rgb(0,161,0)" stroke-opacity="1" stroke-width="0" fill="rgb(0,161,0)" fill-opacity="1"></path></g></g><g><g transform="matrix(1,0,0,1,153.78125,339.19)"><path transform="matrix(0.03519,0,0,-0.03519,0,0)" d="M154 473C89 473 51 426 18 377C18 371 27 368 30 365L30 366C54 394 74 412 111 412C206 412 215 290 214 220C212 136 203 53 186 -29C140 -86 92 -181 65 -249C69 -257 74 -265 77 -273C98 -268 119 -260 139 -251C165 -183 189 -106 203 -36C387 199 540 317 547 438C550 493 485 453 459 446L459 435C502 284 287 130 220 19L220 23C302 358 258 473 154 473Z" stroke="rgb(0,161,0)" stroke-opacity="1" stroke-width="0" fill="rgb(0,161,0)" fill-opacity="1"></path></g></g><g><g transform="matrix(1,0,0,1,174.234375,339.19)"><path transform="matrix(0.03519,0,0,-0.03519,0,0)" d="M51 726L32 700C87 636 187 526 187 266C187 -10 83 -131 32 -194L51 -215C104 -165 273 -23 273 265C273 542 108 675 51 726Z" stroke="rgb(0,161,0)" stroke-opacity="1" stroke-width="0" fill="rgb(0,161,0)" fill-opacity="1"></path></g></g></g></g></g></g></g><g><g><g><g><g><g><g transform="matrix(1,0,0,1,178,110.19)"><path transform="matrix(0.03519,0,0,-0.03519,0,0)" d="M176 -11C232 -11 347 62 390 125C431 186 465 296 465 371C465 438 442 482 406 482C364 482 311 456 259 409C218 374 198 348 162 289L186 408C189 425 191 440 191 452C191 471 183 482 169 482C148 482 110 461 36 408L8 388L15 368L47 389C75 407 86 412 95 412C105 412 112 403 112 389C112 381 110 361 108 351L50 8C40 -52 21 -143 1 -233L-7 -270L0 -276C21 -269 41 -264 73 -259L115 3C136 -4 158 -11 176 -11ZM143 165C165 293 272 424 355 424C381 424 393 402 393 356C393 275 353 156 300 80C280 51 248 36 207 36C176 36 151 43 125 59Z" stroke="rgb(255,0,0)" stroke-opacity="1" stroke-width="0" fill="rgb(255,0,0)" fill-opacity="1"></path></g></g><g><g transform="matrix(1,0,0,1,195.5625,110.19)"><path transform="matrix(0.03519,0,0,-0.03519,0,0)" d="M146 266C146 526 243 632 301 700L282 726C225 675 60 542 60 266C60 159 85 58 133 -32C168 -99 200 -138 282 -215L301 -194C255 -137 146 -15 146 266Z" stroke="rgb(255,0,0)" stroke-opacity="1" stroke-width="0" fill="rgb(255,0,0)" fill-opacity="1"></path></g></g><g><g transform="matrix(1,0,0,1,207.25,110.19)"><path transform="matrix(0.03519,0,0,-0.03519,0,0)" d="M9 1C24 -7 40 -11 52 -11C85 -11 124 18 155 65L231 182L242 113C255 28 278 -11 314 -11C336 -11 368 6 400 35L449 79L440 98C404 68 379 53 363 53C348 53 335 63 325 83C316 102 305 139 300 168L282 269L317 318C364 383 391 406 422 406C438 406 450 398 455 383L469 387L484 472C472 479 463 482 454 482C414 482 374 446 312 354L275 299L269 347C257 446 230 482 171 482C145 482 123 474 114 461L56 378L73 368C103 402 123 416 142 416C175 416 197 375 214 277L225 215L185 153C142 86 108 54 80 54C65 54 54 58 52 63L41 91L21 88C21 53 13 27 9 1Z" stroke="rgb(255,0,0)" stroke-opacity="1" stroke-width="0" fill="rgb(255,0,0)" fill-opacity="1"></path></g></g><g><g transform="matrix(1,0,0,1,224.8125,110.19)"><path transform="matrix(0.03519,0,0,-0.03519,0,0)" d="M179.50274 -172L179.50274 713L120.50274 713L120.50274 -172Z" stroke="rgb(255,0,0)" stroke-opacity="1" stroke-width="0" fill="rgb(255,0,0)" fill-opacity="1"></path></g></g><g><g transform="matrix(1,0,0,1,235.375,110.19)"><path transform="matrix(0.03519,0,0,-0.03519,0,0)" d="M394 -12C554 -12 671 181 673 325C674 363 660 458 607 458C592 458 562 441 548 434L548 423C593 392 607 338 606 284C605 189 542 17 425 17C366 17 362 73 363 119C365 185 380 261 403 324L393 324C372 317 350 309 328 304C323 217 294 16 174 16C111 16 100 81 100 129C102 278 168 388 306 443L306 463C152 428 40 300 25 137C9 -29 213 -49 295 47C316 3 344 -12 394 -12Z" stroke="rgb(255,0,0)" stroke-opacity="1" stroke-width="0" fill="rgb(255,0,0)" fill-opacity="1"></path></g></g><g><g><g><g><g transform="matrix(1,0,0,1,261.578125,116.398625)"><path transform="matrix(0.024633,0,0,-0.024633,0,0)" d="M418 -3L418 27L366 30C311 33 301 44 301 96L301 700L60 598L67 548L217 614L217 96C217 44 206 33 152 30L96 27L96 -3C250 0 250 0 261 0C292 0 402 -3 418 -3Z" stroke="rgb(255,0,0)" stroke-opacity="1" stroke-width="0" fill="rgb(255,0,0)" fill-opacity="1"></path></g></g></g></g></g><g><g transform="matrix(1,0,0,1,275.984375,110.19)"><path transform="matrix(0.03519,0,0,-0.03519,0,0)" d="M204 123C177 114 159 108 106 93C99 17 74 -48 16 -144L30 -155L71 -136C152 -31 190 32 218 109Z" stroke="rgb(255,0,0)" stroke-opacity="1" stroke-width="0" fill="rgb(255,0,0)" fill-opacity="1"></path></g></g><g><g transform="matrix(1,0,0,1,291.78125,110.19)"><path transform="matrix(0.03519,0,0,-0.03519,0,0)" d="M154 473C89 473 51 426 18 377C18 371 27 368 30 365L30 366C54 394 74 412 111 412C206 412 215 290 214 220C212 136 203 53 186 -29C140 -86 92 -181 65 -249C69 -257 74 -265 77 -273C98 -268 119 -260 139 -251C165 -183 189 -106 203 -36C387 199 540 317 547 438C550 493 485 453 459 446L459 435C502 284 287 130 220 19L220 23C302 358 258 473 154 473Z" stroke="rgb(255,0,0)" stroke-opacity="1" stroke-width="0" fill="rgb(255,0,0)" fill-opacity="1"></path></g></g><g><g transform="matrix(1,0,0,1,312.234375,110.19)"><path transform="matrix(0.03519,0,0,-0.03519,0,0)" d="M51 726L32 700C87 636 187 526 187 266C187 -10 83 -131 32 -194L51 -215C104 -165 273 -23 273 265C273 542 108 675 51 726Z" stroke="rgb(255,0,0)" stroke-opacity="1" stroke-width="0" fill="rgb(255,0,0)" fill-opacity="1"></path></g></g></g></g></g></g></g><g><g><g><g><g><g><g transform="matrix(1,0,0,1,380,448.19)"><path transform="matrix(0.03519,0,0,-0.03519,0,0)" d="M176 -11C232 -11 347 62 390 125C431 186 465 296 465 371C465 438 442 482 406 482C364 482 311 456 259 409C218 374 198 348 162 289L186 408C189 425 191 440 191 452C191 471 183 482 169 482C148 482 110 461 36 408L8 388L15 368L47 389C75 407 86 412 95 412C105 412 112 403 112 389C112 381 110 361 108 351L50 8C40 -52 21 -143 1 -233L-7 -270L0 -276C21 -269 41 -264 73 -259L115 3C136 -4 158 -11 176 -11ZM143 165C165 293 272 424 355 424C381 424 393 402 393 356C393 275 353 156 300 80C280 51 248 36 207 36C176 36 151 43 125 59Z" stroke="rgb(219,137,0)" stroke-opacity="1" stroke-width="0" fill="rgb(219,137,0)" fill-opacity="1"></path></g></g><g><g transform="matrix(1,0,0,1,397.5625,448.19)"><path transform="matrix(0.03519,0,0,-0.03519,0,0)" d="M146 266C146 526 243 632 301 700L282 726C225 675 60 542 60 266C60 159 85 58 133 -32C168 -99 200 -138 282 -215L301 -194C255 -137 146 -15 146 266Z" stroke="rgb(219,137,0)" stroke-opacity="1" stroke-width="0" fill="rgb(219,137,0)" fill-opacity="1"></path></g></g><g><g transform="matrix(1,0,0,1,409.25,448.19)"><path transform="matrix(0.03519,0,0,-0.03519,0,0)" d="M9 1C24 -7 40 -11 52 -11C85 -11 124 18 155 65L231 182L242 113C255 28 278 -11 314 -11C336 -11 368 6 400 35L449 79L440 98C404 68 379 53 363 53C348 53 335 63 325 83C316 102 305 139 300 168L282 269L317 318C364 383 391 406 422 406C438 406 450 398 455 383L469 387L484 472C472 479 463 482 454 482C414 482 374 446 312 354L275 299L269 347C257 446 230 482 171 482C145 482 123 474 114 461L56 378L73 368C103 402 123 416 142 416C175 416 197 375 214 277L225 215L185 153C142 86 108 54 80 54C65 54 54 58 52 63L41 91L21 88C21 53 13 27 9 1Z" stroke="rgb(219,137,0)" stroke-opacity="1" stroke-width="0" fill="rgb(219,137,0)" fill-opacity="1"></path></g></g><g><g transform="matrix(1,0,0,1,426.8125,448.19)"><path transform="matrix(0.03519,0,0,-0.03519,0,0)" d="M179.50274 -172L179.50274 713L120.50274 713L120.50274 -172Z" stroke="rgb(219,137,0)" stroke-opacity="1" stroke-width="0" fill="rgb(219,137,0)" fill-opacity="1"></path></g></g><g><g transform="matrix(1,0,0,1,437.375,448.19)"><path transform="matrix(0.03519,0,0,-0.03519,0,0)" d="M394 -12C554 -12 671 181 673 325C674 363 660 458 607 458C592 458 562 441 548 434L548 423C593 392 607 338 606 284C605 189 542 17 425 17C366 17 362 73 363 119C365 185 380 261 403 324L393 324C372 317 350 309 328 304C323 217 294 16 174 16C111 16 100 81 100 129C102 278 168 388 306 443L306 463C152 428 40 300 25 137C9 -29 213 -49 295 47C316 3 344 -12 394 -12Z" stroke="rgb(219,137,0)" stroke-opacity="1" stroke-width="0" fill="rgb(219,137,0)" fill-opacity="1"></path></g></g><g><g><g><g><g transform="matrix(1,0,0,1,463.578125,454.398625)"><path transform="matrix(0.024633,0,0,-0.024633,0,0)" d="M462 224C462 345 355 366 308 374C388 436 418 482 418 541C418 630 344 689 233 689C165 689 120 670 72 622L43 498L74 498L92 554C103 588 166 622 218 622C283 622 336 569 336 506C336 431 277 368 206 368C198 368 187 369 174 370L159 371L147 318L154 312C192 329 211 334 238 334C321 334 369 281 369 190C369 88 308 21 215 21C169 21 128 36 98 64C74 86 61 109 42 163L15 153C36 92 44 56 50 6C103 -12 147 -20 184 -20C307 -20 462 87 462 224Z" stroke="rgb(219,137,0)" stroke-opacity="1" stroke-width="0" fill="rgb(219,137,0)" fill-opacity="1"></path></g></g></g></g></g><g><g transform="matrix(1,0,0,1,477.984375,448.19)"><path transform="matrix(0.03519,0,0,-0.03519,0,0)" d="M204 123C177 114 159 108 106 93C99 17 74 -48 16 -144L30 -155L71 -136C152 -31 190 32 218 109Z" stroke="rgb(219,137,0)" stroke-opacity="1" stroke-width="0" fill="rgb(219,137,0)" fill-opacity="1"></path></g></g><g><g transform="matrix(1,0,0,1,493.78125,448.19)"><path transform="matrix(0.03519,0,0,-0.03519,0,0)" d="M154 473C89 473 51 426 18 377C18 371 27 368 30 365L30 366C54 394 74 412 111 412C206 412 215 290 214 220C212 136 203 53 186 -29C140 -86 92 -181 65 -249C69 -257 74 -265 77 -273C98 -268 119 -260 139 -251C165 -183 189 -106 203 -36C387 199 540 317 547 438C550 493 485 453 459 446L459 435C502 284 287 130 220 19L220 23C302 358 258 473 154 473Z" stroke="rgb(219,137,0)" stroke-opacity="1" stroke-width="0" fill="rgb(219,137,0)" fill-opacity="1"></path></g></g><g><g transform="matrix(1,0,0,1,514.234375,448.19)"><path transform="matrix(0.03519,0,0,-0.03519,0,0)" d="M51 726L32 700C87 636 187 526 187 266C187 -10 83 -131 32 -194L51 -215C104 -165 273 -23 273 265C273 542 108 675 51 726Z" stroke="rgb(219,137,0)" stroke-opacity="1" stroke-width="0" fill="rgb(219,137,0)" fill-opacity="1"></path></g></g></g></g></g></g></g><g><g><g><g transform="matrix(1,0,0,1,875.515625,182.82)"><path transform="matrix(0.04482,0,0,-0.04482,0,0)" d="M429 0L677 0C694 0 711 0 728 2C842 13 943 88 943 188C943 282 847 347 747 363C862 392 915 457 915 520C915 590 845 694 651 694L429 694ZM513 56L513 293L514 330L633 330C650 330 667 331 684 329C778 320 861 264 861 189C861 136 806 56 655 56ZM513 392L513 603L514 638L628 638C782 638 836 567 836 519C836 459 766 392 633 392ZM1080 122C1080 70 1080 -11 1185 -11C1240 -11 1308 3 1360 48L1360 0L1436 0L1436 445L1358 445L1358 165C1358 155 1358 146 1357 136C1352 93 1313 45 1238 45C1170 45 1159 67 1158 110L1158 445L1080 445ZM1598 0L1673 0L1673 445L1598 445ZM1591 590L1681 590L1681 679L1591 679ZM1837 0L1912 0L1912 722L1837 722ZM2030 221C2030 102 2100 -11 2202 -11C2268 -11 2316 19 2350 52L2350 0L2429 0L2429 722L2353 722L2353 401C2318 429 2271 456 2208 456C2109 456 2030 353 2030 221ZM2108 222C2108 353 2195 394 2253 394L2255 394C2266 394 2298 393 2329 364C2347 347 2350 341 2350 325L2350 134C2350 103 2303 51 2243 51C2189 51 2108 90 2108 222Z" stroke="rgb(0,0,0)" stroke-opacity="1" stroke-width="0" fill="rgb(0,0,0)" fill-opacity="1"></path></g></g><g><g transform="matrix(1,0,0,1,1003.03125,182.82)"><path transform="matrix(0.04482,0,0,-0.04482,0,0)" d="M36 228C36 52 135 -11 274 -11C340 -11 392 4 436 27C447 33 456 37 456 52L456 60C450 126 451 125 443 130L438 131C417 128 381 67 277 67C176 67 173 160 173 223L173 242C173 296 174 393 270 397C285 397 318 398 347 388C390 373 410 340 426 340C445 340 450 418 450 418C450 426 448 430 442 434C385 465 345 475 280 475C150 475 36 425 36 228ZM549 45C549 5 571 0 597 0L638 0C681 2 683 22 683 49L683 677C683 714 662 722 637 722L591 722C563 722 549 704 549 675ZM774 233C774 74 861 -11 1028 -11C1097 -11 1159 9 1201 33C1213 40 1217 44 1217 55C1217 55 1217 114 1206 125L1201 127L1197 127C1177 121 1130 62 1030 62C928 62 905 136 903 214L1179 214C1197 214 1223 216 1223 257C1223 364 1181 475 1014 475C870 475 774 401 774 233ZM904 279C910 341 934 402 1014 402C1092 402 1108 346 1111 279ZM1280 430C1280 420 1285 411 1288 402L1400 56C1409 28 1416 0 1465 0L1543 0C1581 0 1594 15 1606 51L1721 405C1724 414 1727 423 1727 432C1725 441 1724 458 1692 458L1665 458C1649 458 1617 458 1603 413L1505 113L1409 407C1405 420 1397 458 1349 458L1316 458C1287 458 1280 441 1280 430ZM1785 233C1785 74 1872 -11 2039 -11C2108 -11 2170 9 2212 33C2224 40 2228 44 2228 55C2228 55 2228 114 2217 125L2212 127L2208 127C2188 121 2141 62 2041 62C1939 62 1916 136 1914 214L2190 214C2208 214 2234 216 2234 257C2234 364 2192 475 2025 475C1881 475 1785 401 1785 233ZM1915 279C1921 341 1945 402 2025 402C2103 402 2119 346 2122 279ZM2326 43C2326 24 2330 0 2371 0L2414 0C2431 0 2432 1 2442 6C2458 19 2460 22 2460 50L2460 225C2460 238 2460 250 2463 263C2473 308 2511 343 2554 358C2587 369 2605 364 2617 373C2621 379 2622 380 2622 391L2622 447C2622 461 2620 469 2602 469L2601 469C2583 469 2508 462 2455 388C2454 438 2454 439 2445 450C2434 461 2430 463 2405 463L2372 463C2351 463 2326 461 2326 418ZM2698 45C2698 5 2720 0 2746 0L2787 0C2830 2 2832 22 2832 49L2832 677C2832 714 2811 722 2786 722L2740 722C2712 722 2698 704 2698 675ZM2923 433C2923 423 2928 414 2932 405L3109 14C3112 8 3114 2 3113 -5C3097 -56 3082 -120 3019 -120C2978 -120 2959 -101 2944 -97L2940 -97L2935 -99C2929 -105 2929 -107 2930 -124C2935 -188 2935 -188 2940 -193C2949 -202 2998 -206 3016 -206C3118 -206 3168 -126 3186 -90C3194 -74 3200 -56 3206 -39L3361 412C3363 418 3365 425 3365 431C3365 440 3360 458 3330 458L3302 458C3255 458 3249 433 3237 400C3202 296 3166 190 3162 137C3147 234 3051 427 3045 434C3028 457 3002 458 2991 458L2957 458C2948 458 2923 457 2923 433Z" stroke="rgb(0,0,0)" stroke-opacity="1" stroke-width="0" fill="rgb(0,0,0)" fill-opacity="1"></path></g></g></g><g><g><g transform="matrix(1,0,0,1,642,245.554375)"><path transform="matrix(0.04482,0,0,-0.04482,0,0)" d="M360 0L435 0L511 204L801 204L878 0L970 0L710 694L621 694ZM532 260C611 476 648 587 656 624C662 587 689 512 780 260ZM1360 34C1435 -7 1496 -11 1530 -11C1664 -11 1693 72 1693 127C1693 192 1647 234 1606 252C1544 280 1437 267 1437 340C1437 365 1452 401 1521 401C1593 401 1625 383 1665 364L1676 430C1621 453 1586 461 1530 461C1394 461 1366 382 1366 329C1366 259 1426 220 1470 206C1501 196 1544 191 1566 184C1586 178 1622 158 1622 120C1622 93 1604 52 1529 52C1448 52 1400 86 1372 102ZM1734 386L1818 386L1818 117C1818 7 1867 -11 1900 -11C1945 -11 1996 -1 2048 27L2032 86C2018 76 1987 53 1944 53C1892 53 1890 112 1890 140L1890 386L2031 386L2031 445L1890 445L1890 571L1820 571L1820 445L1734 445ZM2111 226C2111 102 2198 -11 2329 -11C2392 -11 2444 11 2487 40L2481 106C2437 74 2392 51 2329 51C2253 51 2185 117 2181 220L2491 220L2491 249C2482 420 2384 461 2313 461C2207 461 2111 360 2111 226ZM2186 275C2197 324 2237 399 2313 399C2342 399 2417 386 2434 275ZM2548 -71C2548 -148 2647 -206 2770 -206C2892 -206 2992 -148 2992 -70C2992 -58 2990 -45 2987 -33C2959 67 2837 69 2771 69L2696 69C2648 69 2640 103 2640 122C2640 129 2641 139 2651 159C2673 145 2698 129 2742 129C2835 129 2902 207 2902 292C2902 335 2889 364 2863 399L2872 391C2890 392 2921 395 2947 395C2967 395 2986 394 3006 392L2995 455C2941 455 2888 445 2838 424L2840 422C2807 445 2779 455 2742 455C2660 455 2583 389 2583 292C2583 272 2586 232 2616 193L2616 192C2598 168 2587 141 2587 108C2587 76 2596 55 2612 32C2573 9 2548 -30 2548 -71ZM2618 -71C2618 -42 2640 -8 2681 -4L2710 -3L2773 -3C2881 -3 2922 -31 2922 -72C2922 -118 2850 -149 2769 -149C2714 -149 2618 -127 2618 -71ZM2653 292C2653 377 2706 398 2742 398C2796 398 2832 358 2832 293C2832 208 2779 187 2743 187C2689 187 2653 227 2653 292ZM3065 113C3065 67 3095 -11 3179 -11C3289 -11 3344 34 3345 35L3345 0L3421 0L3421 305C3416 389 3350 461 3255 461C3192 461 3146 445 3098 417L3104 350C3137 373 3179 401 3254 401C3267 401 3293 400 3317 371C3342 341 3342 307 3343 279L3343 245C3240 244 3065 219 3065 113ZM3138 114C3138 177 3271 192 3343 193L3343 130C3343 65 3274 51 3231 51C3177 51 3138 78 3138 114ZM3581 0L3659 0L3659 240C3659 314 3684 394 3761 394C3859 394 3859 319 3859 281L3859 0L3937 0L3937 288C3937 358 3928 455 3800 455C3712 455 3668 398 3654 380L3654 450L3581 450ZM4062 113C4062 67 4092 -11 4176 -11C4286 -11 4341 34 4342 35L4342 0L4418 0L4418 305C4413 389 4347 461 4252 461C4189 461 4143 445 4095 417L4101 350C4134 373 4176 401 4251 401C4264 401 4290 400 4314 371C4339 341 4339 307 4340 279L4340 245C4237 244 4062 219 4062 113ZM4135 114C4135 177 4268 192 4340 193L4340 130C4340 65 4271 51 4228 51C4174 51 4135 78 4135 114ZM4579 0L4654 0L4654 722L4579 722ZM4751 445L4938 18C4942 10 4943 6 4943 1C4943 -3 4942 -8 4939 -15C4896 -119 4888 -149 4846 -149C4829 -149 4807 -143 4773 -132L4778 -197C4802 -203 4832 -205 4851 -205C4897 -205 4926 -182 4966 -90L5183 445L5108 445C5042 281 4977 118 4975 50C4966 107 4966 134 4830 445ZM5225 34C5300 -7 5361 -11 5395 -11C5529 -11 5558 72 5558 127C5558 192 5512 234 5471 252C5409 280 5302 267 5302 340C5302 365 5317 401 5386 401C5458 401 5490 383 5530 364L5541 430C5486 453 5451 461 5395 461C5259 461 5231 382 5231 329C5231 259 5291 220 5335 206C5366 196 5409 191 5431 184C5451 178 5487 158 5487 120C5487 93 5469 52 5394 52C5313 52 5265 86 5237 102ZM5662 0L5737 0L5737 445L5662 445ZM5655 590L5745 590L5745 679L5655 679ZM5847 34C5922 -7 5983 -11 6017 -11C6151 -11 6180 72 6180 127C6180 192 6134 234 6093 252C6031 280 5924 267 5924 340C5924 365 5939 401 6008 401C6080 401 6112 383 6152 364L6163 430C6108 453 6073 461 6017 461C5881 461 5853 382 5853 329C5853 259 5913 220 5957 206C5988 196 6031 191 6053 184C6073 178 6109 158 6109 120C6109 93 6091 52 6016 52C5935 52 5887 86 5859 102ZM6571 221C6571 102 6641 -11 6743 -11C6809 -11 6857 19 6891 52L6891 0L6970 0L6970 722L6894 722L6894 401C6859 429 6812 456 6749 456C6650 456 6571 353 6571 221ZM6649 222C6649 353 6736 394 6794 394L6796 394C6807 394 6839 393 6870 364C6888 347 6891 341 6891 325L6891 134C6891 103 6844 51 6784 51C6730 51 6649 90 6649 222ZM7097 113C7097 67 7127 -11 7211 -11C7321 -11 7376 34 7377 35L7377 0L7453 0L7453 305C7448 389 7382 461 7287 461C7224 461 7178 445 7130 417L7136 350C7169 373 7211 401 7286 401C7299 401 7325 400 7349 371C7374 341 7374 307 7375 279L7375 245C7272 244 7097 219 7097 113ZM7170 114C7170 177 7303 192 7375 193L7375 130C7375 65 7306 51 7263 51C7209 51 7170 78 7170 114ZM7551 386L7635 386L7635 117C7635 7 7684 -11 7717 -11C7762 -11 7813 -1 7865 27L7849 86C7835 76 7804 53 7761 53C7709 53 7707 112 7707 140L7707 386L7848 386L7848 445L7707 445L7707 571L7637 571L7637 445L7551 445ZM7938 113C7938 67 7968 -11 8052 -11C8162 -11 8217 34 8218 35L8218 0L8294 0L8294 305C8289 389 8223 461 8128 461C8065 461 8019 445 7971 417L7977 350C8010 373 8052 401 8127 401C8140 401 8166 400 8190 371C8215 341 8215 307 8216 279L8216 245C8113 244 7938 219 7938 113ZM8011 114C8011 177 8144 192 8216 193L8216 130C8216 65 8147 51 8104 51C8050 51 8011 78 8011 114ZM8455 0L8533 0L8533 46C8567 15 8608 -11 8667 -11C8766 -11 8854 86 8854 224C8854 344 8789 455 8690 455C8659 455 8594 448 8530 397L8530 722L8455 722ZM8533 133L8533 320C8533 357 8588 394 8640 394C8694 394 8775 356 8775 223C8775 92 8689 50 8632 50C8603 50 8573 62 8550 90C8537 109 8533 107 8533 133ZM8935 113C8935 67 8965 -11 9049 -11C9159 -11 9214 34 9215 35L9215 0L9291 0L9291 305C9286 389 9220 461 9125 461C9062 461 9016 445 8968 417L8974 350C9007 373 9049 401 9124 401C9137 401 9163 400 9187 371C9212 341 9212 307 9213 279L9213 245C9110 244 8935 219 8935 113ZM9008 114C9008 177 9141 192 9213 193L9213 130C9213 65 9144 51 9101 51C9047 51 9008 78 9008 114ZM9398 34C9473 -7 9534 -11 9568 -11C9702 -11 9731 72 9731 127C9731 192 9685 234 9644 252C9582 280 9475 267 9475 340C9475 365 9490 401 9559 401C9631 401 9663 383 9703 364L9714 430C9659 453 9624 461 9568 461C9432 461 9404 382 9404 329C9404 259 9464 220 9508 206C9539 196 9582 191 9604 184C9624 178 9660 158 9660 120C9660 93 9642 52 9567 52C9486 52 9438 86 9410 102ZM9788 226C9788 102 9875 -11 10006 -11C10069 -11 10121 11 10164 40L10158 106C10114 74 10069 51 10006 51C9930 51 9862 117 9858 220L10168 220L10168 249C10159 420 10061 461 9990 461C9884 461 9788 360 9788 226ZM9863 275C9874 324 9914 399 9990 399C10019 399 10094 386 10111 275Z" stroke="rgb(0,0,0)" stroke-opacity="1" stroke-width="0" fill="rgb(0,0,0)" fill-opacity="1"></path></g></g><g><g transform="matrix(1,0,0,1,1114,245.554375)"><path transform="matrix(0.04482,0,0,-0.04482,0,0)" d="M36 239C36 206 36 172 47 130C75 23 155 -11 235 -11C290 -11 326 6 362 32C371 1 390 0 408 0L454 0C496 0 499 27 499 46L499 677C499 698 496 722 449 722L409 722C370 722 365 697 365 678L365 433C329 456 290 469 240 469C135 469 39 417 36 239ZM173 221L173 242C173 303 174 396 284 396C331 396 355 371 362 366L362 121C362 91 317 62 274 62C175 62 173 150 173 221ZM617 626C617 586 640 580 663 580L715 580C724 581 759 579 759 624L759 676C759 716 736 722 713 722L662 722C643 721 617 722 617 676ZM621 50C621 33 620 0 665 0L711 0C756 0 755 33 755 45L755 408C755 434 753 458 706 458L665 458C620 458 621 425 621 413ZM841 430C841 420 846 411 849 402L961 56C970 28 977 0 1026 0L1104 0C1142 0 1155 15 1167 51L1282 405C1285 414 1288 423 1288 432C1286 441 1285 458 1253 458L1226 458C1210 458 1178 458 1164 413L1066 113L970 407C966 420 958 458 910 458L877 458C848 458 841 441 841 430ZM1346 233C1346 74 1433 -11 1600 -11C1669 -11 1731 9 1773 33C1785 40 1789 44 1789 55C1789 55 1789 114 1778 125L1773 127L1769 127C1749 121 1702 62 1602 62C1500 62 1477 136 1475 214L1751 214C1769 214 1795 216 1795 257C1795 364 1753 475 1586 475C1442 475 1346 401 1346 233ZM1476 279C1482 341 1506 402 1586 402C1664 402 1680 346 1683 279ZM1887 43C1887 24 1891 0 1932 0L1975 0C1992 0 1993 1 2003 6C2019 19 2021 22 2021 50L2021 225C2021 238 2021 250 2024 263C2034 308 2072 343 2115 358C2148 369 2166 364 2178 373C2182 379 2183 380 2183 391L2183 447C2183 461 2181 469 2163 469L2162 469C2144 469 2069 462 2016 388C2015 438 2015 439 2006 450C1995 461 1991 463 1966 463L1933 463C1912 463 1887 461 1887 418ZM2230 50C2230 47 2231 45 2232 42L2236 37C2261 21 2326 -11 2415 -11C2514 -11 2595 19 2595 140C2595 221 2535 261 2507 275C2445 307 2334 295 2334 354C2334 392 2367 402 2408 402C2505 402 2532 348 2553 348C2558 348 2562 352 2565 363C2571 397 2575 415 2575 426C2575 440 2569 443 2551 450C2514 465 2476 474 2429 475L2403 475C2319 473 2235 446 2235 331C2235 250 2302 210 2339 196C2396 175 2495 183 2495 121C2495 79 2462 68 2417 68C2310 68 2274 143 2256 143C2244 143 2243 127 2242 120C2234 76 2230 59 2230 50ZM2651 233C2651 74 2738 -11 2905 -11C2974 -11 3036 9 3078 33C3090 40 3094 44 3094 55C3094 55 3094 114 3083 125L3078 127L3074 127C3054 121 3007 62 2907 62C2805 62 2782 136 2780 214L3056 214C3074 214 3100 216 3100 257C3100 364 3058 475 2891 475C2747 475 2651 401 2651 233ZM2781 279C2787 341 2811 402 2891 402C2969 402 2985 346 2988 279Z" stroke="rgb(0,0,0)" stroke-opacity="1" stroke-width="0" fill="rgb(0,0,0)" fill-opacity="1"></path></g></g><g><g transform="matrix(1,0,0,1,1270.828125,245.554375)"><path transform="matrix(0.04482,0,0,-0.04482,0,0)" d="M34 226C34 102 121 -11 252 -11C315 -11 367 11 410 40L404 106C360 74 315 51 252 51C176 51 108 117 104 220L414 220L414 249C405 420 307 461 236 461C130 461 34 360 34 226ZM109 275C120 324 160 399 236 399C265 399 340 386 357 275ZM524 0L602 0L602 240C602 314 627 394 704 394C802 394 802 319 802 281L802 0L880 0L880 288C880 358 871 455 743 455C655 455 611 398 597 380L597 450L524 450ZM991 221C991 85 1096 -11 1210 -11C1324 -11 1430 84 1430 220C1430 345 1338 461 1210 461C1092 461 991 357 991 221ZM1069 231C1069 352 1146 399 1210 399C1274 399 1351 353 1351 231C1351 106 1277 53 1210 53C1144 53 1069 105 1069 231ZM1541 122C1541 70 1541 -11 1646 -11C1701 -11 1769 3 1821 48L1821 0L1897 0L1897 445L1819 445L1819 165C1819 155 1819 146 1818 136C1813 93 1774 45 1699 45C1631 45 1620 67 1619 110L1619 445L1541 445ZM2005 -71C2005 -148 2104 -206 2227 -206C2349 -206 2449 -148 2449 -70C2449 -58 2447 -45 2444 -33C2416 67 2294 69 2228 69L2153 69C2105 69 2097 103 2097 122C2097 129 2098 139 2108 159C2130 145 2155 129 2199 129C2292 129 2359 207 2359 292C2359 335 2346 364 2320 399L2329 391C2347 392 2378 395 2404 395C2424 395 2443 394 2463 392L2452 455C2398 455 2345 445 2295 424L2297 422C2264 445 2236 455 2199 455C2117 455 2040 389 2040 292C2040 272 2043 232 2073 193L2073 192C2055 168 2044 141 2044 108C2044 76 2053 55 2069 32C2030 9 2005 -30 2005 -71ZM2075 -71C2075 -42 2097 -8 2138 -4L2167 -3L2230 -3C2338 -3 2379 -31 2379 -72C2379 -118 2307 -149 2226 -149C2171 -149 2075 -127 2075 -71ZM2110 292C2110 377 2163 398 2199 398C2253 398 2289 358 2289 293C2289 208 2236 187 2200 187C2146 187 2110 227 2110 292ZM2558 0L2636 0L2636 240C2636 314 2661 394 2738 394C2836 394 2836 319 2836 281L2836 0L2914 0L2914 288C2914 349 2910 455 2777 455C2708 455 2665 422 2633 384L2633 722L2558 722Z" stroke="rgb(0,0,0)" stroke-opacity="1" stroke-width="0" fill="rgb(0,0,0)" fill-opacity="1"></path></g></g></g><g><g><g transform="matrix(1,0,0,1,724.484375,308.28875)"><path transform="matrix(0.04482,0,0,-0.04482,0,0)" d="M35 623L177 623L295 624L295 0L384 0L384 624L501 623L643 623L643 689L35 689ZM627 221C627 85 732 -11 846 -11C960 -11 1066 84 1066 220C1066 345 974 461 846 461C728 461 627 357 627 221ZM705 231C705 352 782 399 846 399C910 399 987 353 987 231C987 106 913 53 846 53C780 53 705 105 705 231ZM1448 386L1532 386L1532 117C1532 7 1581 -11 1614 -11C1659 -11 1710 -1 1762 27L1746 86C1732 76 1701 53 1658 53C1606 53 1604 112 1604 140L1604 386L1745 386L1745 445L1604 445L1604 571L1534 571L1534 445L1448 445ZM1872 0L1947 0L1947 206C1947 352 2058 386 2117 388L2117 455C2011 453 1958 385 1942 360L1942 450L1872 450ZM2177 113C2177 67 2207 -11 2291 -11C2401 -11 2456 34 2457 35L2457 0L2533 0L2533 305C2528 389 2462 461 2367 461C2304 461 2258 445 2210 417L2216 350C2249 373 2291 401 2366 401C2379 401 2405 400 2429 371C2454 341 2454 307 2455 279L2455 245C2352 244 2177 219 2177 113ZM2250 114C2250 177 2383 192 2455 193L2455 130C2455 65 2386 51 2343 51C2289 51 2250 78 2250 114ZM2694 0L2769 0L2769 445L2694 445ZM2687 590L2777 590L2777 679L2687 679ZM2932 0L3010 0L3010 240C3010 314 3035 394 3112 394C3210 394 3210 319 3210 281L3210 0L3288 0L3288 288C3288 358 3279 455 3151 455C3063 455 3019 398 3005 380L3005 450L2932 450ZM3746 113C3746 67 3776 -11 3860 -11C3970 -11 4025 34 4026 35L4026 0L4102 0L4102 305C4097 389 4031 461 3936 461C3873 461 3827 445 3779 417L3785 350C3818 373 3860 401 3935 401C3948 401 3974 400 3998 371C4023 341 4023 307 4024 279L4024 245C3921 244 3746 219 3746 113ZM3819 114C3819 177 3952 192 4024 193L4024 130C4024 65 3955 51 3912 51C3858 51 3819 78 3819 114ZM4550 221C4550 102 4620 -11 4722 -11C4788 -11 4836 19 4870 52L4870 0L4949 0L4949 722L4873 722L4873 401C4838 429 4791 456 4728 456C4629 456 4550 353 4550 221ZM4628 222C4628 353 4715 394 4773 394L4775 394C4786 394 4818 393 4849 364C4867 347 4870 341 4870 325L4870 134C4870 103 4823 51 4763 51C4709 51 4628 90 4628 222ZM5066 226C5066 102 5153 -11 5284 -11C5347 -11 5399 11 5442 40L5436 106C5392 74 5347 51 5284 51C5208 51 5140 117 5136 220L5446 220L5446 249C5437 420 5339 461 5268 461C5162 461 5066 360 5066 226ZM5141 275C5152 324 5192 399 5268 399C5297 399 5372 386 5389 275ZM5494 386L5578 386L5578 117C5578 7 5627 -11 5660 -11C5705 -11 5756 -1 5808 27L5792 86C5778 76 5747 53 5704 53C5652 53 5650 112 5650 140L5650 386L5791 386L5791 445L5650 445L5650 571L5580 571L5580 445L5494 445ZM5871 226C5871 102 5958 -11 6089 -11C6152 -11 6204 11 6247 40L6241 106C6197 74 6152 51 6089 51C6013 51 5945 117 5941 220L6251 220L6251 249C6242 420 6144 461 6073 461C5967 461 5871 360 5871 226ZM5946 275C5957 324 5997 399 6073 399C6102 399 6177 386 6194 275ZM6316 223C6316 95 6410 -11 6533 -11C6602 -11 6651 11 6696 40L6691 107C6659 85 6612 53 6534 53C6450 53 6394 126 6394 223C6394 310 6438 397 6535 397C6614 397 6640 376 6679 351L6691 417C6630 452 6598 461 6536 461C6396 461 6316 339 6316 223ZM6743 386L6827 386L6827 117C6827 7 6876 -11 6909 -11C6954 -11 7005 -1 7057 27L7041 86C7027 76 6996 53 6953 53C6901 53 6899 112 6899 140L6899 386L7040 386L7040 445L6899 445L6899 571L6829 571L6829 445L6743 445ZM7116 221C7116 85 7221 -11 7335 -11C7449 -11 7555 84 7555 220C7555 345 7463 461 7335 461C7217 461 7116 357 7116 221ZM7194 231C7194 352 7271 399 7335 399C7399 399 7476 353 7476 231C7476 106 7402 53 7335 53C7269 53 7194 105 7194 231ZM7639 0L7714 0L7714 206C7714 352 7825 386 7884 388L7884 455C7778 453 7725 385 7709 360L7709 450L7639 450Z" stroke="rgb(0,0,0)" stroke-opacity="1" stroke-width="0" fill="rgb(0,0,0)" fill-opacity="1"></path></g></g><g><g transform="matrix(1,0,0,1,1093.5,308.28875)"><path transform="matrix(0.04482,0,0,-0.04482,0,0)" d="M30 233C30 74 117 -11 284 -11C353 -11 415 9 457 33C469 40 473 44 473 55C473 55 473 114 462 125L457 127L453 127C433 121 386 62 286 62C184 62 161 136 159 214L435 214C453 214 479 216 479 257C479 364 437 475 270 475C126 475 30 401 30 233ZM160 279C166 341 190 402 270 402C348 402 364 346 367 279ZM542 422C542 412 545 385 585 385L597 385L597 46C597 31 596 0 641 0L683 0C730 0 730 27 730 52L730 385L789 385C829 385 834 413 834 422C834 432 829 458 790 458L727 458L727 589C727 616 729 660 777 660C810 660 824 643 832 635C835 632 845 622 852 622C858 622 862 628 862 647L862 702C862 714 855 733 773 733L772 733C631 732 597 645 597 545L597 458L587 458C546 458 542 433 542 422ZM902 47C902 5 925 0 948 0L991 0C1014 0 1037 6 1036 46L1036 385L1095 385C1135 385 1139 413 1139 422C1139 432 1134 458 1095 458L1033 458L1033 590C1033 634 1040 660 1068 660C1082 660 1091 654 1103 646C1120 621 1121 621 1126 620C1131 620 1138 622 1139 638L1139 705C1139 713 1144 733 1065 733C929 733 902 641 902 545ZM1205 633C1205 586 1234 586 1255 586L1298 586C1343 589 1342 612 1342 639L1342 675C1342 722 1313 722 1293 722L1250 722C1206 720 1205 698 1205 670ZM1207 50C1207 27 1207 0 1254 0L1297 0C1342 0 1341 33 1341 45L1341 408C1341 419 1344 458 1299 458L1255 458C1208 458 1207 429 1207 413ZM1438 228C1438 52 1537 -11 1676 -11C1742 -11 1794 4 1838 27C1849 33 1858 37 1858 52L1858 60C1852 126 1853 125 1845 130L1840 131C1819 128 1783 67 1679 67C1578 67 1575 160 1575 223L1575 242C1575 296 1576 393 1672 397C1687 397 1720 398 1749 388C1792 373 1812 340 1828 340C1847 340 1852 418 1852 418C1852 426 1850 430 1844 434C1787 465 1747 475 1682 475C1552 475 1438 425 1438 228ZM1947 626C1947 586 1970 580 1993 580L2045 580C2054 581 2089 579 2089 624L2089 676C2089 716 2066 722 2043 722L1992 722C1973 721 1947 722 1947 676ZM1951 50C1951 33 1950 0 1995 0L2041 0C2086 0 2085 33 2085 45L2085 408C2085 434 2083 458 2036 458L1995 458C1950 458 1951 425 1951 413ZM2176 233C2176 74 2263 -11 2430 -11C2499 -11 2561 9 2603 33C2615 40 2619 44 2619 55C2619 55 2619 114 2608 125L2603 127L2599 127C2579 121 2532 62 2432 62C2330 62 2307 136 2305 214L2581 214C2599 214 2625 216 2625 257C2625 364 2583 475 2416 475C2272 475 2176 401 2176 233ZM2306 279C2312 341 2336 402 2416 402C2494 402 2510 346 2513 279ZM2716 45C2716 6 2740 0 2763 0L2807 0C2853 0 2853 53 2853 53L2853 261C2853 279 2854 297 2859 315C2868 346 2900 396 2962 396C3021 396 3021 355 3021 318L3021 44C3021 19 3028 0 3067 0L3114 0C3155 0 3157 28 3157 44L3157 308C3157 380 3157 469 3009 469C2928 469 2882 435 2847 400L2847 420C2847 463 2819 463 2801 463L2761 463C2742 463 2716 460 2716 418ZM3239 422C3239 411 3243 385 3283 385L3304 385L3304 152C3304 121 3304 91 3313 61C3330 6 3368 -11 3408 -11C3482 -11 3590 21 3590 47C3590 47 3582 102 3567 102C3554 102 3524 67 3477 67C3449 67 3435 85 3435 159C3435 168 3436 176 3436 185L3436 385L3529 385C3567 386 3572 411 3572 421C3572 430 3567 458 3527 458L3436 458L3436 544C3436 568 3426 589 3391 589L3355 589C3338 589 3307 588 3307 544L3307 458L3283 458C3243 458 3239 433 3239 422ZM3682 45C3682 5 3704 0 3730 0L3771 0C3814 2 3816 22 3816 49L3816 677C3816 714 3795 722 3770 722L3724 722C3696 722 3682 704 3682 675ZM3907 433C3907 423 3912 414 3916 405L4093 14C4096 8 4098 2 4097 -5C4081 -56 4066 -120 4003 -120C3962 -120 3943 -101 3928 -97L3924 -97L3919 -99C3913 -105 3913 -107 3914 -124C3919 -188 3919 -188 3924 -193C3933 -202 3982 -206 4000 -206C4102 -206 4152 -126 4170 -90C4178 -74 4184 -56 4190 -39L4345 412C4347 418 4349 425 4349 431C4349 440 4344 458 4314 458L4286 458C4239 458 4233 433 4221 400C4186 296 4150 190 4146 137C4131 234 4035 427 4029 434C4012 457 3986 458 3975 458L3941 458C3932 458 3907 457 3907 433Z" stroke="rgb(0,0,0)" stroke-opacity="1" stroke-width="0" fill="rgb(0,0,0)" fill-opacity="1"></path></g></g></g><g><g><g transform="matrix(1,0,0,1,789.4375,371.023125)"><path transform="matrix(0.04482,0,0,-0.04482,0,0)" d="M427 0L517 0L517 694L427 694ZM691 0L769 0L769 240C769 314 794 394 871 394C969 394 969 319 969 281L969 0L1047 0L1047 288C1047 358 1038 455 910 455C822 455 778 398 764 380L764 450L691 450ZM1505 113C1505 67 1535 -11 1619 -11C1729 -11 1784 34 1785 35L1785 0L1861 0L1861 305C1856 389 1790 461 1695 461C1632 461 1586 445 1538 417L1544 350C1577 373 1619 401 1694 401C1707 401 1733 400 1757 371C1782 341 1782 307 1783 279L1783 245C1680 244 1505 219 1505 113ZM1578 114C1578 177 1711 192 1783 193L1783 130C1783 65 1714 51 1671 51C1617 51 1578 78 1578 114ZM2021 0L2099 0L2099 240C2099 314 2124 394 2201 394C2299 394 2299 319 2299 281L2299 0L2377 0L2377 288C2377 358 2368 455 2240 455C2152 455 2108 398 2094 380L2094 450L2021 450Z" stroke="rgb(0,0,0)" stroke-opacity="1" stroke-width="0" fill="rgb(0,0,0)" fill-opacity="1"></path></g></g><g><g transform="matrix(1,0,0,1,914.53125,371.023125)"><path transform="matrix(0.04482,0,0,-0.04482,0,0)" d="M30 224C30 36 146 -11 275 -11C398 -11 518 35 518 220C518 465 356 475 259 475C146 475 30 424 30 224ZM167 214L167 241C167 310 165 402 273 402C380 402 380 313 381 255L381 228C380 161 383 67 274 67C170 67 169 155 167 214ZM610 -149C610 -160 608 -195 654 -195L700 -195C730 -195 747 -186 747 -147L747 26C779 3 811 -11 859 -11C961 -11 1072 35 1073 224C1073 265 1071 299 1062 335C1042 412 990 469 890 469C846 469 793 458 743 427C735 457 714 458 697 458L655 458C615 458 610 435 610 412ZM747 100L747 358C764 370 788 391 834 391C915 391 936 318 936 242L936 230C936 192 935 145 910 106C890 75 856 62 823 62C777 62 756 91 747 100ZM1172 233C1172 74 1259 -11 1426 -11C1495 -11 1557 9 1599 33C1611 40 1615 44 1615 55C1615 55 1615 114 1604 125L1599 127L1595 127C1575 121 1528 62 1428 62C1326 62 1303 136 1301 214L1577 214C1595 214 1621 216 1621 257C1621 364 1579 475 1412 475C1268 475 1172 401 1172 233ZM1302 279C1308 341 1332 402 1412 402C1490 402 1506 346 1509 279ZM1713 43C1713 24 1717 0 1758 0L1801 0C1818 0 1819 1 1829 6C1845 19 1847 22 1847 50L1847 225C1847 238 1847 250 1850 263C1860 308 1898 343 1941 358C1974 369 1992 364 2004 373C2008 379 2009 380 2009 391L2009 447C2009 461 2007 469 1989 469L1988 469C1970 469 1895 462 1842 388C1841 438 1841 439 1832 450C1821 461 1817 463 1792 463L1759 463C1738 463 1713 461 1713 418ZM2055 137C2055 69 2105 -11 2201 -11C2283 -11 2333 23 2355 40C2355 23 2364 0 2396 0L2444 0C2484 0 2489 23 2489 45L2489 308C2489 408 2443 475 2282 475C2219 475 2170 463 2125 443C2103 432 2097 433 2097 417C2097 417 2100 352 2107 340L2111 337L2115 336C2137 337 2167 405 2282 405C2345 405 2353 359 2353 312L2353 291C2264 290 2055 273 2055 137ZM2186 137C2186 215 2292 227 2353 232L2353 154C2353 80 2288 62 2255 62C2212 62 2186 101 2186 137ZM2571 422C2571 411 2575 385 2615 385L2636 385L2636 152C2636 121 2636 91 2645 61C2662 6 2700 -11 2740 -11C2814 -11 2922 21 2922 47C2922 47 2914 102 2899 102C2886 102 2856 67 2809 67C2781 67 2767 85 2767 159C2767 168 2768 176 2768 185L2768 385L2861 385C2899 386 2904 411 2904 421C2904 430 2899 458 2859 458L2768 458L2768 544C2768 568 2758 589 2723 589L2687 589C2670 589 2639 588 2639 544L2639 458L2615 458C2575 458 2571 433 2571 422ZM3010 626C3010 586 3033 580 3056 580L3108 580C3117 581 3152 579 3152 624L3152 676C3152 716 3129 722 3106 722L3055 722C3036 721 3010 722 3010 676ZM3014 50C3014 33 3013 0 3058 0L3104 0C3149 0 3148 33 3148 45L3148 408C3148 434 3146 458 3099 458L3058 458C3013 458 3014 425 3014 413ZM3239 224C3239 36 3355 -11 3484 -11C3607 -11 3727 35 3727 220C3727 465 3565 475 3468 475C3355 475 3239 424 3239 224ZM3376 214L3376 241C3376 310 3374 402 3482 402C3589 402 3589 313 3590 255L3590 228C3589 161 3592 67 3483 67C3379 67 3378 155 3376 214ZM3818 45C3818 6 3842 0 3865 0L3909 0C3955 0 3955 53 3955 53L3955 261C3955 279 3956 297 3961 315C3970 346 4002 396 4064 396C4123 396 4123 355 4123 318L4123 44C4123 19 4130 0 4169 0L4216 0C4257 0 4259 28 4259 44L4259 308C4259 380 4259 469 4111 469C4030 469 3984 435 3949 400L3949 420C3949 463 3921 463 3903 463L3863 463C3844 463 3818 460 3818 418ZM4350 137C4350 69 4400 -11 4496 -11C4578 -11 4628 23 4650 40C4650 23 4659 0 4691 0L4739 0C4779 0 4784 23 4784 45L4784 308C4784 408 4738 475 4577 475C4514 475 4465 463 4420 443C4398 432 4392 433 4392 417C4392 417 4395 352 4402 340L4406 337L4410 336C4432 337 4462 405 4577 405C4640 405 4648 359 4648 312L4648 291C4559 290 4350 273 4350 137ZM4481 137C4481 215 4587 227 4648 232L4648 154C4648 80 4583 62 4550 62C4507 62 4481 101 4481 137ZM4905 45C4905 5 4927 0 4953 0L4994 0C5037 2 5039 22 5039 49L5039 677C5039 714 5018 722 4993 722L4947 722C4919 722 4905 704 4905 675Z" stroke="rgb(0,0,0)" stroke-opacity="1" stroke-width="0" fill="rgb(0,0,0)" fill-opacity="1"></path></g></g><g><g transform="matrix(1,0,0,1,1143.125,371.023125)"><path transform="matrix(0.04482,0,0,-0.04482,0,0)" d="M360 34C435 -7 496 -11 530 -11C664 -11 693 72 693 127C693 192 647 234 606 252C544 280 437 267 437 340C437 365 452 401 521 401C593 401 625 383 665 364L676 430C621 453 586 461 530 461C394 461 366 382 366 329C366 259 426 220 470 206C501 196 544 191 566 184C586 178 622 158 622 120C622 93 604 52 529 52C448 52 400 86 372 102ZM750 226C750 102 837 -11 968 -11C1031 -11 1083 11 1126 40L1120 106C1076 74 1031 51 968 51C892 51 824 117 820 220L1130 220L1130 249C1121 420 1023 461 952 461C846 461 750 360 750 226ZM825 275C836 324 876 399 952 399C981 399 1056 386 1073 275ZM1178 386L1262 386L1262 117C1262 7 1311 -11 1344 -11C1389 -11 1440 -1 1492 27L1476 86C1462 76 1431 53 1388 53C1336 53 1334 112 1334 140L1334 386L1475 386L1475 445L1334 445L1334 571L1264 571L1264 445L1178 445ZM1601 122C1601 70 1601 -11 1706 -11C1761 -11 1829 3 1881 48L1881 0L1957 0L1957 445L1879 445L1879 165C1879 155 1879 146 1878 136C1873 93 1834 45 1759 45C1691 45 1680 67 1679 110L1679 445L1601 445ZM2119 -195L2197 -195L2197 46C2230 15 2273 -11 2332 -11C2429 -11 2518 83 2518 224C2518 343 2455 455 2360 455C2326 455 2258 448 2194 396L2194 445L2119 445ZM2197 126L2197 334C2203 341 2237 391 2303 391C2385 391 2439 310 2439 222C2439 116 2364 50 2294 50C2235 50 2197 102 2197 126Z" stroke="rgb(0,0,0)" stroke-opacity="1" stroke-width="0" fill="rgb(0,0,0)" fill-opacity="1"></path></g></g></g></g></svg>
</svg>
