<svg xmlns="http://www.w3.org/2000/svg" xmlns:xlink="http://www.w3.org/1999/xlink" x="0" y="0" width="811" height="544.9375" style="
        width:811px;
        height:544.9375px;
        background: transparent;
        fill: none;
">
        
        
        <svg xmlns="http://www.w3.org/2000/svg" class="role-diagram-draw-area"><g class="shapes-region" style="stroke: black; fill: none;"><g class="composite-shape"><path class="real" d=" M96.25,90.97 C96.25,77.88 107.2,67.27 120.7,67.27 C134.21,67.27 145.16,77.88 145.16,90.97 C145.16,104.07 134.21,114.68 120.7,114.68 C107.2,114.68 96.25,104.07 96.25,90.97 Z" style="stroke-width: 4; stroke: rgb(0, 0, 0); stroke-opacity: 0.62; fill: rgb(0, 0, 0); fill-opacity: 0.14;"/></g><g class="composite-shape"><path class="real" d=" M146.97,90.97 C146.97,77.88 157.92,67.27 171.43,67.27 C184.94,67.27 195.89,77.88 195.89,90.97 C195.89,104.07 184.94,114.68 171.43,114.68 C157.92,114.68 146.97,104.07 146.97,90.97 Z" style="stroke-width: 4; stroke: rgb(0, 0, 0); stroke-opacity: 0.62; fill: rgb(0, 0, 0); fill-opacity: 0.14;"/></g><g class="composite-shape"><path class="real" d=" M95.88,141.88 C95.88,128.79 106.83,118.17 120.34,118.17 C133.85,118.17 144.8,128.79 144.8,141.88 C144.8,154.98 133.85,165.59 120.34,165.59 C106.83,165.59 95.88,154.98 95.88,141.88 Z" style="stroke-width: 4; stroke: rgb(0, 0, 0); stroke-opacity: 0.62; fill: rgb(0, 0, 0); fill-opacity: 0.14;"/></g><g class="composite-shape"><path class="real" d=" M146.97,141.88 C146.97,128.79 157.92,118.17 171.43,118.17 C184.94,118.17 195.89,128.79 195.89,141.88 C195.89,154.98 184.94,165.59 171.43,165.59 C157.92,165.59 146.97,154.98 146.97,141.88 Z" style="stroke-width: 4; stroke: rgb(0, 0, 0); stroke-opacity: 0.62; fill: rgb(0, 0, 0); fill-opacity: 0.14;"/></g><g class="composite-shape"><path class="real" d=" M197.25,91.97 C197.25,78.88 208.2,68.27 221.7,68.27 C235.21,68.27 246.16,78.88 246.16,91.97 C246.16,105.07 235.21,115.68 221.7,115.68 C208.2,115.68 197.25,105.07 197.25,91.97 Z" style="stroke-width: 4; stroke: rgb(0, 0, 0); stroke-opacity: 0.62; fill: rgb(0, 0, 0); fill-opacity: 0.14;"/></g><g class="composite-shape"><path class="real" d=" M247.97,91.97 C247.97,78.88 258.92,68.27 272.43,68.27 C285.94,68.27 296.89,78.88 296.89,91.97 C296.89,105.07 285.94,115.68 272.43,115.68 C258.92,115.68 247.97,105.07 247.97,91.97 Z" style="stroke-width: 4; stroke: rgb(0, 0, 0); stroke-opacity: 0.62; fill: rgb(0, 0, 0); fill-opacity: 0.14;"/></g><g class="composite-shape"><path class="real" d=" M196.88,142.88 C196.88,129.79 207.83,119.17 221.34,119.17 C234.85,119.17 245.8,129.79 245.8,142.88 C245.8,155.98 234.85,166.59 221.34,166.59 C207.83,166.59 196.88,155.98 196.88,142.88 Z" style="stroke-width: 4; stroke: rgb(0, 0, 0); stroke-opacity: 0.62; fill: rgb(0, 0, 0); fill-opacity: 0.14;"/></g><g class="composite-shape"><path class="real" d=" M246.97,142.88 C246.97,129.79 257.92,119.17 271.43,119.17 C284.93,119.17 295.88,129.79 295.88,142.88 C295.88,155.98 284.93,166.59 271.43,166.59 C257.92,166.59 246.97,155.98 246.97,142.88 Z" style="stroke-width: 4; stroke: rgb(0, 0, 0); stroke-opacity: 0.62; fill: rgb(0, 0, 0); fill-opacity: 0.14;"/></g><g class="grouped-shape"><g class="composite-shape"><path class="real" d=" M296.25,91.97 C296.25,78.88 307.2,68.27 320.7,68.27 C334.21,68.27 345.16,78.88 345.16,91.97 C345.16,105.07 334.21,115.68 320.7,115.68 C307.2,115.68 296.25,105.07 296.25,91.97 Z" style="stroke-width: 4; stroke: rgb(0, 0, 0); stroke-opacity: 0.62; fill: rgb(0, 0, 0); fill-opacity: 0.14;"/></g><g class="composite-shape"><path class="real" d=" M346.97,91.97 C346.97,78.88 357.92,68.27 371.43,68.27 C384.94,68.27 395.89,78.88 395.89,91.97 C395.89,105.07 384.94,115.68 371.43,115.68 C357.92,115.68 346.97,105.07 346.97,91.97 Z" style="stroke-width: 4; stroke: rgb(0, 0, 0); stroke-opacity: 0.62; fill: rgb(0, 0, 0); fill-opacity: 0.14;"/></g><g class="composite-shape"><path class="real" d=" M295.88,142.88 C295.88,129.79 306.83,119.17 320.34,119.17 C333.85,119.17 344.8,129.79 344.8,142.88 C344.8,155.98 333.85,166.59 320.34,166.59 C306.83,166.59 295.88,155.98 295.88,142.88 Z" style="stroke-width: 4; stroke: rgb(0, 0, 0); stroke-opacity: 0.62; fill: rgb(0, 0, 0); fill-opacity: 0.14;"/></g><g class="composite-shape"><path class="real" d=" M346.97,142.88 C346.97,129.79 357.92,119.17 371.43,119.17 C384.94,119.17 395.89,129.79 395.89,142.88 C395.89,155.98 384.94,166.59 371.43,166.59 C357.92,166.59 346.97,155.98 346.97,142.88 Z" style="stroke-width: 4; stroke: rgb(0, 0, 0); stroke-opacity: 0.62; fill: rgb(0, 0, 0); fill-opacity: 0.14;"/></g></g><g class="composite-shape"><path class="real" d=" M95.25,193.97 C95.25,180.88 106.2,170.27 119.7,170.27 C133.21,170.27 144.16,180.88 144.16,193.97 C144.16,207.07 133.21,217.68 119.7,217.68 C106.2,217.68 95.25,207.07 95.25,193.97 Z" style="stroke-width: 4; stroke: rgb(0, 0, 0); stroke-opacity: 0.62; fill: rgb(0, 0, 0); fill-opacity: 0.14;"/></g><g class="composite-shape"><path class="real" d=" M145.97,193.97 C145.97,180.88 156.92,170.27 170.43,170.27 C183.94,170.27 194.89,180.88 194.89,193.97 C194.89,207.07 183.94,217.68 170.43,217.68 C156.92,217.68 145.97,207.07 145.97,193.97 Z" style="stroke-width: 4; stroke: rgb(0, 0, 0); stroke-opacity: 0.62; fill: rgb(0, 0, 0); fill-opacity: 0.14;"/></g><g class="composite-shape"><path class="real" d=" M94.88,244.88 C94.88,231.79 105.83,221.17 119.34,221.17 C132.85,221.17 143.8,231.79 143.8,244.88 C143.8,257.98 132.85,268.59 119.34,268.59 C105.83,268.59 94.88,257.98 94.88,244.88 Z" style="stroke-width: 4; stroke: rgb(0, 0, 0); stroke-opacity: 0.62; fill: rgb(0, 0, 0); fill-opacity: 0.14;"/></g><g class="composite-shape"><path class="real" d=" M145.97,244.88 C145.97,231.79 156.92,221.17 170.43,221.17 C183.94,221.17 194.89,231.79 194.89,244.88 C194.89,257.98 183.94,268.59 170.43,268.59 C156.92,268.59 145.97,257.98 145.97,244.88 Z" style="stroke-width: 4; stroke: rgb(0, 0, 0); stroke-opacity: 0.62; fill: rgb(0, 0, 0); fill-opacity: 0.14;"/></g><g class="grouped-shape"><g class="composite-shape"><path class="real" d=" M196.25,194.97 C196.25,181.88 207.2,171.27 220.7,171.27 C234.21,171.27 245.16,181.88 245.16,194.97 C245.16,208.07 234.21,218.68 220.7,218.68 C207.2,218.68 196.25,208.07 196.25,194.97 Z" style="stroke-width: 4; stroke: rgb(0, 0, 0); stroke-opacity: 0.62; fill: rgb(0, 0, 0); fill-opacity: 0.14;"/></g><g class="composite-shape"><path class="real" d=" M246.97,194.97 C246.97,181.88 257.92,171.27 271.43,171.27 C284.94,171.27 295.89,181.88 295.89,194.97 C295.89,208.07 284.94,218.68 271.43,218.68 C257.92,218.68 246.97,208.07 246.97,194.97 Z" style="stroke-width: 4; stroke: rgb(0, 0, 0); stroke-opacity: 0.62; fill: rgb(0, 0, 0); fill-opacity: 0.14;"/></g><g class="composite-shape"><path class="real" d=" M195.88,245.88 C195.88,232.79 206.83,222.17 220.34,222.17 C233.85,222.17 244.8,232.79 244.8,245.88 C244.8,258.98 233.85,269.59 220.34,269.59 C206.83,269.59 195.88,258.98 195.88,245.88 Z" style="stroke-width: 4; stroke: rgb(0, 0, 0); stroke-opacity: 0.62; fill: rgb(0, 0, 0); fill-opacity: 0.14;"/></g><g class="composite-shape"><path class="real" d=" M246.97,245.88 C246.97,232.79 257.92,222.17 271.43,222.17 C284.94,222.17 295.89,232.79 295.89,245.88 C295.89,258.98 284.94,269.59 271.43,269.59 C257.92,269.59 246.97,258.98 246.97,245.88 Z" style="stroke-width: 4; stroke: rgb(0, 0, 0); stroke-opacity: 0.62; fill: rgb(0, 0, 0); fill-opacity: 0.14;"/></g></g><g class="grouped-shape"><g class="composite-shape"><path class="real" d=" M295.25,194.97 C295.25,181.88 306.2,171.27 319.7,171.27 C333.21,171.27 344.16,181.88 344.16,194.97 C344.16,208.07 333.21,218.68 319.7,218.68 C306.2,218.68 295.25,208.07 295.25,194.97 Z" style="stroke-width: 4; stroke: rgb(0, 0, 0); stroke-opacity: 0.62; fill: rgb(0, 0, 0); fill-opacity: 0.14;"/></g><g class="composite-shape"><path class="real" d=" M345.97,194.97 C345.97,181.88 356.92,171.27 370.43,171.27 C383.94,171.27 394.89,181.88 394.89,194.97 C394.89,208.07 383.94,218.68 370.43,218.68 C356.92,218.68 345.97,208.07 345.97,194.97 Z" style="stroke-width: 4; stroke: rgb(0, 0, 0); stroke-opacity: 0.62; fill: rgb(0, 0, 0); fill-opacity: 0.14;"/></g><g class="composite-shape"><path class="real" d=" M294.88,245.88 C294.88,232.79 305.83,222.17 319.34,222.17 C332.85,222.17 343.8,232.79 343.8,245.88 C343.8,258.98 332.85,269.59 319.34,269.59 C305.83,269.59 294.88,258.98 294.88,245.88 Z" style="stroke-width: 4; stroke: rgb(0, 0, 0); stroke-opacity: 0.62; fill: rgb(0, 0, 0); fill-opacity: 0.14;"/></g><g class="composite-shape"><path class="real" d=" M345.97,245.88 C345.97,232.79 356.92,222.17 370.43,222.17 C383.94,222.17 394.89,232.79 394.89,245.88 C394.89,258.98 383.94,269.59 370.43,269.59 C356.92,269.59 345.97,258.98 345.97,245.88 Z" style="stroke-width: 4; stroke: rgb(0, 0, 0); stroke-opacity: 0.62; fill: rgb(0, 0, 0); fill-opacity: 0.14;"/></g></g><g class="composite-shape"><path class="real" d=" M95.25,296.97 C95.25,283.88 106.2,273.27 119.7,273.27 C133.21,273.27 144.16,283.88 144.16,296.97 C144.16,310.07 133.21,320.68 119.7,320.68 C106.2,320.68 95.25,310.07 95.25,296.97 Z" style="stroke-width: 4; stroke: rgb(126, 211, 33); stroke-opacity: 1; fill: rgb(128, 238, 11); fill-opacity: 0.64;"/></g><g class="composite-shape"><path class="real" d=" M144.16,296.97 C144.16,283.88 155.11,273.27 168.62,273.27 C182.13,273.27 193.08,283.88 193.08,296.97 C193.08,310.07 182.13,320.68 168.62,320.68 C155.11,320.68 144.16,310.07 144.16,296.97 Z" style="stroke-width: 4; stroke: rgb(126, 211, 33); stroke-opacity: 1; fill: rgb(126, 211, 33); fill-opacity: 0.32;"/></g><g class="composite-shape"><path class="real" d=" M94.88,347.88 C94.88,334.79 105.83,324.17 119.34,324.17 C132.85,324.17 143.8,334.79 143.8,347.88 C143.8,360.98 132.85,371.59 119.34,371.59 C105.83,371.59 94.88,360.98 94.88,347.88 Z" style="stroke-width: 4; stroke: rgb(126, 211, 33); stroke-opacity: 1; fill: rgb(126, 211, 33); fill-opacity: 0.32;"/></g><g class="composite-shape"><path class="real" d=" M144.97,348.88 C144.97,335.79 155.92,325.17 169.43,325.17 C182.93,325.17 193.88,335.79 193.88,348.88 C193.88,361.98 182.93,372.59 169.43,372.59 C155.92,372.59 144.97,361.98 144.97,348.88 Z" style="stroke-width: 4; stroke: rgb(126, 211, 33); stroke-opacity: 1; fill: rgb(126, 211, 33); fill-opacity: 0.32;"/></g><g class="grouped-shape"><g class="composite-shape"><path class="real" d=" M194.25,297.97 C194.25,284.88 205.2,274.27 218.7,274.27 C232.21,274.27 243.16,284.88 243.16,297.97 C243.16,311.07 232.21,321.68 218.7,321.68 C205.2,321.68 194.25,311.07 194.25,297.97 Z" style="stroke-width: 4; stroke: rgb(126, 211, 33); stroke-opacity: 1; fill: rgb(126, 211, 33); fill-opacity: 0.32;"/></g><g class="composite-shape"><path class="real" d=" M244.97,297.97 C244.97,284.88 255.92,274.27 269.43,274.27 C282.94,274.27 293.89,284.88 293.89,297.97 C293.89,311.07 282.94,321.68 269.43,321.68 C255.92,321.68 244.97,311.07 244.97,297.97 Z" style="stroke-width: 4; stroke: rgb(126, 211, 33); stroke-opacity: 1; fill: rgb(126, 211, 33); fill-opacity: 0.32;"/></g><g class="composite-shape"><path class="real" d=" M193.88,348.88 C193.88,335.79 204.83,325.17 218.34,325.17 C231.85,325.17 242.8,335.79 242.8,348.88 C242.8,361.98 231.85,372.59 218.34,372.59 C204.83,372.59 193.88,361.98 193.88,348.88 Z" style="stroke-width: 4; stroke: rgb(126, 211, 33); stroke-opacity: 1; fill: rgb(126, 211, 33); fill-opacity: 0.32;"/></g><g class="composite-shape"><path class="real" d=" M244.97,348.88 C244.97,335.79 255.92,325.17 269.43,325.17 C282.94,325.17 293.89,335.79 293.89,348.88 C293.89,361.98 282.94,372.59 269.43,372.59 C255.92,372.59 244.97,361.98 244.97,348.88 Z" style="stroke-width: 4; stroke: rgb(126, 211, 33); stroke-opacity: 1; fill: rgb(126, 211, 33); fill-opacity: 0.32;"/></g></g><g class="grouped-shape"><g class="composite-shape"><path class="real" d=" M295.25,297.97 C295.25,284.88 306.2,274.27 319.7,274.27 C333.21,274.27 344.16,284.88 344.16,297.97 C344.16,311.07 333.21,321.68 319.7,321.68 C306.2,321.68 295.25,311.07 295.25,297.97 Z" style="stroke-width: 4; stroke: rgb(208, 2, 27); stroke-opacity: 1; fill: rgb(255, 0, 0); fill-opacity: 0.21;"/></g><g class="composite-shape"><path class="real" d=" M345.97,297.97 C345.97,284.88 356.92,274.27 370.43,274.27 C383.94,274.27 394.89,284.88 394.89,297.97 C394.89,311.07 383.94,321.68 370.43,321.68 C356.92,321.68 345.97,311.07 345.97,297.97 Z" style="stroke-width: 4; stroke: rgb(208, 2, 27); stroke-opacity: 1; fill: rgb(255, 0, 0); fill-opacity: 0.21;"/></g><g class="composite-shape"><path class="real" d=" M294.88,348.88 C294.88,335.79 305.83,325.17 319.34,325.17 C332.85,325.17 343.8,335.79 343.8,348.88 C343.8,361.98 332.85,372.59 319.34,372.59 C305.83,372.59 294.88,361.98 294.88,348.88 Z" style="stroke-width: 4; stroke: rgb(208, 2, 27); stroke-opacity: 1; fill: rgb(255, 0, 0); fill-opacity: 0.21;"/></g><g class="composite-shape"><path class="real" d=" M345.97,348.88 C345.97,335.79 356.92,325.17 370.43,325.17 C383.94,325.17 394.89,335.79 394.89,348.88 C394.89,361.98 383.94,372.59 370.43,372.59 C356.92,372.59 345.97,361.98 345.97,348.88 Z" style="stroke-width: 4; stroke: rgb(208, 2, 27); stroke-opacity: 1; fill: rgb(255, 0, 0); fill-opacity: 0.21;"/></g></g><g class="grouped-shape"><g class="composite-shape"><path class="real" d=" M97.25,399.97 C97.25,386.88 108.2,376.27 121.7,376.27 C135.21,376.27 146.16,386.88 146.16,399.97 C146.16,413.07 135.21,423.68 121.7,423.68 C108.2,423.68 97.25,413.07 97.25,399.97 Z" style="stroke-width: 4; stroke: rgb(245, 166, 35); stroke-opacity: 1; fill: rgb(245, 166, 35); fill-opacity: 0.23;"/></g><g class="composite-shape"><path class="real" d=" M147.97,399.97 C147.97,386.88 158.92,376.27 172.43,376.27 C185.94,376.27 196.89,386.88 196.89,399.97 C196.89,413.07 185.94,423.68 172.43,423.68 C158.92,423.68 147.97,413.07 147.97,399.97 Z" style="stroke-width: 4; stroke: rgb(245, 166, 35); stroke-opacity: 1; fill: rgb(245, 166, 35); fill-opacity: 0.23;"/></g><g class="composite-shape"><path class="real" d=" M96.88,450.88 C96.88,437.79 107.83,427.17 121.34,427.17 C134.85,427.17 145.8,437.79 145.8,450.88 C145.8,463.98 134.85,474.59 121.34,474.59 C107.83,474.59 96.88,463.98 96.88,450.88 Z" style="stroke-width: 4; stroke: rgb(245, 166, 35); stroke-opacity: 1; fill: rgb(245, 166, 35); fill-opacity: 0.23;"/></g><g class="composite-shape"><path class="real" d=" M147.97,450.88 C147.97,437.79 158.92,427.17 172.43,427.17 C185.94,427.17 196.89,437.79 196.89,450.88 C196.89,463.98 185.94,474.59 172.43,474.59 C158.92,474.59 147.97,463.98 147.97,450.88 Z" style="stroke-width: 4; stroke: rgb(245, 166, 35); stroke-opacity: 1; fill: rgb(245, 166, 35); fill-opacity: 0.23;"/></g></g><g class="composite-shape"><path class="real" d=" M196.25,399.97 C196.25,386.88 207.2,376.27 220.7,376.27 C234.21,376.27 245.16,386.88 245.16,399.97 C245.16,413.07 234.21,423.68 220.7,423.68 C207.2,423.68 196.25,413.07 196.25,399.97 Z" style="stroke-width: 4; stroke: rgb(245, 166, 35); stroke-opacity: 1; fill: rgb(245, 166, 35); fill-opacity: 0.23;"/></g><g class="composite-shape"><path class="real" d=" M245.97,400.97 C245.97,387.88 256.92,377.27 270.43,377.27 C283.94,377.27 294.89,387.88 294.89,400.97 C294.89,414.07 283.94,424.68 270.43,424.68 C256.92,424.68 245.97,414.07 245.97,400.97 Z" style="stroke-width: 4; stroke: rgb(245, 166, 35); stroke-opacity: 1; fill: rgb(245, 166, 35); fill-opacity: 0.23;"/></g><g class="composite-shape"><path class="real" d=" M245.97,451.88 C245.97,438.79 256.92,428.17 270.43,428.17 C283.94,428.17 294.89,438.79 294.89,451.88 C294.89,464.98 283.94,475.59 270.43,475.59 C256.92,475.59 245.97,464.98 245.97,451.88 Z" style="stroke-width: 4; stroke: rgb(245, 166, 35); stroke-opacity: 1; fill: rgb(245, 166, 35); fill-opacity: 0.23;"/></g><g class="composite-shape"><path class="real" d=" M294.25,400.97 C294.25,387.88 305.2,377.27 318.7,377.27 C332.21,377.27 343.16,387.88 343.16,400.97 C343.16,414.07 332.21,424.68 318.7,424.68 C305.2,424.68 294.25,414.07 294.25,400.97 Z" style="stroke-width: 4; stroke: rgb(208, 2, 27); stroke-opacity: 1; fill: rgb(255, 0, 0); fill-opacity: 0.19;"/></g><g class="composite-shape"><path class="real" d=" M344.97,400.97 C344.97,387.88 355.92,377.27 369.43,377.27 C382.94,377.27 393.89,387.88 393.89,400.97 C393.89,414.07 382.94,424.68 369.43,424.68 C355.92,424.68 344.97,414.07 344.97,400.97 Z" style="stroke-width: 4; stroke: rgb(208, 2, 27); stroke-opacity: 1; fill: rgb(255, 0, 0); fill-opacity: 0.19;"/></g><g class="composite-shape"><path class="real" d=" M293.88,451.88 C293.88,438.79 304.83,428.17 318.34,428.17 C331.85,428.17 342.8,438.79 342.8,451.88 C342.8,464.98 331.85,475.59 318.34,475.59 C304.83,475.59 293.88,464.98 293.88,451.88 Z" style="stroke-width: 4; stroke: rgb(144, 19, 254); stroke-opacity: 1; fill: rgb(144, 19, 254); fill-opacity: 0.12;"/></g><g class="composite-shape"><path class="real" d=" M344.97,451.88 C344.97,438.79 355.92,428.17 369.43,428.17 C382.94,428.17 393.89,438.79 393.89,451.88 C393.89,464.98 382.94,475.59 369.43,475.59 C355.92,475.59 344.97,464.98 344.97,451.88 Z" style="stroke-width: 4; stroke: rgb(144, 19, 254); stroke-opacity: 1; fill: rgb(144, 19, 254); fill-opacity: 0.12;"/></g><g class="composite-shape"><path class="real" d=" M396.25,92.97 C396.25,79.88 407.2,69.27 420.7,69.27 C434.21,69.27 445.16,79.88 445.16,92.97 C445.16,106.07 434.21,116.68 420.7,116.68 C407.2,116.68 396.25,106.07 396.25,92.97 Z" style="stroke-width: 4; stroke: rgb(0, 0, 0); stroke-opacity: 0.62; fill: rgb(0, 0, 0); fill-opacity: 0.14;"/></g><g class="composite-shape"><path class="real" d=" M446.97,92.97 C446.97,79.88 457.92,69.27 471.43,69.27 C484.94,69.27 495.89,79.88 495.89,92.97 C495.89,106.07 484.94,116.68 471.43,116.68 C457.92,116.68 446.97,106.07 446.97,92.97 Z" style="stroke-width: 4; stroke: rgb(0, 0, 0); stroke-opacity: 0.62; fill: rgb(0, 0, 0); fill-opacity: 0.14;"/></g><g class="composite-shape"><path class="real" d=" M395.88,143.88 C395.88,130.79 406.83,120.17 420.34,120.17 C433.85,120.17 444.8,130.79 444.8,143.88 C444.8,156.98 433.85,167.59 420.34,167.59 C406.83,167.59 395.88,156.98 395.88,143.88 Z" style="stroke-width: 4; stroke: rgb(0, 0, 0); stroke-opacity: 0.62; fill: rgb(0, 0, 0); fill-opacity: 0.62;"/></g><g class="composite-shape"><path class="real" d=" M446.97,143.88 C446.97,130.79 457.92,120.17 471.43,120.17 C484.94,120.17 495.89,130.79 495.89,143.88 C495.89,156.98 484.94,167.59 471.43,167.59 C457.92,167.59 446.97,156.98 446.97,143.88 Z" style="stroke-width: 4; stroke: rgb(0, 0, 0); stroke-opacity: 0.62; fill: rgb(0, 0, 0); fill-opacity: 0.14;"/></g><g class="grouped-shape"><g class="composite-shape"><path class="real" d=" M495.25,93.97 C495.25,80.88 506.2,70.27 519.7,70.27 C533.21,70.27 544.16,80.88 544.16,93.97 C544.16,107.07 533.21,117.68 519.7,117.68 C506.2,117.68 495.25,107.07 495.25,93.97 Z" style="stroke-width: 4; stroke: rgb(0, 0, 0); stroke-opacity: 0.62; fill: rgb(0, 0, 0); fill-opacity: 0.14;"/></g><g class="composite-shape"><path class="real" d=" M545.97,93.97 C545.97,80.88 556.92,70.27 570.43,70.27 C583.94,70.27 594.89,80.88 594.89,93.97 C594.89,107.07 583.94,117.68 570.43,117.68 C556.92,117.68 545.97,107.07 545.97,93.97 Z" style="stroke-width: 4; stroke: rgb(0, 0, 0); stroke-opacity: 0.62; fill: rgb(0, 0, 0); fill-opacity: 0.14;"/></g><g class="composite-shape"><path class="real" d=" M494.88,144.88 C494.88,131.79 505.83,121.17 519.34,121.17 C532.85,121.17 543.8,131.79 543.8,144.88 C543.8,157.98 532.85,168.59 519.34,168.59 C505.83,168.59 494.88,157.98 494.88,144.88 Z" style="stroke-width: 4; stroke: rgb(0, 0, 0); stroke-opacity: 0.62; fill: rgb(0, 0, 0); fill-opacity: 0.14;"/></g><g class="composite-shape"><path class="real" d=" M545.97,144.88 C545.97,131.79 556.92,121.17 570.43,121.17 C583.94,121.17 594.89,131.79 594.89,144.88 C594.89,157.98 583.94,168.59 570.43,168.59 C556.92,168.59 545.97,157.98 545.97,144.88 Z" style="stroke-width: 4; stroke: rgb(0, 0, 0); stroke-opacity: 0.62; fill: rgb(0, 0, 0); fill-opacity: 0.14;"/></g></g><g class="grouped-shape"><g class="composite-shape"><path class="real" d=" M595.25,94.97 C595.25,81.88 606.2,71.27 619.7,71.27 C633.21,71.27 644.16,81.88 644.16,94.97 C644.16,108.07 633.21,118.68 619.7,118.68 C606.2,118.68 595.25,108.07 595.25,94.97 Z" style="stroke-width: 4; stroke: rgb(0, 0, 0); stroke-opacity: 0.62; fill: rgb(0, 0, 0); fill-opacity: 0.14;"/></g><g class="composite-shape"><path class="real" d=" M645.97,94.97 C645.97,81.88 656.92,71.27 670.43,71.27 C683.94,71.27 694.89,81.88 694.89,94.97 C694.89,108.07 683.94,118.68 670.43,118.68 C656.92,118.68 645.97,108.07 645.97,94.97 Z" style="stroke-width: 4; stroke: rgb(0, 0, 0); stroke-opacity: 0.62; fill: rgb(0, 0, 0); fill-opacity: 0.14;"/></g><g class="composite-shape"><path class="real" d=" M594.88,145.88 C594.88,132.79 605.83,122.17 619.34,122.17 C632.85,122.17 643.8,132.79 643.8,145.88 C643.8,158.98 632.85,169.59 619.34,169.59 C605.83,169.59 594.88,158.98 594.88,145.88 Z" style="stroke-width: 4; stroke: rgb(0, 0, 0); stroke-opacity: 0.62; fill: rgb(0, 0, 0); fill-opacity: 0.14;"/></g><g class="composite-shape"><path class="real" d=" M645.97,145.88 C645.97,132.79 656.92,122.17 670.43,122.17 C683.94,122.17 694.89,132.79 694.89,145.88 C694.89,158.98 683.94,169.59 670.43,169.59 C656.92,169.59 645.97,158.98 645.97,145.88 Z" style="stroke-width: 4; stroke: rgb(0, 0, 0); stroke-opacity: 0.62; fill: rgb(0, 0, 0); fill-opacity: 0.14;"/></g></g><g class="grouped-shape"><g class="composite-shape"><path class="real" d=" M395.25,195.97 C395.25,182.88 406.2,172.27 419.7,172.27 C433.21,172.27 444.16,182.88 444.16,195.97 C444.16,209.07 433.21,219.68 419.7,219.68 C406.2,219.68 395.25,209.07 395.25,195.97 Z" style="stroke-width: 4; stroke: rgb(0, 0, 0); stroke-opacity: 0.62; fill: rgb(0, 0, 0); fill-opacity: 0.14;"/></g><g class="composite-shape"><path class="real" d=" M445.97,195.97 C445.97,182.88 456.92,172.27 470.43,172.27 C483.94,172.27 494.89,182.88 494.89,195.97 C494.89,209.07 483.94,219.68 470.43,219.68 C456.92,219.68 445.97,209.07 445.97,195.97 Z" style="stroke-width: 4; stroke: rgb(0, 0, 0); stroke-opacity: 0.62; fill: rgb(0, 0, 0); fill-opacity: 0.14;"/></g><g class="composite-shape"><path class="real" d=" M394.88,246.88 C394.88,233.79 405.83,223.17 419.34,223.17 C432.85,223.17 443.8,233.79 443.8,246.88 C443.8,259.98 432.85,270.59 419.34,270.59 C405.83,270.59 394.88,259.98 394.88,246.88 Z" style="stroke-width: 4; stroke: rgb(0, 0, 0); stroke-opacity: 0.62; fill: rgb(0, 0, 0); fill-opacity: 0.14;"/></g><g class="composite-shape"><path class="real" d=" M445.97,246.88 C445.97,233.79 456.92,223.17 470.43,223.17 C483.94,223.17 494.89,233.79 494.89,246.88 C494.89,259.98 483.94,270.59 470.43,270.59 C456.92,270.59 445.97,259.98 445.97,246.88 Z" style="stroke-width: 4; stroke: rgb(0, 0, 0); stroke-opacity: 0.62; fill: rgb(0, 0, 0); fill-opacity: 0.14;"/></g></g><g class="grouped-shape"><g class="composite-shape"><path class="real" d=" M494.25,196.97 C494.25,183.88 505.2,173.27 518.7,173.27 C532.21,173.27 543.16,183.88 543.16,196.97 C543.16,210.07 532.21,220.68 518.7,220.68 C505.2,220.68 494.25,210.07 494.25,196.97 Z" style="stroke-width: 4; stroke: rgb(0, 0, 0); stroke-opacity: 0.62; fill: rgb(0, 0, 0); fill-opacity: 0.14;"/></g><g class="composite-shape"><path class="real" d=" M544.97,196.97 C544.97,183.88 555.92,173.27 569.43,173.27 C582.94,173.27 593.89,183.88 593.89,196.97 C593.89,210.07 582.94,220.68 569.43,220.68 C555.92,220.68 544.97,210.07 544.97,196.97 Z" style="stroke-width: 4; stroke: rgb(0, 0, 0); stroke-opacity: 0.62; fill: rgb(0, 0, 0); fill-opacity: 0.14;"/></g><g class="composite-shape"><path class="real" d=" M493.88,247.88 C493.88,234.79 504.83,224.17 518.34,224.17 C531.85,224.17 542.8,234.79 542.8,247.88 C542.8,260.98 531.85,271.59 518.34,271.59 C504.83,271.59 493.88,260.98 493.88,247.88 Z" style="stroke-width: 4; stroke: rgb(0, 0, 0); stroke-opacity: 0.62; fill: rgb(0, 0, 0); fill-opacity: 0.14;"/></g><g class="composite-shape"><path class="real" d=" M544.97,247.88 C544.97,234.79 555.92,224.17 569.43,224.17 C582.94,224.17 593.89,234.79 593.89,247.88 C593.89,260.98 582.94,271.59 569.43,271.59 C555.92,271.59 544.97,260.98 544.97,247.88 Z" style="stroke-width: 4; stroke: rgb(0, 0, 0); stroke-opacity: 0.62; fill: rgb(0, 0, 0); fill-opacity: 0.14;"/></g></g><g class="grouped-shape"><g class="composite-shape"><path class="real" d=" M595.25,196.97 C595.25,183.88 606.2,173.27 619.7,173.27 C633.21,173.27 644.16,183.88 644.16,196.97 C644.16,210.07 633.21,220.68 619.7,220.68 C606.2,220.68 595.25,210.07 595.25,196.97 Z" style="stroke-width: 4; stroke: rgb(0, 0, 0); stroke-opacity: 0.62; fill: rgb(0, 0, 0); fill-opacity: 0.14;"/></g><g class="composite-shape"><path class="real" d=" M645.97,196.97 C645.97,183.88 656.92,173.27 670.43,173.27 C683.94,173.27 694.89,183.88 694.89,196.97 C694.89,210.07 683.94,220.68 670.43,220.68 C656.92,220.68 645.97,210.07 645.97,196.97 Z" style="stroke-width: 4; stroke: rgb(0, 0, 0); stroke-opacity: 0.62; fill: rgb(0, 0, 0); fill-opacity: 0.14;"/></g><g class="composite-shape"><path class="real" d=" M594.88,247.88 C594.88,234.79 605.83,224.17 619.34,224.17 C632.85,224.17 643.8,234.79 643.8,247.88 C643.8,260.98 632.85,271.59 619.34,271.59 C605.83,271.59 594.88,260.98 594.88,247.88 Z" style="stroke-width: 4; stroke: rgb(0, 0, 0); stroke-opacity: 0.62; fill: rgb(0, 0, 0); fill-opacity: 0.14;"/></g><g class="composite-shape"><path class="real" d=" M645.97,247.88 C645.97,234.79 656.92,224.17 670.43,224.17 C683.94,224.17 694.89,234.79 694.89,247.88 C694.89,260.98 683.94,271.59 670.43,271.59 C656.92,271.59 645.97,260.98 645.97,247.88 Z" style="stroke-width: 4; stroke: rgb(0, 0, 0); stroke-opacity: 0.62; fill: rgb(0, 0, 0); fill-opacity: 0.14;"/></g></g><g class="grouped-shape"><g class="composite-shape"><path class="real" d=" M394.25,297.97 C394.25,284.88 405.2,274.27 418.7,274.27 C432.21,274.27 443.16,284.88 443.16,297.97 C443.16,311.07 432.21,321.68 418.7,321.68 C405.2,321.68 394.25,311.07 394.25,297.97 Z" style="stroke-width: 4; stroke: rgb(208, 2, 27); stroke-opacity: 1; fill: rgb(255, 0, 0); fill-opacity: 0.21;"/></g><g class="composite-shape"><path class="real" d=" M444.97,297.97 C444.97,284.88 455.92,274.27 469.43,274.27 C482.94,274.27 493.89,284.88 493.89,297.97 C493.89,311.07 482.94,321.68 469.43,321.68 C455.92,321.68 444.97,311.07 444.97,297.97 Z" style="stroke-width: 4; stroke: rgb(208, 2, 27); stroke-opacity: 1; fill: rgb(255, 0, 0); fill-opacity: 0.21;"/></g><g class="composite-shape"><path class="real" d=" M393.88,348.88 C393.88,335.79 404.83,325.17 418.34,325.17 C431.85,325.17 442.8,335.79 442.8,348.88 C442.8,361.98 431.85,372.59 418.34,372.59 C404.83,372.59 393.88,361.98 393.88,348.88 Z" style="stroke-width: 4; stroke: rgb(208, 2, 27); stroke-opacity: 1; fill: rgb(255, 0, 0); fill-opacity: 0.21;"/></g><g class="composite-shape"><path class="real" d=" M444.97,348.88 C444.97,335.79 455.92,325.17 469.43,325.17 C482.94,325.17 493.89,335.79 493.89,348.88 C493.89,361.98 482.94,372.59 469.43,372.59 C455.92,372.59 444.97,361.98 444.97,348.88 Z" style="stroke-width: 4; stroke: rgb(208, 2, 27); stroke-opacity: 1; fill: rgb(255, 0, 0); fill-opacity: 0.21;"/></g></g><g class="composite-shape"><path class="real" d=" M494.06,298.97 C494.06,285.88 505.01,275.27 518.51,275.27 C532.02,275.27 542.97,285.88 542.97,298.97 C542.97,312.07 532.02,322.68 518.51,322.68 C505.01,322.68 494.06,312.07 494.06,298.97 Z" style="stroke-width: 4; stroke: rgb(208, 2, 27); stroke-opacity: 1; fill: rgb(255, 0, 0); fill-opacity: 0.21;"/></g><g class="composite-shape"><path class="real" d=" M543.97,298.97 C543.97,285.88 554.92,275.27 568.43,275.27 C581.94,275.27 592.89,285.88 592.89,298.97 C592.89,312.07 581.94,322.68 568.43,322.68 C554.92,322.68 543.97,312.07 543.97,298.97 Z" style="stroke-width: 4; stroke: rgb(208, 2, 27); stroke-opacity: 1; fill: rgb(255, 0, 0); fill-opacity: 0.21;"/></g><g class="composite-shape"><path class="real" d=" M495.05,349.88 C495.05,336.79 506,326.17 519.51,326.17 C533.02,326.17 543.97,336.79 543.97,349.88 C543.97,362.98 533.02,373.59 519.51,373.59 C506,373.59 495.05,362.98 495.05,349.88 Z" style="stroke-width: 4; stroke: rgb(208, 2, 27); stroke-opacity: 1; fill: rgb(255, 0, 0); fill-opacity: 0.61;"/></g><g class="composite-shape"><path class="real" d=" M543.97,349.88 C543.97,336.79 554.92,326.17 568.43,326.17 C581.93,326.17 592.88,336.79 592.88,349.88 C592.88,362.98 581.93,373.59 568.43,373.59 C554.92,373.59 543.97,362.98 543.97,349.88 Z" style="stroke-width: 4; stroke: rgb(208, 2, 27); stroke-opacity: 1; fill: rgb(255, 0, 0); fill-opacity: 0.21;"/></g><g class="grouped-shape"><g class="composite-shape"><path class="real" d=" M593.25,298.97 C593.25,285.88 604.2,275.27 617.7,275.27 C631.21,275.27 642.16,285.88 642.16,298.97 C642.16,312.07 631.21,322.68 617.7,322.68 C604.2,322.68 593.25,312.07 593.25,298.97 Z" style="stroke-width: 4; stroke: rgb(208, 2, 27); stroke-opacity: 1; fill: rgb(255, 0, 0); fill-opacity: 0.21;"/></g><g class="composite-shape"><path class="real" d=" M643.97,298.97 C643.97,285.88 654.92,275.27 668.43,275.27 C681.94,275.27 692.89,285.88 692.89,298.97 C692.89,312.07 681.94,322.68 668.43,322.68 C654.92,322.68 643.97,312.07 643.97,298.97 Z" style="stroke-width: 4; stroke: rgb(208, 2, 27); stroke-opacity: 1; fill: rgb(255, 0, 0); fill-opacity: 0.21;"/></g><g class="composite-shape"><path class="real" d=" M592.88,349.88 C592.88,336.79 603.83,326.17 617.34,326.17 C630.85,326.17 641.8,336.79 641.8,349.88 C641.8,362.98 630.85,373.59 617.34,373.59 C603.83,373.59 592.88,362.98 592.88,349.88 Z" style="stroke-width: 4; stroke: rgb(208, 2, 27); stroke-opacity: 1; fill: rgb(255, 0, 0); fill-opacity: 0.21;"/></g><g class="composite-shape"><path class="real" d=" M643.97,349.88 C643.97,336.79 654.92,326.17 668.43,326.17 C681.94,326.17 692.89,336.79 692.89,349.88 C692.89,362.98 681.94,373.59 668.43,373.59 C654.92,373.59 643.97,362.98 643.97,349.88 Z" style="stroke-width: 4; stroke: rgb(208, 2, 27); stroke-opacity: 1; fill: rgb(255, 0, 0); fill-opacity: 0.21;"/></g></g><g class="composite-shape"><path class="real" d=" M394.25,400.97 C394.25,387.88 405.2,377.27 418.7,377.27 C432.21,377.27 443.16,387.88 443.16,400.97 C443.16,414.07 432.21,424.68 418.7,424.68 C405.2,424.68 394.25,414.07 394.25,400.97 Z" style="stroke-width: 4; stroke: rgb(208, 2, 27); stroke-opacity: 1; fill: rgb(255, 0, 0); fill-opacity: 0.19;"/></g><g class="composite-shape"><path class="real" d=" M443.97,400.97 C443.97,387.88 454.92,377.27 468.43,377.27 C481.94,377.27 492.89,387.88 492.89,400.97 C492.89,414.07 481.94,424.68 468.43,424.68 C454.92,424.68 443.97,414.07 443.97,400.97 Z" style="stroke-width: 4; stroke: rgb(208, 2, 27); stroke-opacity: 1; fill: rgb(255, 0, 0); fill-opacity: 0.19;"/></g><g class="composite-shape"><path class="real" d=" M393.88,451.88 C393.88,438.79 404.83,428.17 418.34,428.17 C431.85,428.17 442.8,438.79 442.8,451.88 C442.8,464.98 431.85,475.59 418.34,475.59 C404.83,475.59 393.88,464.98 393.88,451.88 Z" style="stroke-width: 4; stroke: rgb(144, 19, 254); stroke-opacity: 1; fill: rgb(144, 19, 254); fill-opacity: 0.12;"/></g><g class="composite-shape"><path class="real" d=" M442.97,451.88 C442.97,438.79 453.92,428.17 467.43,428.17 C480.94,428.17 491.89,438.79 491.89,451.88 C491.89,464.98 480.94,475.59 467.43,475.59 C453.92,475.59 442.97,464.98 442.97,451.88 Z" style="stroke-width: 4; stroke: rgb(144, 19, 254); stroke-opacity: 1; fill: rgb(144, 19, 254); fill-opacity: 0.12;"/></g><g class="composite-shape"><path class="real" d=" M493.25,401.97 C493.25,388.88 504.2,378.27 517.7,378.27 C531.21,378.27 542.16,388.88 542.16,401.97 C542.16,415.07 531.21,425.68 517.7,425.68 C504.2,425.68 493.25,415.07 493.25,401.97 Z" style="stroke-width: 4; stroke: rgb(208, 2, 27); stroke-opacity: 1; fill: rgb(255, 0, 0); fill-opacity: 0.21;"/></g><g class="composite-shape"><path class="real" d=" M543.97,401.97 C543.97,388.88 554.92,378.27 568.43,378.27 C581.94,378.27 592.89,388.88 592.89,401.97 C592.89,415.07 581.94,425.68 568.43,425.68 C554.92,425.68 543.97,415.07 543.97,401.97 Z" style="stroke-width: 4; stroke: rgb(208, 2, 27); stroke-opacity: 1; fill: rgb(255, 0, 0); fill-opacity: 0.21;"/></g><g class="composite-shape"><path class="real" d=" M491.88,452.88 C491.88,439.79 502.83,429.17 516.34,429.17 C529.85,429.17 540.8,439.79 540.8,452.88 C540.8,465.98 529.85,476.59 516.34,476.59 C502.83,476.59 491.88,465.98 491.88,452.88 Z" style="stroke-width: 4; stroke: rgb(144, 19, 254); stroke-opacity: 1; fill: rgb(144, 19, 254); fill-opacity: 0.12;"/></g><g class="composite-shape"><path class="real" d=" M540.97,452.88 C540.97,439.79 551.92,429.17 565.43,429.17 C578.94,429.17 589.89,439.79 589.89,452.88 C589.89,465.98 578.94,476.59 565.43,476.59 C551.92,476.59 540.97,465.98 540.97,452.88 Z" style="stroke-width: 4; stroke: rgb(144, 19, 254); stroke-opacity: 1; fill: rgb(144, 19, 254); fill-opacity: 0.12;"/></g><g class="composite-shape"><path class="real" d=" M592.25,401.97 C592.25,388.88 603.2,378.27 616.7,378.27 C630.21,378.27 641.16,388.88 641.16,401.97 C641.16,415.07 630.21,425.68 616.7,425.68 C603.2,425.68 592.25,415.07 592.25,401.97 Z" style="stroke-width: 4; stroke: rgb(208, 2, 27); stroke-opacity: 1; fill: rgb(255, 0, 0); fill-opacity: 0.21;"/></g><g class="composite-shape"><path class="real" d=" M642.97,401.97 C642.97,388.88 653.92,378.27 667.43,378.27 C680.94,378.27 691.89,388.88 691.89,401.97 C691.89,415.07 680.94,425.68 667.43,425.68 C653.92,425.68 642.97,415.07 642.97,401.97 Z" style="stroke-width: 4; stroke: rgb(208, 2, 27); stroke-opacity: 1; fill: rgb(255, 0, 0); fill-opacity: 0.21;"/></g><g class="composite-shape"><path class="real" d=" M590.88,452.88 C590.88,439.79 601.83,429.17 615.34,429.17 C628.85,429.17 639.8,439.79 639.8,452.88 C639.8,465.98 628.85,476.59 615.34,476.59 C601.83,476.59 590.88,465.98 590.88,452.88 Z" style="stroke-width: 4; stroke: rgb(144, 19, 254); stroke-opacity: 1; fill: rgb(144, 19, 254); fill-opacity: 0.12;"/></g><g class="composite-shape"><path class="real" d=" M641.97,452.88 C641.97,439.79 652.92,429.17 666.43,429.17 C679.94,429.17 690.89,439.79 690.89,452.88 C690.89,465.98 679.94,476.59 666.43,476.59 C652.92,476.59 641.97,465.98 641.97,452.88 Z" style="stroke-width: 4; stroke: rgb(144, 19, 254); stroke-opacity: 1; fill: rgb(144, 19, 254); fill-opacity: 0.36;"/></g><g class="composite-shape"><path class="real" d=" M198.06,451.88 C198.06,438.79 209.01,428.17 222.51,428.17 C236.02,428.17 246.97,438.79 246.97,451.88 C246.97,464.98 236.02,475.59 222.51,475.59 C209.01,475.59 198.06,464.98 198.06,451.88 Z" style="stroke-width: 4; stroke: rgb(245, 166, 35); stroke-opacity: 1; fill: rgb(245, 166, 35); fill-opacity: 0.77;"/></g><g/></g><g/><g/><g/></svg>
        <svg xmlns="http://www.w3.org/2000/svg" xmlns:xlink="http://www.w3.org/1999/xlink" width="809" height="542.9375" style="width:809px;height:542.9375px;font-family:Asana-Math, Asana;background:transparent;"><g><g><g><g><g><g><g transform="matrix(1,0,0,1,160,516.19)"><path transform="matrix(0.03519,0,0,-0.03519,0,0)" d="M394 -12C554 -12 671 181 673 325C674 363 660 458 607 458C592 458 562 441 548 434L548 423C593 392 607 338 606 284C605 189 542 17 425 17C366 17 362 73 363 119C365 185 380 261 403 324L393 324C372 317 350 309 328 304C323 217 294 16 174 16C111 16 100 81 100 129C102 278 168 388 306 443L306 463C152 428 40 300 25 137C9 -29 213 -49 295 47C316 3 344 -12 394 -12Z" stroke="rgb(219,137,0)" stroke-opacity="1" stroke-width="0" fill="rgb(219,137,0)" fill-opacity="1"></path></g></g><g><g><g><g><g transform="matrix(1,0,0,1,186.203125,522.398625)"><path transform="matrix(0.024633,0,0,-0.024633,0,0)" d="M462 224C462 345 355 366 308 374C388 436 418 482 418 541C418 630 344 689 233 689C165 689 120 670 72 622L43 498L74 498L92 554C103 588 166 622 218 622C283 622 336 569 336 506C336 431 277 368 206 368C198 368 187 369 174 370L159 371L147 318L154 312C192 329 211 334 238 334C321 334 369 281 369 190C369 88 308 21 215 21C169 21 128 36 98 64C74 86 61 109 42 163L15 153C36 92 44 56 50 6C103 -12 147 -20 184 -20C307 -20 462 87 462 224Z" stroke="rgb(219,137,0)" stroke-opacity="1" stroke-width="0" fill="rgb(219,137,0)" fill-opacity="1"></path></g></g></g></g></g><g><g transform="matrix(1,0,0,1,200.609375,516.19)"><path transform="matrix(0.03519,0,0,-0.03519,0,0)" d="M204 123C177 114 159 108 106 93C99 17 74 -48 16 -144L30 -155L71 -136C152 -31 190 32 218 109Z" stroke="rgb(219,137,0)" stroke-opacity="1" stroke-width="0" fill="rgb(219,137,0)" fill-opacity="1"></path></g></g><g><g transform="matrix(1,0,0,1,216.40625,516.19)"><path transform="matrix(0.03519,0,0,-0.03519,0,0)" d="M154 473C89 473 51 426 18 377C18 371 27 368 30 365L30 366C54 394 74 412 111 412C206 412 215 290 214 220C212 136 203 53 186 -29C140 -86 92 -181 65 -249C69 -257 74 -265 77 -273C98 -268 119 -260 139 -251C165 -183 189 -106 203 -36C387 199 540 317 547 438C550 493 485 453 459 446L459 435C502 284 287 130 220 19L220 23C302 358 258 473 154 473Z" stroke="rgb(219,137,0)" stroke-opacity="1" stroke-width="0" fill="rgb(219,137,0)" fill-opacity="1"></path></g></g></g></g></g></g></g><g><g><g><g><g><g><g transform="matrix(1,0,0,1,715,351.19)"><path transform="matrix(0.03519,0,0,-0.03519,0,0)" d="M394 -12C554 -12 671 181 673 325C674 363 660 458 607 458C592 458 562 441 548 434L548 423C593 392 607 338 606 284C605 189 542 17 425 17C366 17 362 73 363 119C365 185 380 261 403 324L393 324C372 317 350 309 328 304C323 217 294 16 174 16C111 16 100 81 100 129C102 278 168 388 306 443L306 463C152 428 40 300 25 137C9 -29 213 -49 295 47C316 3 344 -12 394 -12Z" stroke="rgb(214,0,0)" stroke-opacity="1" stroke-width="0" fill="rgb(214,0,0)" fill-opacity="1"></path></g></g><g><g><g><g><g transform="matrix(1,0,0,1,741.203125,357.398625)"><path transform="matrix(0.024633,0,0,-0.024633,0,0)" d="M16 23L16 -3C203 -3 203 0 239 0C275 0 275 -3 468 -3L468 82C353 77 307 81 122 77L304 270C401 373 431 428 431 503C431 618 353 689 226 689C154 689 105 669 56 619L39 483L68 483L81 529C97 587 133 612 200 612C286 612 341 558 341 473C341 398 299 324 186 204Z" stroke="rgb(214,0,0)" stroke-opacity="1" stroke-width="0" fill="rgb(214,0,0)" fill-opacity="1"></path></g></g></g></g></g><g><g transform="matrix(1,0,0,1,755.609375,351.19)"><path transform="matrix(0.03519,0,0,-0.03519,0,0)" d="M204 123C177 114 159 108 106 93C99 17 74 -48 16 -144L30 -155L71 -136C152 -31 190 32 218 109Z" stroke="rgb(214,0,0)" stroke-opacity="1" stroke-width="0" fill="rgb(214,0,0)" fill-opacity="1"></path></g></g><g><g transform="matrix(1,0,0,1,771.40625,351.19)"><path transform="matrix(0.03519,0,0,-0.03519,0,0)" d="M154 473C89 473 51 426 18 377C18 371 27 368 30 365L30 366C54 394 74 412 111 412C206 412 215 290 214 220C212 136 203 53 186 -29C140 -86 92 -181 65 -249C69 -257 74 -265 77 -273C98 -268 119 -260 139 -251C165 -183 189 -106 203 -36C387 199 540 317 547 438C550 493 485 453 459 446L459 435C502 284 287 130 220 19L220 23C302 358 258 473 154 473Z" stroke="rgb(214,0,0)" stroke-opacity="1" stroke-width="0" fill="rgb(214,0,0)" fill-opacity="1"></path></g></g></g></g></g></g></g><g><g><g><g><g><g><g transform="matrix(1,0,0,1,450,515.19)"><path transform="matrix(0.03519,0,0,-0.03519,0,0)" d="M394 -12C554 -12 671 181 673 325C674 363 660 458 607 458C592 458 562 441 548 434L548 423C593 392 607 338 606 284C605 189 542 17 425 17C366 17 362 73 363 119C365 185 380 261 403 324L393 324C372 317 350 309 328 304C323 217 294 16 174 16C111 16 100 81 100 129C102 278 168 388 306 443L306 463C152 428 40 300 25 137C9 -29 213 -49 295 47C316 3 344 -12 394 -12Z" stroke="rgb(144,19,254)" stroke-opacity="1" stroke-width="0" fill="rgb(144,19,254)" fill-opacity="1"></path></g></g><g><g><g><g><g transform="matrix(1,0,0,1,476.203125,521.398625)"><path transform="matrix(0.024633,0,0,-0.024633,0,0)" d="M280 181L280 106C280 46 269 32 220 30L158 27L158 -3C291 0 291 0 315 0C339 0 339 0 472 -3L472 27L424 30C375 33 364 46 364 106L364 181C423 181 444 180 472 177L472 248L364 245L365 697L285 667L2 204L2 181ZM280 245L65 245L280 597Z" stroke="rgb(144,19,254)" stroke-opacity="1" stroke-width="0" fill="rgb(144,19,254)" fill-opacity="1"></path></g></g></g></g></g><g><g transform="matrix(1,0,0,1,490.609375,515.19)"><path transform="matrix(0.03519,0,0,-0.03519,0,0)" d="M204 123C177 114 159 108 106 93C99 17 74 -48 16 -144L30 -155L71 -136C152 -31 190 32 218 109Z" stroke="rgb(144,19,254)" stroke-opacity="1" stroke-width="0" fill="rgb(144,19,254)" fill-opacity="1"></path></g></g><g><g transform="matrix(1,0,0,1,506.40625,515.19)"><path transform="matrix(0.03519,0,0,-0.03519,0,0)" d="M154 473C89 473 51 426 18 377C18 371 27 368 30 365L30 366C54 394 74 412 111 412C206 412 215 290 214 220C212 136 203 53 186 -29C140 -86 92 -181 65 -249C69 -257 74 -265 77 -273C98 -268 119 -260 139 -251C165 -183 189 -106 203 -36C387 199 540 317 547 438C550 493 485 453 459 446L459 435C502 284 287 130 220 19L220 23C302 358 258 473 154 473Z" stroke="rgb(144,19,254)" stroke-opacity="1" stroke-width="0" fill="rgb(144,19,254)" fill-opacity="1"></path></g></g></g></g></g></g></g><g><g><g><g><g><g><g transform="matrix(1,0,0,1,3,323.19)"><path transform="matrix(0.03519,0,0,-0.03519,0,0)" d="M394 -12C554 -12 671 181 673 325C674 363 660 458 607 458C592 458 562 441 548 434L548 423C593 392 607 338 606 284C605 189 542 17 425 17C366 17 362 73 363 119C365 185 380 261 403 324L393 324C372 317 350 309 328 304C323 217 294 16 174 16C111 16 100 81 100 129C102 278 168 388 306 443L306 463C152 428 40 300 25 137C9 -29 213 -49 295 47C316 3 344 -12 394 -12Z" stroke="rgb(104,192,8)" stroke-opacity="1" stroke-width="0" fill="rgb(104,192,8)" fill-opacity="1"></path></g></g><g><g><g><g><g transform="matrix(1,0,0,1,29.203125,329.398625)"><path transform="matrix(0.024633,0,0,-0.024633,0,0)" d="M459 253C459 366 378 446 264 446C216 446 180 443 127 396L127 605L432 604L432 689L75 690L75 322L95 316C142 363 169 377 218 377C314 377 374 309 374 201C374 90 310 25 201 25C147 25 97 43 83 69L37 151L13 137C36 80 48 48 62 4C90 -11 130 -20 173 -20C301 -20 459 89 459 253Z" stroke="rgb(104,192,8)" stroke-opacity="1" stroke-width="0" fill="rgb(104,192,8)" fill-opacity="1"></path></g></g></g></g></g><g><g transform="matrix(1,0,0,1,43.609375,323.19)"><path transform="matrix(0.03519,0,0,-0.03519,0,0)" d="M204 123C177 114 159 108 106 93C99 17 74 -48 16 -144L30 -155L71 -136C152 -31 190 32 218 109Z" stroke="rgb(104,192,8)" stroke-opacity="1" stroke-width="0" fill="rgb(104,192,8)" fill-opacity="1"></path></g></g><g><g transform="matrix(1,0,0,1,59.40625,323.19)"><path transform="matrix(0.03519,0,0,-0.03519,0,0)" d="M154 473C89 473 51 426 18 377C18 371 27 368 30 365L30 366C54 394 74 412 111 412C206 412 215 290 214 220C212 136 203 53 186 -29C140 -86 92 -181 65 -249C69 -257 74 -265 77 -273C98 -268 119 -260 139 -251C165 -183 189 -106 203 -36C387 199 540 317 547 438C550 493 485 453 459 446L459 435C502 284 287 130 220 19L220 23C302 358 258 473 154 473Z" stroke="rgb(104,192,8)" stroke-opacity="1" stroke-width="0" fill="rgb(104,192,8)" fill-opacity="1"></path></g></g></g></g></g></g></g><g><g><g><g><g><g><g transform="matrix(1,0,0,1,362,45.19)"><path transform="matrix(0.03519,0,0,-0.03519,0,0)" d="M394 -12C554 -12 671 181 673 325C674 363 660 458 607 458C592 458 562 441 548 434L548 423C593 392 607 338 606 284C605 189 542 17 425 17C366 17 362 73 363 119C365 185 380 261 403 324L393 324C372 317 350 309 328 304C323 217 294 16 174 16C111 16 100 81 100 129C102 278 168 388 306 443L306 463C152 428 40 300 25 137C9 -29 213 -49 295 47C316 3 344 -12 394 -12Z" stroke="rgb(0,0,0)" stroke-opacity="1" stroke-width="0" fill="rgb(0,0,0)" fill-opacity="1"></path></g></g><g><g><g><g><g transform="matrix(1,0,0,1,388.203125,51.398624999999996)"><path transform="matrix(0.024633,0,0,-0.024633,0,0)" d="M418 -3L418 27L366 30C311 33 301 44 301 96L301 700L60 598L67 548L217 614L217 96C217 44 206 33 152 30L96 27L96 -3C250 0 250 0 261 0C292 0 402 -3 418 -3Z" stroke="rgb(0,0,0)" stroke-opacity="1" stroke-width="0" fill="rgb(0,0,0)" fill-opacity="1"></path></g></g></g></g></g><g><g transform="matrix(1,0,0,1,402.609375,45.19)"><path transform="matrix(0.03519,0,0,-0.03519,0,0)" d="M204 123C177 114 159 108 106 93C99 17 74 -48 16 -144L30 -155L71 -136C152 -31 190 32 218 109Z" stroke="rgb(0,0,0)" stroke-opacity="1" stroke-width="0" fill="rgb(0,0,0)" fill-opacity="1"></path></g></g><g><g transform="matrix(1,0,0,1,418.40625,45.19)"><path transform="matrix(0.03519,0,0,-0.03519,0,0)" d="M154 473C89 473 51 426 18 377C18 371 27 368 30 365L30 366C54 394 74 412 111 412C206 412 215 290 214 220C212 136 203 53 186 -29C140 -86 92 -181 65 -249C69 -257 74 -265 77 -273C98 -268 119 -260 139 -251C165 -183 189 -106 203 -36C387 199 540 317 547 438C550 493 485 453 459 446L459 435C502 284 287 130 220 19L220 23C302 358 258 473 154 473Z" stroke="rgb(0,0,0)" stroke-opacity="1" stroke-width="0" fill="rgb(0,0,0)" fill-opacity="1"></path></g></g></g></g></g></g></g></svg>
</svg>
