<svg xmlns="http://www.w3.org/2000/svg" xmlns:xlink="http://www.w3.org/1999/xlink" x="0" y="0" width="811" height="526.9375" style="
        width:811px;
        height:526.9375px;
        background: transparent;
        fill: none;
">
        
        
        <svg xmlns="http://www.w3.org/2000/svg" class="role-diagram-draw-area"><g class="shapes-region" style="stroke: black; fill: none;"><g class="composite-shape"><path class="real" d=" M96.25,70.97 C96.25,57.88 107.2,47.27 120.7,47.27 C134.21,47.27 145.16,57.88 145.16,70.97 C145.16,84.07 134.21,94.68 120.7,94.68 C107.2,94.68 96.25,84.07 96.25,70.97 Z" style="stroke-width: 4; stroke: rgb(74, 144, 226); stroke-opacity: 1; fill: rgb(74, 144, 226); fill-opacity: 0.24;"/></g><g class="composite-shape"><path class="real" d=" M146.97,70.97 C146.97,57.88 157.92,47.27 171.43,47.27 C184.94,47.27 195.89,57.88 195.89,70.97 C195.89,84.07 184.94,94.68 171.43,94.68 C157.92,94.68 146.97,84.07 146.97,70.97 Z" style="stroke-width: 4; stroke: rgb(74, 144, 226); stroke-opacity: 1; fill: rgb(74, 144, 226); fill-opacity: 0.24;"/></g><g class="composite-shape"><path class="real" d=" M95.88,121.88 C95.88,108.79 106.83,98.17 120.34,98.17 C133.85,98.17 144.8,108.79 144.8,121.88 C144.8,134.98 133.85,145.59 120.34,145.59 C106.83,145.59 95.88,134.98 95.88,121.88 Z" style="stroke-width: 4; stroke: rgb(74, 144, 226); stroke-opacity: 1; fill: rgb(74, 144, 226); fill-opacity: 0.24;"/></g><g class="composite-shape"><path class="real" d=" M146.97,121.88 C146.97,108.79 157.92,98.17 171.43,98.17 C184.94,98.17 195.89,108.79 195.89,121.88 C195.89,134.98 184.94,145.59 171.43,145.59 C157.92,145.59 146.97,134.98 146.97,121.88 Z" style="stroke-width: 4; stroke: rgb(74, 144, 226); stroke-opacity: 1; fill: rgb(74, 144, 226); fill-opacity: 0.24;"/></g><g class="composite-shape"><path class="real" d=" M197.25,71.97 C197.25,58.88 208.2,48.27 221.7,48.27 C235.21,48.27 246.16,58.88 246.16,71.97 C246.16,85.07 235.21,95.68 221.7,95.68 C208.2,95.68 197.25,85.07 197.25,71.97 Z" style="stroke-width: 4; stroke: rgb(74, 144, 226); stroke-opacity: 1; fill: rgb(74, 144, 226); fill-opacity: 0.24;"/></g><g class="composite-shape"><path class="real" d=" M247.97,71.97 C247.97,58.88 258.92,48.27 272.43,48.27 C285.94,48.27 296.89,58.88 296.89,71.97 C296.89,85.07 285.94,95.68 272.43,95.68 C258.92,95.68 247.97,85.07 247.97,71.97 Z" style="stroke-width: 4; stroke: rgb(74, 144, 226); stroke-opacity: 1; fill: rgb(74, 144, 226); fill-opacity: 0.24;"/></g><g class="composite-shape"><path class="real" d=" M196.88,122.88 C196.88,109.79 207.83,99.17 221.34,99.17 C234.85,99.17 245.8,109.79 245.8,122.88 C245.8,135.98 234.85,146.59 221.34,146.59 C207.83,146.59 196.88,135.98 196.88,122.88 Z" style="stroke-width: 4; stroke: rgb(74, 144, 226); stroke-opacity: 1; fill: rgb(74, 144, 226); fill-opacity: 0.24;"/></g><g class="composite-shape"><path class="real" d=" M246.97,122.88 C246.97,109.79 257.92,99.17 271.43,99.17 C284.93,99.17 295.88,109.79 295.88,122.88 C295.88,135.98 284.93,146.59 271.43,146.59 C257.92,146.59 246.97,135.98 246.97,122.88 Z" style="stroke-width: 4; stroke: rgb(74, 144, 226); stroke-opacity: 1; fill: rgb(74, 144, 226); fill-opacity: 0.24;"/></g><g class="grouped-shape"><g class="composite-shape"><path class="real" d=" M296.25,71.97 C296.25,58.88 307.2,48.27 320.7,48.27 C334.21,48.27 345.16,58.88 345.16,71.97 C345.16,85.07 334.21,95.68 320.7,95.68 C307.2,95.68 296.25,85.07 296.25,71.97 Z" style="stroke-width: 4; stroke: rgb(74, 144, 226); stroke-opacity: 1; fill: rgb(74, 144, 226); fill-opacity: 0.24;"/></g><g class="composite-shape"><path class="real" d=" M346.97,71.97 C346.97,58.88 357.92,48.27 371.43,48.27 C384.94,48.27 395.89,58.88 395.89,71.97 C395.89,85.07 384.94,95.68 371.43,95.68 C357.92,95.68 346.97,85.07 346.97,71.97 Z" style="stroke-width: 4; stroke: rgb(74, 144, 226); stroke-opacity: 1; fill: rgb(74, 144, 226); fill-opacity: 0.24;"/></g><g class="composite-shape"><path class="real" d=" M295.88,122.88 C295.88,109.79 306.83,99.17 320.34,99.17 C333.85,99.17 344.8,109.79 344.8,122.88 C344.8,135.98 333.85,146.59 320.34,146.59 C306.83,146.59 295.88,135.98 295.88,122.88 Z" style="stroke-width: 4; stroke: rgb(74, 144, 226); stroke-opacity: 1; fill: rgb(74, 144, 226); fill-opacity: 0.24;"/></g><g class="composite-shape"><path class="real" d=" M346.97,122.88 C346.97,109.79 357.92,99.17 371.43,99.17 C384.94,99.17 395.89,109.79 395.89,122.88 C395.89,135.98 384.94,146.59 371.43,146.59 C357.92,146.59 346.97,135.98 346.97,122.88 Z" style="stroke-width: 4; stroke: rgb(74, 144, 226); stroke-opacity: 1; fill: rgb(74, 144, 226); fill-opacity: 0.24;"/></g></g><g class="composite-shape"><path class="real" d=" M95.25,173.97 C95.25,160.88 106.2,150.27 119.7,150.27 C133.21,150.27 144.16,160.88 144.16,173.97 C144.16,187.07 133.21,197.68 119.7,197.68 C106.2,197.68 95.25,187.07 95.25,173.97 Z" style="stroke-width: 4; stroke: rgb(74, 144, 226); stroke-opacity: 1; fill: rgb(74, 144, 226); fill-opacity: 0.24;"/></g><g class="composite-shape"><path class="real" d=" M145.97,173.97 C145.97,160.88 156.92,150.27 170.43,150.27 C183.94,150.27 194.89,160.88 194.89,173.97 C194.89,187.07 183.94,197.68 170.43,197.68 C156.92,197.68 145.97,187.07 145.97,173.97 Z" style="stroke-width: 4; stroke: rgb(74, 144, 226); stroke-opacity: 1; fill: rgb(74, 144, 226); fill-opacity: 0.24;"/></g><g class="composite-shape"><path class="real" d=" M97.06,224.88 C97.06,211.79 108.01,201.17 121.51,201.17 C135.02,201.17 145.97,211.79 145.97,224.88 C145.97,237.98 135.02,248.59 121.51,248.59 C108.01,248.59 97.06,237.98 97.06,224.88 Z" style="stroke-width: 4; stroke: rgb(74, 144, 226); stroke-opacity: 1; fill: rgb(74, 144, 226); fill-opacity: 0.24;"/></g><g class="composite-shape"><path class="real" d=" M145.97,224.88 C145.97,211.79 156.92,201.17 170.43,201.17 C183.94,201.17 194.89,211.79 194.89,224.88 C194.89,237.98 183.94,248.59 170.43,248.59 C156.92,248.59 145.97,237.98 145.97,224.88 Z" style="stroke-width: 4; stroke: rgb(74, 144, 226); stroke-opacity: 1; fill: rgb(74, 144, 226); fill-opacity: 0.24;"/></g><g class="grouped-shape"><g class="composite-shape"><path class="real" d=" M196.25,174.97 C196.25,161.88 207.2,151.27 220.7,151.27 C234.21,151.27 245.16,161.88 245.16,174.97 C245.16,188.07 234.21,198.68 220.7,198.68 C207.2,198.68 196.25,188.07 196.25,174.97 Z" style="stroke-width: 4; stroke: rgb(74, 144, 226); stroke-opacity: 1; fill: rgb(74, 144, 226); fill-opacity: 0.24;"/></g><g class="composite-shape"><path class="real" d=" M246.97,174.97 C246.97,161.88 257.92,151.27 271.43,151.27 C284.94,151.27 295.89,161.88 295.89,174.97 C295.89,188.07 284.94,198.68 271.43,198.68 C257.92,198.68 246.97,188.07 246.97,174.97 Z" style="stroke-width: 4; stroke: rgb(74, 144, 226); stroke-opacity: 1; fill: rgb(74, 144, 226); fill-opacity: 0.24;"/></g><g class="composite-shape"><path class="real" d=" M195.88,225.88 C195.88,212.79 206.83,202.17 220.34,202.17 C233.85,202.17 244.8,212.79 244.8,225.88 C244.8,238.98 233.85,249.59 220.34,249.59 C206.83,249.59 195.88,238.98 195.88,225.88 Z" style="stroke-width: 4; stroke: rgb(74, 144, 226); stroke-opacity: 1; fill: rgb(74, 144, 226); fill-opacity: 0.24;"/></g><g class="composite-shape"><path class="real" d=" M246.97,225.88 C246.97,212.79 257.92,202.17 271.43,202.17 C284.94,202.17 295.89,212.79 295.89,225.88 C295.89,238.98 284.94,249.59 271.43,249.59 C257.92,249.59 246.97,238.98 246.97,225.88 Z" style="stroke-width: 4; stroke: rgb(74, 144, 226); stroke-opacity: 1; fill: rgb(74, 144, 226); fill-opacity: 0.24;"/></g></g><g class="grouped-shape"><g class="composite-shape"><path class="real" d=" M295.25,174.97 C295.25,161.88 306.2,151.27 319.7,151.27 C333.21,151.27 344.16,161.88 344.16,174.97 C344.16,188.07 333.21,198.68 319.7,198.68 C306.2,198.68 295.25,188.07 295.25,174.97 Z" style="stroke-width: 4; stroke: rgb(74, 144, 226); stroke-opacity: 1; fill: rgb(74, 144, 226); fill-opacity: 0.24;"/></g><g class="composite-shape"><path class="real" d=" M345.97,174.97 C345.97,161.88 356.92,151.27 370.43,151.27 C383.94,151.27 394.89,161.88 394.89,174.97 C394.89,188.07 383.94,198.68 370.43,198.68 C356.92,198.68 345.97,188.07 345.97,174.97 Z" style="stroke-width: 4; stroke: rgb(74, 144, 226); stroke-opacity: 1; fill: rgb(74, 144, 226); fill-opacity: 0.24;"/></g><g class="composite-shape"><path class="real" d=" M294.88,225.88 C294.88,212.79 305.83,202.17 319.34,202.17 C332.85,202.17 343.8,212.79 343.8,225.88 C343.8,238.98 332.85,249.59 319.34,249.59 C305.83,249.59 294.88,238.98 294.88,225.88 Z" style="stroke-width: 4; stroke: rgb(74, 144, 226); stroke-opacity: 1; fill: rgb(74, 144, 226); fill-opacity: 0.24;"/></g><g class="composite-shape"><path class="real" d=" M345.97,225.88 C345.97,212.79 356.92,202.17 370.43,202.17 C383.94,202.17 394.89,212.79 394.89,225.88 C394.89,238.98 383.94,249.59 370.43,249.59 C356.92,249.59 345.97,238.98 345.97,225.88 Z" style="stroke-width: 4; stroke: rgb(74, 144, 226); stroke-opacity: 1; fill: rgb(74, 144, 226); fill-opacity: 0.24;"/></g></g><g class="composite-shape"><path class="real" d=" M95.25,276.97 C95.25,263.88 106.2,253.27 119.7,253.27 C133.21,253.27 144.16,263.88 144.16,276.97 C144.16,290.07 133.21,300.68 119.7,300.68 C106.2,300.68 95.25,290.07 95.25,276.97 Z" style="stroke-width: 4; stroke: rgb(126, 211, 33); stroke-opacity: 1; fill: rgb(128, 238, 11); fill-opacity: 0.64;"/></g><g class="composite-shape"><path class="real" d=" M144.16,276.97 C144.16,263.88 155.11,253.27 168.62,253.27 C182.13,253.27 193.08,263.88 193.08,276.97 C193.08,290.07 182.13,300.68 168.62,300.68 C155.11,300.68 144.16,290.07 144.16,276.97 Z" style="stroke-width: 4; stroke: rgb(126, 211, 33); stroke-opacity: 1; fill: rgb(126, 211, 33); fill-opacity: 0.32;"/></g><g class="composite-shape"><path class="real" d=" M94.88,327.88 C94.88,314.79 105.83,304.17 119.34,304.17 C132.85,304.17 143.8,314.79 143.8,327.88 C143.8,340.98 132.85,351.59 119.34,351.59 C105.83,351.59 94.88,340.98 94.88,327.88 Z" style="stroke-width: 4; stroke: rgb(126, 211, 33); stroke-opacity: 1; fill: rgb(126, 211, 33); fill-opacity: 0.32;"/></g><g class="composite-shape"><path class="real" d=" M144.97,328.88 C144.97,315.79 155.92,305.17 169.43,305.17 C182.93,305.17 193.88,315.79 193.88,328.88 C193.88,341.98 182.93,352.59 169.43,352.59 C155.92,352.59 144.97,341.98 144.97,328.88 Z" style="stroke-width: 4; stroke: rgb(126, 211, 33); stroke-opacity: 1; fill: rgb(126, 211, 33); fill-opacity: 0.32;"/></g><g class="grouped-shape"><g class="composite-shape"><path class="real" d=" M194.25,277.97 C194.25,264.88 205.2,254.27 218.7,254.27 C232.21,254.27 243.16,264.88 243.16,277.97 C243.16,291.07 232.21,301.68 218.7,301.68 C205.2,301.68 194.25,291.07 194.25,277.97 Z" style="stroke-width: 4; stroke: rgb(126, 211, 33); stroke-opacity: 1; fill: rgb(126, 211, 33); fill-opacity: 0.32;"/></g><g class="composite-shape"><path class="real" d=" M244.97,277.97 C244.97,264.88 255.92,254.27 269.43,254.27 C282.94,254.27 293.89,264.88 293.89,277.97 C293.89,291.07 282.94,301.68 269.43,301.68 C255.92,301.68 244.97,291.07 244.97,277.97 Z" style="stroke-width: 4; stroke: rgb(126, 211, 33); stroke-opacity: 1; fill: rgb(126, 211, 33); fill-opacity: 0.32;"/></g><g class="composite-shape"><path class="real" d=" M193.88,328.88 C193.88,315.79 204.83,305.17 218.34,305.17 C231.85,305.17 242.8,315.79 242.8,328.88 C242.8,341.98 231.85,352.59 218.34,352.59 C204.83,352.59 193.88,341.98 193.88,328.88 Z" style="stroke-width: 4; stroke: rgb(126, 211, 33); stroke-opacity: 1; fill: rgb(126, 211, 33); fill-opacity: 0.32;"/></g><g class="composite-shape"><path class="real" d=" M244.97,328.88 C244.97,315.79 255.92,305.17 269.43,305.17 C282.94,305.17 293.89,315.79 293.89,328.88 C293.89,341.98 282.94,352.59 269.43,352.59 C255.92,352.59 244.97,341.98 244.97,328.88 Z" style="stroke-width: 4; stroke: rgb(126, 211, 33); stroke-opacity: 1; fill: rgb(126, 211, 33); fill-opacity: 0.32;"/></g></g><g class="grouped-shape"><g class="composite-shape"><path class="real" d=" M295.25,277.97 C295.25,264.88 306.2,254.27 319.7,254.27 C333.21,254.27 344.16,264.88 344.16,277.97 C344.16,291.07 333.21,301.68 319.7,301.68 C306.2,301.68 295.25,291.07 295.25,277.97 Z" style="stroke-width: 4; stroke: rgb(208, 2, 27); stroke-opacity: 1; fill: rgb(255, 0, 0); fill-opacity: 0.21;"/></g><g class="composite-shape"><path class="real" d=" M345.97,277.97 C345.97,264.88 356.92,254.27 370.43,254.27 C383.94,254.27 394.89,264.88 394.89,277.97 C394.89,291.07 383.94,301.68 370.43,301.68 C356.92,301.68 345.97,291.07 345.97,277.97 Z" style="stroke-width: 4; stroke: rgb(208, 2, 27); stroke-opacity: 1; fill: rgb(255, 0, 0); fill-opacity: 0.21;"/></g><g class="composite-shape"><path class="real" d=" M294.88,328.88 C294.88,315.79 305.83,305.17 319.34,305.17 C332.85,305.17 343.8,315.79 343.8,328.88 C343.8,341.98 332.85,352.59 319.34,352.59 C305.83,352.59 294.88,341.98 294.88,328.88 Z" style="stroke-width: 4; stroke: rgb(208, 2, 27); stroke-opacity: 1; fill: rgb(255, 0, 0); fill-opacity: 0.21;"/></g><g class="composite-shape"><path class="real" d=" M345.97,328.88 C345.97,315.79 356.92,305.17 370.43,305.17 C383.94,305.17 394.89,315.79 394.89,328.88 C394.89,341.98 383.94,352.59 370.43,352.59 C356.92,352.59 345.97,341.98 345.97,328.88 Z" style="stroke-width: 4; stroke: rgb(208, 2, 27); stroke-opacity: 1; fill: rgb(255, 0, 0); fill-opacity: 0.21;"/></g></g><g class="grouped-shape"><g class="composite-shape"><path class="real" d=" M97.25,379.97 C97.25,366.88 108.2,356.27 121.7,356.27 C135.21,356.27 146.16,366.88 146.16,379.97 C146.16,393.07 135.21,403.68 121.7,403.68 C108.2,403.68 97.25,393.07 97.25,379.97 Z" style="stroke-width: 4; stroke: rgb(245, 166, 35); stroke-opacity: 1; fill: rgb(245, 166, 35); fill-opacity: 0.23;"/></g><g class="composite-shape"><path class="real" d=" M147.97,379.97 C147.97,366.88 158.92,356.27 172.43,356.27 C185.94,356.27 196.89,366.88 196.89,379.97 C196.89,393.07 185.94,403.68 172.43,403.68 C158.92,403.68 147.97,393.07 147.97,379.97 Z" style="stroke-width: 4; stroke: rgb(245, 166, 35); stroke-opacity: 1; fill: rgb(245, 166, 35); fill-opacity: 0.23;"/></g><g class="composite-shape"><path class="real" d=" M96.88,430.88 C96.88,417.79 107.83,407.17 121.34,407.17 C134.85,407.17 145.8,417.79 145.8,430.88 C145.8,443.98 134.85,454.59 121.34,454.59 C107.83,454.59 96.88,443.98 96.88,430.88 Z" style="stroke-width: 4; stroke: rgb(245, 166, 35); stroke-opacity: 1; fill: rgb(245, 166, 35); fill-opacity: 0.23;"/></g><g class="composite-shape"><path class="real" d=" M147.97,430.88 C147.97,417.79 158.92,407.17 172.43,407.17 C185.94,407.17 196.89,417.79 196.89,430.88 C196.89,443.98 185.94,454.59 172.43,454.59 C158.92,454.59 147.97,443.98 147.97,430.88 Z" style="stroke-width: 4; stroke: rgb(245, 166, 35); stroke-opacity: 1; fill: rgb(245, 166, 35); fill-opacity: 0.23;"/></g></g><g class="composite-shape"><path class="real" d=" M196.25,379.97 C196.25,366.88 207.2,356.27 220.7,356.27 C234.21,356.27 245.16,366.88 245.16,379.97 C245.16,393.07 234.21,403.68 220.7,403.68 C207.2,403.68 196.25,393.07 196.25,379.97 Z" style="stroke-width: 4; stroke: rgb(245, 166, 35); stroke-opacity: 1; fill: rgb(245, 166, 35); fill-opacity: 0.23;"/></g><g class="composite-shape"><path class="real" d=" M245.97,380.97 C245.97,367.88 256.92,357.27 270.43,357.27 C283.94,357.27 294.89,367.88 294.89,380.97 C294.89,394.07 283.94,404.68 270.43,404.68 C256.92,404.68 245.97,394.07 245.97,380.97 Z" style="stroke-width: 4; stroke: rgb(245, 166, 35); stroke-opacity: 1; fill: rgb(245, 166, 35); fill-opacity: 0.23;"/></g><g class="composite-shape"><path class="real" d=" M245.97,431.88 C245.97,418.79 256.92,408.17 270.43,408.17 C283.94,408.17 294.89,418.79 294.89,431.88 C294.89,444.98 283.94,455.59 270.43,455.59 C256.92,455.59 245.97,444.98 245.97,431.88 Z" style="stroke-width: 4; stroke: rgb(245, 166, 35); stroke-opacity: 1; fill: rgb(245, 166, 35); fill-opacity: 0.23;"/></g><g class="composite-shape"><path class="real" d=" M294.25,380.97 C294.25,367.88 305.2,357.27 318.7,357.27 C332.21,357.27 343.16,367.88 343.16,380.97 C343.16,394.07 332.21,404.68 318.7,404.68 C305.2,404.68 294.25,394.07 294.25,380.97 Z" style="stroke-width: 4; stroke: rgb(208, 2, 27); stroke-opacity: 1; fill: rgb(255, 0, 0); fill-opacity: 0.19;"/></g><g class="composite-shape"><path class="real" d=" M344.97,380.97 C344.97,367.88 355.92,357.27 369.43,357.27 C382.94,357.27 393.89,367.88 393.89,380.97 C393.89,394.07 382.94,404.68 369.43,404.68 C355.92,404.68 344.97,394.07 344.97,380.97 Z" style="stroke-width: 4; stroke: rgb(208, 2, 27); stroke-opacity: 1; fill: rgb(255, 0, 0); fill-opacity: 0.19;"/></g><g class="composite-shape"><path class="real" d=" M293.88,431.88 C293.88,418.79 304.83,408.17 318.34,408.17 C331.85,408.17 342.8,418.79 342.8,431.88 C342.8,444.98 331.85,455.59 318.34,455.59 C304.83,455.59 293.88,444.98 293.88,431.88 Z" style="stroke-width: 4; stroke: rgb(144, 19, 254); stroke-opacity: 1; fill: rgb(144, 19, 254); fill-opacity: 0.12;"/></g><g class="composite-shape"><path class="real" d=" M344.97,431.88 C344.97,418.79 355.92,408.17 369.43,408.17 C382.94,408.17 393.89,418.79 393.89,431.88 C393.89,444.98 382.94,455.59 369.43,455.59 C355.92,455.59 344.97,444.98 344.97,431.88 Z" style="stroke-width: 4; stroke: rgb(144, 19, 254); stroke-opacity: 1; fill: rgb(144, 19, 254); fill-opacity: 0.12;"/></g><g class="composite-shape"><path class="real" d=" M396.25,72.97 C396.25,59.88 407.2,49.27 420.7,49.27 C434.21,49.27 445.16,59.88 445.16,72.97 C445.16,86.07 434.21,96.68 420.7,96.68 C407.2,96.68 396.25,86.07 396.25,72.97 Z" style="stroke-width: 4; stroke: rgb(74, 144, 226); stroke-opacity: 1; fill: rgb(74, 144, 226); fill-opacity: 0.24;"/></g><g class="composite-shape"><path class="real" d=" M446.97,72.97 C446.97,59.88 457.92,49.27 471.43,49.27 C484.94,49.27 495.89,59.88 495.89,72.97 C495.89,86.07 484.94,96.68 471.43,96.68 C457.92,96.68 446.97,86.07 446.97,72.97 Z" style="stroke-width: 4; stroke: rgb(74, 144, 226); stroke-opacity: 1; fill: rgb(74, 144, 226); fill-opacity: 0.24;"/></g><g class="composite-shape"><path class="real" d=" M395.88,123.88 C395.88,110.79 406.83,100.17 420.34,100.17 C433.85,100.17 444.8,110.79 444.8,123.88 C444.8,136.98 433.85,147.59 420.34,147.59 C406.83,147.59 395.88,136.98 395.88,123.88 Z" style="stroke-width: 4; stroke: rgb(74, 144, 226); stroke-opacity: 1; fill: rgb(74, 144, 226); fill-opacity: 0.67;"/></g><g class="composite-shape"><path class="real" d=" M446.97,123.88 C446.97,110.79 457.92,100.17 471.43,100.17 C484.94,100.17 495.89,110.79 495.89,123.88 C495.89,136.98 484.94,147.59 471.43,147.59 C457.92,147.59 446.97,136.98 446.97,123.88 Z" style="stroke-width: 4; stroke: rgb(74, 144, 226); stroke-opacity: 1; fill: rgb(74, 144, 226); fill-opacity: 0.24;"/></g><g class="grouped-shape"><g class="composite-shape"><path class="real" d=" M495.25,73.97 C495.25,60.88 506.2,50.27 519.7,50.27 C533.21,50.27 544.16,60.88 544.16,73.97 C544.16,87.07 533.21,97.68 519.7,97.68 C506.2,97.68 495.25,87.07 495.25,73.97 Z" style="stroke-width: 4; stroke: rgb(74, 144, 226); stroke-opacity: 1; fill: rgb(74, 144, 226); fill-opacity: 0.24;"/></g><g class="composite-shape"><path class="real" d=" M545.97,73.97 C545.97,60.88 556.92,50.27 570.43,50.27 C583.94,50.27 594.89,60.88 594.89,73.97 C594.89,87.07 583.94,97.68 570.43,97.68 C556.92,97.68 545.97,87.07 545.97,73.97 Z" style="stroke-width: 4; stroke: rgb(74, 144, 226); stroke-opacity: 1; fill: rgb(74, 144, 226); fill-opacity: 0.24;"/></g><g class="composite-shape"><path class="real" d=" M494.88,124.88 C494.88,111.79 505.83,101.17 519.34,101.17 C532.85,101.17 543.8,111.79 543.8,124.88 C543.8,137.98 532.85,148.59 519.34,148.59 C505.83,148.59 494.88,137.98 494.88,124.88 Z" style="stroke-width: 4; stroke: rgb(74, 144, 226); stroke-opacity: 1; fill: rgb(74, 144, 226); fill-opacity: 0.24;"/></g><g class="composite-shape"><path class="real" d=" M545.97,124.88 C545.97,111.79 556.92,101.17 570.43,101.17 C583.94,101.17 594.89,111.79 594.89,124.88 C594.89,137.98 583.94,148.59 570.43,148.59 C556.92,148.59 545.97,137.98 545.97,124.88 Z" style="stroke-width: 4; stroke: rgb(74, 144, 226); stroke-opacity: 1; fill: rgb(74, 144, 226); fill-opacity: 0.24;"/></g></g><g class="grouped-shape"><g class="composite-shape"><path class="real" d=" M595.25,74.97 C595.25,61.88 606.2,51.27 619.7,51.27 C633.21,51.27 644.16,61.88 644.16,74.97 C644.16,88.07 633.21,98.68 619.7,98.68 C606.2,98.68 595.25,88.07 595.25,74.97 Z" style="stroke-width: 4; stroke: rgb(74, 144, 226); stroke-opacity: 1; fill: rgb(74, 144, 226); fill-opacity: 0.24;"/></g><g class="composite-shape"><path class="real" d=" M645.97,74.97 C645.97,61.88 656.92,51.27 670.43,51.27 C683.94,51.27 694.89,61.88 694.89,74.97 C694.89,88.07 683.94,98.68 670.43,98.68 C656.92,98.68 645.97,88.07 645.97,74.97 Z" style="stroke-width: 4; stroke: rgb(74, 144, 226); stroke-opacity: 1; fill: rgb(74, 144, 226); fill-opacity: 0.24;"/></g><g class="composite-shape"><path class="real" d=" M594.88,125.88 C594.88,112.79 605.83,102.17 619.34,102.17 C632.85,102.17 643.8,112.79 643.8,125.88 C643.8,138.98 632.85,149.59 619.34,149.59 C605.83,149.59 594.88,138.98 594.88,125.88 Z" style="stroke-width: 4; stroke: rgb(74, 144, 226); stroke-opacity: 1; fill: rgb(74, 144, 226); fill-opacity: 0.24;"/></g><g class="composite-shape"><path class="real" d=" M645.97,125.88 C645.97,112.79 656.92,102.17 670.43,102.17 C683.94,102.17 694.89,112.79 694.89,125.88 C694.89,138.98 683.94,149.59 670.43,149.59 C656.92,149.59 645.97,138.98 645.97,125.88 Z" style="stroke-width: 4; stroke: rgb(74, 144, 226); stroke-opacity: 1; fill: rgb(74, 144, 226); fill-opacity: 0.24;"/></g></g><g class="grouped-shape"><g class="composite-shape"><path class="real" d=" M395.25,175.97 C395.25,162.88 406.2,152.27 419.7,152.27 C433.21,152.27 444.16,162.88 444.16,175.97 C444.16,189.07 433.21,199.68 419.7,199.68 C406.2,199.68 395.25,189.07 395.25,175.97 Z" style="stroke-width: 4; stroke: rgb(74, 144, 226); stroke-opacity: 1; fill: rgb(74, 144, 226); fill-opacity: 0.24;"/></g><g class="composite-shape"><path class="real" d=" M445.97,175.97 C445.97,162.88 456.92,152.27 470.43,152.27 C483.94,152.27 494.89,162.88 494.89,175.97 C494.89,189.07 483.94,199.68 470.43,199.68 C456.92,199.68 445.97,189.07 445.97,175.97 Z" style="stroke-width: 4; stroke: rgb(74, 144, 226); stroke-opacity: 1; fill: rgb(74, 144, 226); fill-opacity: 0.24;"/></g><g class="composite-shape"><path class="real" d=" M394.88,226.88 C394.88,213.79 405.83,203.17 419.34,203.17 C432.85,203.17 443.8,213.79 443.8,226.88 C443.8,239.98 432.85,250.59 419.34,250.59 C405.83,250.59 394.88,239.98 394.88,226.88 Z" style="stroke-width: 4; stroke: rgb(74, 144, 226); stroke-opacity: 1; fill: rgb(74, 144, 226); fill-opacity: 0.24;"/></g><g class="composite-shape"><path class="real" d=" M445.97,226.88 C445.97,213.79 456.92,203.17 470.43,203.17 C483.94,203.17 494.89,213.79 494.89,226.88 C494.89,239.98 483.94,250.59 470.43,250.59 C456.92,250.59 445.97,239.98 445.97,226.88 Z" style="stroke-width: 4; stroke: rgb(74, 144, 226); stroke-opacity: 1; fill: rgb(74, 144, 226); fill-opacity: 0.24;"/></g></g><g class="grouped-shape"><g class="composite-shape"><path class="real" d=" M494.25,176.97 C494.25,163.88 505.2,153.27 518.7,153.27 C532.21,153.27 543.16,163.88 543.16,176.97 C543.16,190.07 532.21,200.68 518.7,200.68 C505.2,200.68 494.25,190.07 494.25,176.97 Z" style="stroke-width: 4; stroke: rgb(74, 144, 226); stroke-opacity: 1; fill: rgb(74, 144, 226); fill-opacity: 0.24;"/></g><g class="composite-shape"><path class="real" d=" M544.97,176.97 C544.97,163.88 555.92,153.27 569.43,153.27 C582.94,153.27 593.89,163.88 593.89,176.97 C593.89,190.07 582.94,200.68 569.43,200.68 C555.92,200.68 544.97,190.07 544.97,176.97 Z" style="stroke-width: 4; stroke: rgb(74, 144, 226); stroke-opacity: 1; fill: rgb(74, 144, 226); fill-opacity: 0.24;"/></g><g class="composite-shape"><path class="real" d=" M493.88,227.88 C493.88,214.79 504.83,204.17 518.34,204.17 C531.85,204.17 542.8,214.79 542.8,227.88 C542.8,240.98 531.85,251.59 518.34,251.59 C504.83,251.59 493.88,240.98 493.88,227.88 Z" style="stroke-width: 4; stroke: rgb(74, 144, 226); stroke-opacity: 1; fill: rgb(74, 144, 226); fill-opacity: 0.24;"/></g><g class="composite-shape"><path class="real" d=" M544.97,227.88 C544.97,214.79 555.92,204.17 569.43,204.17 C582.94,204.17 593.89,214.79 593.89,227.88 C593.89,240.98 582.94,251.59 569.43,251.59 C555.92,251.59 544.97,240.98 544.97,227.88 Z" style="stroke-width: 4; stroke: rgb(74, 144, 226); stroke-opacity: 1; fill: rgb(74, 144, 226); fill-opacity: 0.24;"/></g></g><g class="grouped-shape"><g class="composite-shape"><path class="real" d=" M595.25,176.97 C595.25,163.88 606.2,153.27 619.7,153.27 C633.21,153.27 644.16,163.88 644.16,176.97 C644.16,190.07 633.21,200.68 619.7,200.68 C606.2,200.68 595.25,190.07 595.25,176.97 Z" style="stroke-width: 4; stroke: rgb(74, 144, 226); stroke-opacity: 1; fill: rgb(74, 144, 226); fill-opacity: 0.24;"/></g><g class="composite-shape"><path class="real" d=" M645.97,176.97 C645.97,163.88 656.92,153.27 670.43,153.27 C683.94,153.27 694.89,163.88 694.89,176.97 C694.89,190.07 683.94,200.68 670.43,200.68 C656.92,200.68 645.97,190.07 645.97,176.97 Z" style="stroke-width: 4; stroke: rgb(74, 144, 226); stroke-opacity: 1; fill: rgb(74, 144, 226); fill-opacity: 0.24;"/></g><g class="composite-shape"><path class="real" d=" M594.88,227.88 C594.88,214.79 605.83,204.17 619.34,204.17 C632.85,204.17 643.8,214.79 643.8,227.88 C643.8,240.98 632.85,251.59 619.34,251.59 C605.83,251.59 594.88,240.98 594.88,227.88 Z" style="stroke-width: 4; stroke: rgb(74, 144, 226); stroke-opacity: 1; fill: rgb(74, 144, 226); fill-opacity: 0.24;"/></g><g class="composite-shape"><path class="real" d=" M645.97,227.88 C645.97,214.79 656.92,204.17 670.43,204.17 C683.94,204.17 694.89,214.79 694.89,227.88 C694.89,240.98 683.94,251.59 670.43,251.59 C656.92,251.59 645.97,240.98 645.97,227.88 Z" style="stroke-width: 4; stroke: rgb(74, 144, 226); stroke-opacity: 1; fill: rgb(74, 144, 226); fill-opacity: 0.24;"/></g></g><g class="grouped-shape"><g class="composite-shape"><path class="real" d=" M394.25,277.97 C394.25,264.88 405.2,254.27 418.7,254.27 C432.21,254.27 443.16,264.88 443.16,277.97 C443.16,291.07 432.21,301.68 418.7,301.68 C405.2,301.68 394.25,291.07 394.25,277.97 Z" style="stroke-width: 4; stroke: rgb(208, 2, 27); stroke-opacity: 1; fill: rgb(255, 0, 0); fill-opacity: 0.21;"/></g><g class="composite-shape"><path class="real" d=" M444.97,277.97 C444.97,264.88 455.92,254.27 469.43,254.27 C482.94,254.27 493.89,264.88 493.89,277.97 C493.89,291.07 482.94,301.68 469.43,301.68 C455.92,301.68 444.97,291.07 444.97,277.97 Z" style="stroke-width: 4; stroke: rgb(208, 2, 27); stroke-opacity: 1; fill: rgb(255, 0, 0); fill-opacity: 0.21;"/></g><g class="composite-shape"><path class="real" d=" M393.88,328.88 C393.88,315.79 404.83,305.17 418.34,305.17 C431.85,305.17 442.8,315.79 442.8,328.88 C442.8,341.98 431.85,352.59 418.34,352.59 C404.83,352.59 393.88,341.98 393.88,328.88 Z" style="stroke-width: 4; stroke: rgb(208, 2, 27); stroke-opacity: 1; fill: rgb(255, 0, 0); fill-opacity: 0.21;"/></g><g class="composite-shape"><path class="real" d=" M444.97,328.88 C444.97,315.79 455.92,305.17 469.43,305.17 C482.94,305.17 493.89,315.79 493.89,328.88 C493.89,341.98 482.94,352.59 469.43,352.59 C455.92,352.59 444.97,341.98 444.97,328.88 Z" style="stroke-width: 4; stroke: rgb(208, 2, 27); stroke-opacity: 1; fill: rgb(255, 0, 0); fill-opacity: 0.21;"/></g></g><g class="composite-shape"><path class="real" d=" M494.06,278.97 C494.06,265.88 505.01,255.27 518.51,255.27 C532.02,255.27 542.97,265.88 542.97,278.97 C542.97,292.07 532.02,302.68 518.51,302.68 C505.01,302.68 494.06,292.07 494.06,278.97 Z" style="stroke-width: 4; stroke: rgb(208, 2, 27); stroke-opacity: 1; fill: rgb(255, 0, 0); fill-opacity: 0.21;"/></g><g class="composite-shape"><path class="real" d=" M543.97,278.97 C543.97,265.88 554.92,255.27 568.43,255.27 C581.94,255.27 592.89,265.88 592.89,278.97 C592.89,292.07 581.94,302.68 568.43,302.68 C554.92,302.68 543.97,292.07 543.97,278.97 Z" style="stroke-width: 4; stroke: rgb(208, 2, 27); stroke-opacity: 1; fill: rgb(255, 0, 0); fill-opacity: 0.21;"/></g><g class="composite-shape"><path class="real" d=" M495.05,329.88 C495.05,316.79 506,306.17 519.51,306.17 C533.02,306.17 543.97,316.79 543.97,329.88 C543.97,342.98 533.02,353.59 519.51,353.59 C506,353.59 495.05,342.98 495.05,329.88 Z" style="stroke-width: 4; stroke: rgb(208, 2, 27); stroke-opacity: 1; fill: rgb(255, 0, 0); fill-opacity: 0.61;"/></g><g class="composite-shape"><path class="real" d=" M543.97,329.88 C543.97,316.79 554.92,306.17 568.43,306.17 C581.93,306.17 592.88,316.79 592.88,329.88 C592.88,342.98 581.93,353.59 568.43,353.59 C554.92,353.59 543.97,342.98 543.97,329.88 Z" style="stroke-width: 4; stroke: rgb(208, 2, 27); stroke-opacity: 1; fill: rgb(255, 0, 0); fill-opacity: 0.21;"/></g><g class="grouped-shape"><g class="composite-shape"><path class="real" d=" M593.25,278.97 C593.25,265.88 604.2,255.27 617.7,255.27 C631.21,255.27 642.16,265.88 642.16,278.97 C642.16,292.07 631.21,302.68 617.7,302.68 C604.2,302.68 593.25,292.07 593.25,278.97 Z" style="stroke-width: 4; stroke: rgb(208, 2, 27); stroke-opacity: 1; fill: rgb(255, 0, 0); fill-opacity: 0.21;"/></g><g class="composite-shape"><path class="real" d=" M643.97,278.97 C643.97,265.88 654.92,255.27 668.43,255.27 C681.94,255.27 692.89,265.88 692.89,278.97 C692.89,292.07 681.94,302.68 668.43,302.68 C654.92,302.68 643.97,292.07 643.97,278.97 Z" style="stroke-width: 4; stroke: rgb(208, 2, 27); stroke-opacity: 1; fill: rgb(255, 0, 0); fill-opacity: 0.21;"/></g><g class="composite-shape"><path class="real" d=" M592.88,329.88 C592.88,316.79 603.83,306.17 617.34,306.17 C630.85,306.17 641.8,316.79 641.8,329.88 C641.8,342.98 630.85,353.59 617.34,353.59 C603.83,353.59 592.88,342.98 592.88,329.88 Z" style="stroke-width: 4; stroke: rgb(208, 2, 27); stroke-opacity: 1; fill: rgb(255, 0, 0); fill-opacity: 0.21;"/></g><g class="composite-shape"><path class="real" d=" M643.97,329.88 C643.97,316.79 654.92,306.17 668.43,306.17 C681.94,306.17 692.89,316.79 692.89,329.88 C692.89,342.98 681.94,353.59 668.43,353.59 C654.92,353.59 643.97,342.98 643.97,329.88 Z" style="stroke-width: 4; stroke: rgb(208, 2, 27); stroke-opacity: 1; fill: rgb(255, 0, 0); fill-opacity: 0.21;"/></g></g><g class="composite-shape"><path class="real" d=" M394.25,380.97 C394.25,367.88 405.2,357.27 418.7,357.27 C432.21,357.27 443.16,367.88 443.16,380.97 C443.16,394.07 432.21,404.68 418.7,404.68 C405.2,404.68 394.25,394.07 394.25,380.97 Z" style="stroke-width: 4; stroke: rgb(208, 2, 27); stroke-opacity: 1; fill: rgb(255, 0, 0); fill-opacity: 0.19;"/></g><g class="composite-shape"><path class="real" d=" M443.97,380.97 C443.97,367.88 454.92,357.27 468.43,357.27 C481.94,357.27 492.89,367.88 492.89,380.97 C492.89,394.07 481.94,404.68 468.43,404.68 C454.92,404.68 443.97,394.07 443.97,380.97 Z" style="stroke-width: 4; stroke: rgb(208, 2, 27); stroke-opacity: 1; fill: rgb(255, 0, 0); fill-opacity: 0.19;"/></g><g class="composite-shape"><path class="real" d=" M393.88,431.88 C393.88,418.79 404.83,408.17 418.34,408.17 C431.85,408.17 442.8,418.79 442.8,431.88 C442.8,444.98 431.85,455.59 418.34,455.59 C404.83,455.59 393.88,444.98 393.88,431.88 Z" style="stroke-width: 4; stroke: rgb(144, 19, 254); stroke-opacity: 1; fill: rgb(144, 19, 254); fill-opacity: 0.12;"/></g><g class="composite-shape"><path class="real" d=" M442.97,431.88 C442.97,418.79 453.92,408.17 467.43,408.17 C480.94,408.17 491.89,418.79 491.89,431.88 C491.89,444.98 480.94,455.59 467.43,455.59 C453.92,455.59 442.97,444.98 442.97,431.88 Z" style="stroke-width: 4; stroke: rgb(144, 19, 254); stroke-opacity: 1; fill: rgb(144, 19, 254); fill-opacity: 0.12;"/></g><g class="composite-shape"><path class="real" d=" M493.25,381.97 C493.25,368.88 504.2,358.27 517.7,358.27 C531.21,358.27 542.16,368.88 542.16,381.97 C542.16,395.07 531.21,405.68 517.7,405.68 C504.2,405.68 493.25,395.07 493.25,381.97 Z" style="stroke-width: 4; stroke: rgb(208, 2, 27); stroke-opacity: 1; fill: rgb(255, 0, 0); fill-opacity: 0.21;"/></g><g class="composite-shape"><path class="real" d=" M543.97,381.97 C543.97,368.88 554.92,358.27 568.43,358.27 C581.94,358.27 592.89,368.88 592.89,381.97 C592.89,395.07 581.94,405.68 568.43,405.68 C554.92,405.68 543.97,395.07 543.97,381.97 Z" style="stroke-width: 4; stroke: rgb(208, 2, 27); stroke-opacity: 1; fill: rgb(255, 0, 0); fill-opacity: 0.21;"/></g><g class="composite-shape"><path class="real" d=" M491.88,432.88 C491.88,419.79 502.83,409.17 516.34,409.17 C529.85,409.17 540.8,419.79 540.8,432.88 C540.8,445.98 529.85,456.59 516.34,456.59 C502.83,456.59 491.88,445.98 491.88,432.88 Z" style="stroke-width: 4; stroke: rgb(144, 19, 254); stroke-opacity: 1; fill: rgb(144, 19, 254); fill-opacity: 0.12;"/></g><g class="composite-shape"><path class="real" d=" M540.97,432.88 C540.97,419.79 551.92,409.17 565.43,409.17 C578.94,409.17 589.89,419.79 589.89,432.88 C589.89,445.98 578.94,456.59 565.43,456.59 C551.92,456.59 540.97,445.98 540.97,432.88 Z" style="stroke-width: 4; stroke: rgb(144, 19, 254); stroke-opacity: 1; fill: rgb(144, 19, 254); fill-opacity: 0.12;"/></g><g class="composite-shape"><path class="real" d=" M592.25,381.97 C592.25,368.88 603.2,358.27 616.7,358.27 C630.21,358.27 641.16,368.88 641.16,381.97 C641.16,395.07 630.21,405.68 616.7,405.68 C603.2,405.68 592.25,395.07 592.25,381.97 Z" style="stroke-width: 4; stroke: rgb(208, 2, 27); stroke-opacity: 1; fill: rgb(255, 0, 0); fill-opacity: 0.21;"/></g><g class="composite-shape"><path class="real" d=" M642.97,381.97 C642.97,368.88 653.92,358.27 667.43,358.27 C680.94,358.27 691.89,368.88 691.89,381.97 C691.89,395.07 680.94,405.68 667.43,405.68 C653.92,405.68 642.97,395.07 642.97,381.97 Z" style="stroke-width: 4; stroke: rgb(208, 2, 27); stroke-opacity: 1; fill: rgb(255, 0, 0); fill-opacity: 0.21;"/></g><g class="composite-shape"><path class="real" d=" M590.88,432.88 C590.88,419.79 601.83,409.17 615.34,409.17 C628.85,409.17 639.8,419.79 639.8,432.88 C639.8,445.98 628.85,456.59 615.34,456.59 C601.83,456.59 590.88,445.98 590.88,432.88 Z" style="stroke-width: 4; stroke: rgb(144, 19, 254); stroke-opacity: 1; fill: rgb(144, 19, 254); fill-opacity: 0.12;"/></g><g class="composite-shape"><path class="real" d=" M641.97,432.88 C641.97,419.79 652.92,409.17 666.43,409.17 C679.94,409.17 690.89,419.79 690.89,432.88 C690.89,445.98 679.94,456.59 666.43,456.59 C652.92,456.59 641.97,445.98 641.97,432.88 Z" style="stroke-width: 4; stroke: rgb(144, 19, 254); stroke-opacity: 1; fill: rgb(144, 19, 254); fill-opacity: 0.36;"/></g><g class="composite-shape"><path class="real" d=" M198.06,431.88 C198.06,418.79 209.01,408.17 222.51,408.17 C236.02,408.17 246.97,418.79 246.97,431.88 C246.97,444.98 236.02,455.59 222.51,455.59 C209.01,455.59 198.06,444.98 198.06,431.88 Z" style="stroke-width: 4; stroke: rgb(245, 166, 35); stroke-opacity: 1; fill: rgb(245, 166, 35); fill-opacity: 0.77;"/></g><g/></g><g/><g/><g/></svg>
        <svg xmlns="http://www.w3.org/2000/svg" xmlns:xlink="http://www.w3.org/1999/xlink" width="809" height="524.9375" style="width:809px;height:524.9375px;font-family:Asana-Math, Asana;background:transparent;"><g><g><g><g><g><g><g transform="matrix(1,0,0,1,160,496.19)"><path transform="matrix(0.03519,0,0,-0.03519,0,0)" d="M394 -12C554 -12 671 181 673 325C674 363 660 458 607 458C592 458 562 441 548 434L548 423C593 392 607 338 606 284C605 189 542 17 425 17C366 17 362 73 363 119C365 185 380 261 403 324L393 324C372 317 350 309 328 304C323 217 294 16 174 16C111 16 100 81 100 129C102 278 168 388 306 443L306 463C152 428 40 300 25 137C9 -29 213 -49 295 47C316 3 344 -12 394 -12Z" stroke="rgb(219,137,0)" stroke-opacity="1" stroke-width="0" fill="rgb(219,137,0)" fill-opacity="1"></path></g></g><g><g><g><g><g transform="matrix(1,0,0,1,186.203125,502.398625)"><path transform="matrix(0.024633,0,0,-0.024633,0,0)" d="M462 224C462 345 355 366 308 374C388 436 418 482 418 541C418 630 344 689 233 689C165 689 120 670 72 622L43 498L74 498L92 554C103 588 166 622 218 622C283 622 336 569 336 506C336 431 277 368 206 368C198 368 187 369 174 370L159 371L147 318L154 312C192 329 211 334 238 334C321 334 369 281 369 190C369 88 308 21 215 21C169 21 128 36 98 64C74 86 61 109 42 163L15 153C36 92 44 56 50 6C103 -12 147 -20 184 -20C307 -20 462 87 462 224Z" stroke="rgb(219,137,0)" stroke-opacity="1" stroke-width="0" fill="rgb(219,137,0)" fill-opacity="1"></path></g></g></g></g></g><g><g transform="matrix(1,0,0,1,200.609375,496.19)"><path transform="matrix(0.03519,0,0,-0.03519,0,0)" d="M204 123C177 114 159 108 106 93C99 17 74 -48 16 -144L30 -155L71 -136C152 -31 190 32 218 109Z" stroke="rgb(219,137,0)" stroke-opacity="1" stroke-width="0" fill="rgb(219,137,0)" fill-opacity="1"></path></g></g><g><g transform="matrix(1,0,0,1,216.40625,496.19)"><path transform="matrix(0.03519,0,0,-0.03519,0,0)" d="M154 473C89 473 51 426 18 377C18 371 27 368 30 365L30 366C54 394 74 412 111 412C206 412 215 290 214 220C212 136 203 53 186 -29C140 -86 92 -181 65 -249C69 -257 74 -265 77 -273C98 -268 119 -260 139 -251C165 -183 189 -106 203 -36C387 199 540 317 547 438C550 493 485 453 459 446L459 435C502 284 287 130 220 19L220 23C302 358 258 473 154 473Z" stroke="rgb(219,137,0)" stroke-opacity="1" stroke-width="0" fill="rgb(219,137,0)" fill-opacity="1"></path></g></g></g></g></g></g></g><g><g><g><g><g><g><g transform="matrix(1,0,0,1,369,34.19)"><path transform="matrix(0.03519,0,0,-0.03519,0,0)" d="M394 -12C554 -12 671 181 673 325C674 363 660 458 607 458C592 458 562 441 548 434L548 423C593 392 607 338 606 284C605 189 542 17 425 17C366 17 362 73 363 119C365 185 380 261 403 324L393 324C372 317 350 309 328 304C323 217 294 16 174 16C111 16 100 81 100 129C102 278 168 388 306 443L306 463C152 428 40 300 25 137C9 -29 213 -49 295 47C316 3 344 -12 394 -12Z" stroke="rgb(74,144,226)" stroke-opacity="1" stroke-width="0" fill="rgb(74,144,226)" fill-opacity="1"></path></g></g><g><g><g><g><g transform="matrix(1,0,0,1,395.203125,40.398624999999996)"><path transform="matrix(0.024633,0,0,-0.024633,0,0)" d="M418 -3L418 27L366 30C311 33 301 44 301 96L301 700L60 598L67 548L217 614L217 96C217 44 206 33 152 30L96 27L96 -3C250 0 250 0 261 0C292 0 402 -3 418 -3Z" stroke="rgb(74,144,226)" stroke-opacity="1" stroke-width="0" fill="rgb(74,144,226)" fill-opacity="1"></path></g></g></g></g></g><g><g transform="matrix(1,0,0,1,409.609375,34.19)"><path transform="matrix(0.03519,0,0,-0.03519,0,0)" d="M204 123C177 114 159 108 106 93C99 17 74 -48 16 -144L30 -155L71 -136C152 -31 190 32 218 109Z" stroke="rgb(74,144,226)" stroke-opacity="1" stroke-width="0" fill="rgb(74,144,226)" fill-opacity="1"></path></g></g><g><g transform="matrix(1,0,0,1,425.40625,34.19)"><path transform="matrix(0.03519,0,0,-0.03519,0,0)" d="M154 473C89 473 51 426 18 377C18 371 27 368 30 365L30 366C54 394 74 412 111 412C206 412 215 290 214 220C212 136 203 53 186 -29C140 -86 92 -181 65 -249C69 -257 74 -265 77 -273C98 -268 119 -260 139 -251C165 -183 189 -106 203 -36C387 199 540 317 547 438C550 493 485 453 459 446L459 435C502 284 287 130 220 19L220 23C302 358 258 473 154 473Z" stroke="rgb(74,144,226)" stroke-opacity="1" stroke-width="0" fill="rgb(74,144,226)" fill-opacity="1"></path></g></g></g></g></g></g></g><g><g><g><g><g><g><g transform="matrix(1,0,0,1,715,332.19)"><path transform="matrix(0.03519,0,0,-0.03519,0,0)" d="M394 -12C554 -12 671 181 673 325C674 363 660 458 607 458C592 458 562 441 548 434L548 423C593 392 607 338 606 284C605 189 542 17 425 17C366 17 362 73 363 119C365 185 380 261 403 324L393 324C372 317 350 309 328 304C323 217 294 16 174 16C111 16 100 81 100 129C102 278 168 388 306 443L306 463C152 428 40 300 25 137C9 -29 213 -49 295 47C316 3 344 -12 394 -12Z" stroke="rgb(214,0,0)" stroke-opacity="1" stroke-width="0" fill="rgb(214,0,0)" fill-opacity="1"></path></g></g><g><g><g><g><g transform="matrix(1,0,0,1,741.203125,338.398625)"><path transform="matrix(0.024633,0,0,-0.024633,0,0)" d="M16 23L16 -3C203 -3 203 0 239 0C275 0 275 -3 468 -3L468 82C353 77 307 81 122 77L304 270C401 373 431 428 431 503C431 618 353 689 226 689C154 689 105 669 56 619L39 483L68 483L81 529C97 587 133 612 200 612C286 612 341 558 341 473C341 398 299 324 186 204Z" stroke="rgb(214,0,0)" stroke-opacity="1" stroke-width="0" fill="rgb(214,0,0)" fill-opacity="1"></path></g></g></g></g></g><g><g transform="matrix(1,0,0,1,755.609375,332.19)"><path transform="matrix(0.03519,0,0,-0.03519,0,0)" d="M204 123C177 114 159 108 106 93C99 17 74 -48 16 -144L30 -155L71 -136C152 -31 190 32 218 109Z" stroke="rgb(214,0,0)" stroke-opacity="1" stroke-width="0" fill="rgb(214,0,0)" fill-opacity="1"></path></g></g><g><g transform="matrix(1,0,0,1,771.40625,332.19)"><path transform="matrix(0.03519,0,0,-0.03519,0,0)" d="M154 473C89 473 51 426 18 377C18 371 27 368 30 365L30 366C54 394 74 412 111 412C206 412 215 290 214 220C212 136 203 53 186 -29C140 -86 92 -181 65 -249C69 -257 74 -265 77 -273C98 -268 119 -260 139 -251C165 -183 189 -106 203 -36C387 199 540 317 547 438C550 493 485 453 459 446L459 435C502 284 287 130 220 19L220 23C302 358 258 473 154 473Z" stroke="rgb(214,0,0)" stroke-opacity="1" stroke-width="0" fill="rgb(214,0,0)" fill-opacity="1"></path></g></g></g></g></g></g></g><g><g><g><g><g><g><g transform="matrix(1,0,0,1,450,495.19)"><path transform="matrix(0.03519,0,0,-0.03519,0,0)" d="M394 -12C554 -12 671 181 673 325C674 363 660 458 607 458C592 458 562 441 548 434L548 423C593 392 607 338 606 284C605 189 542 17 425 17C366 17 362 73 363 119C365 185 380 261 403 324L393 324C372 317 350 309 328 304C323 217 294 16 174 16C111 16 100 81 100 129C102 278 168 388 306 443L306 463C152 428 40 300 25 137C9 -29 213 -49 295 47C316 3 344 -12 394 -12Z" stroke="rgb(144,19,254)" stroke-opacity="1" stroke-width="0" fill="rgb(144,19,254)" fill-opacity="1"></path></g></g><g><g><g><g><g transform="matrix(1,0,0,1,476.203125,501.398625)"><path transform="matrix(0.024633,0,0,-0.024633,0,0)" d="M280 181L280 106C280 46 269 32 220 30L158 27L158 -3C291 0 291 0 315 0C339 0 339 0 472 -3L472 27L424 30C375 33 364 46 364 106L364 181C423 181 444 180 472 177L472 248L364 245L365 697L285 667L2 204L2 181ZM280 245L65 245L280 597Z" stroke="rgb(144,19,254)" stroke-opacity="1" stroke-width="0" fill="rgb(144,19,254)" fill-opacity="1"></path></g></g></g></g></g><g><g transform="matrix(1,0,0,1,490.609375,495.19)"><path transform="matrix(0.03519,0,0,-0.03519,0,0)" d="M204 123C177 114 159 108 106 93C99 17 74 -48 16 -144L30 -155L71 -136C152 -31 190 32 218 109Z" stroke="rgb(144,19,254)" stroke-opacity="1" stroke-width="0" fill="rgb(144,19,254)" fill-opacity="1"></path></g></g><g><g transform="matrix(1,0,0,1,506.40625,495.19)"><path transform="matrix(0.03519,0,0,-0.03519,0,0)" d="M154 473C89 473 51 426 18 377C18 371 27 368 30 365L30 366C54 394 74 412 111 412C206 412 215 290 214 220C212 136 203 53 186 -29C140 -86 92 -181 65 -249C69 -257 74 -265 77 -273C98 -268 119 -260 139 -251C165 -183 189 -106 203 -36C387 199 540 317 547 438C550 493 485 453 459 446L459 435C502 284 287 130 220 19L220 23C302 358 258 473 154 473Z" stroke="rgb(144,19,254)" stroke-opacity="1" stroke-width="0" fill="rgb(144,19,254)" fill-opacity="1"></path></g></g></g></g></g></g></g><g><g><g><g><g><g><g transform="matrix(1,0,0,1,3,303.19)"><path transform="matrix(0.03519,0,0,-0.03519,0,0)" d="M394 -12C554 -12 671 181 673 325C674 363 660 458 607 458C592 458 562 441 548 434L548 423C593 392 607 338 606 284C605 189 542 17 425 17C366 17 362 73 363 119C365 185 380 261 403 324L393 324C372 317 350 309 328 304C323 217 294 16 174 16C111 16 100 81 100 129C102 278 168 388 306 443L306 463C152 428 40 300 25 137C9 -29 213 -49 295 47C316 3 344 -12 394 -12Z" stroke="rgb(104,192,8)" stroke-opacity="1" stroke-width="0" fill="rgb(104,192,8)" fill-opacity="1"></path></g></g><g><g><g><g><g transform="matrix(1,0,0,1,29.203125,309.398625)"><path transform="matrix(0.024633,0,0,-0.024633,0,0)" d="M459 253C459 366 378 446 264 446C216 446 180 443 127 396L127 605L432 604L432 689L75 690L75 322L95 316C142 363 169 377 218 377C314 377 374 309 374 201C374 90 310 25 201 25C147 25 97 43 83 69L37 151L13 137C36 80 48 48 62 4C90 -11 130 -20 173 -20C301 -20 459 89 459 253Z" stroke="rgb(104,192,8)" stroke-opacity="1" stroke-width="0" fill="rgb(104,192,8)" fill-opacity="1"></path></g></g></g></g></g><g><g transform="matrix(1,0,0,1,43.609375,303.19)"><path transform="matrix(0.03519,0,0,-0.03519,0,0)" d="M204 123C177 114 159 108 106 93C99 17 74 -48 16 -144L30 -155L71 -136C152 -31 190 32 218 109Z" stroke="rgb(104,192,8)" stroke-opacity="1" stroke-width="0" fill="rgb(104,192,8)" fill-opacity="1"></path></g></g><g><g transform="matrix(1,0,0,1,59.40625,303.19)"><path transform="matrix(0.03519,0,0,-0.03519,0,0)" d="M154 473C89 473 51 426 18 377C18 371 27 368 30 365L30 366C54 394 74 412 111 412C206 412 215 290 214 220C212 136 203 53 186 -29C140 -86 92 -181 65 -249C69 -257 74 -265 77 -273C98 -268 119 -260 139 -251C165 -183 189 -106 203 -36C387 199 540 317 547 438C550 493 485 453 459 446L459 435C502 284 287 130 220 19L220 23C302 358 258 473 154 473Z" stroke="rgb(104,192,8)" stroke-opacity="1" stroke-width="0" fill="rgb(104,192,8)" fill-opacity="1"></path></g></g></g></g></g></g></g><g><g><g><g transform="matrix(1,0,0,1,833,107.82)"><path transform="matrix(0.04482,0,0,-0.04482,0,0)" d="M94 0L184 0L184 315L485 315L485 376L184 376L184 627L216 626L448 626L472 625L527 625L527 691L94 691ZM650 0L725 0L725 445L650 445ZM643 590L733 590L733 679L643 679ZM888 0L966 0L966 240C966 314 991 394 1068 394C1166 394 1166 319 1166 281L1166 0L1244 0L1244 288C1244 358 1235 455 1107 455C1019 455 975 398 961 380L961 450L888 450ZM1360 221C1360 102 1430 -11 1532 -11C1598 -11 1646 19 1680 52L1680 0L1759 0L1759 722L1683 722L1683 401C1648 429 1601 456 1538 456C1439 456 1360 353 1360 221ZM1438 222C1438 353 1525 394 1583 394L1585 394C1596 394 1628 393 1659 364C1677 347 1680 341 1680 325L1680 134C1680 103 1633 51 1573 51C1519 51 1438 90 1438 222Z" stroke="rgb(0,0,0)" stroke-opacity="1" stroke-width="0" fill="rgb(0,0,0)" fill-opacity="1"></path></g></g><g><g><g><g><g transform="matrix(1,0,0,1,930.484375,107.79599999999999)"><path transform="matrix(0.050796,0,0,-0.050796,0,0)" d="M477 677C671 677 703 544 673 374C649 233 576 89 413 68L401 0C504 -2 609 -2 711 -6C723 44 736 95 752 145L752 148L733 148L733 145C711 92 708 75 648 75L520 75C664 131 758 253 784 398C822 614 681 704 482 704C281 704 99 621 60 398C34 254 86 131 210 75L81 75C20 75 22 95 18 148L-2 148C-4 97 -7 45 -11 -6C93 -2 197 -3 300 0L312 68C155 89 136 235 161 377C192 552 287 677 477 677Z" stroke="rgb(0,0,0)" stroke-opacity="1" stroke-width="0" fill="rgb(0,0,0)" fill-opacity="1"></path></g></g><g><g><g><g><g transform="matrix(1,0,0,1,973.859375,117.760325)"><path transform="matrix(0.035557200000000004,0,0,-0.035557200000000004,0,0)" d="M543 227C543 337 459 353 377 365C434 385 459 397 490 425C536 464 559 511 559 562C559 644 501 692 401 692C399 692 389 692 374 691L311 690C299 689 263 689 251 689C232 689 201 690 152 691L100 692L97 664L150 662C174 661 185 653 185 635C185 621 181 589 176 559L89 55C85 37 73 30 31 23L26 -3L63 -2C90 0 105 0 117 0C128 0 154 -1 180 -2L217 -3L237 -4C256 -5 269 -6 277 -6C392 -6 543 87 543 227ZM166 41L217 340L302 340C405 340 455 298 455 211C455 108 382 34 282 34C228 34 207 38 166 41ZM352 655C433 655 473 619 473 544C473 439 399 376 275 376L223 376L272 650C288 650 329 655 352 655Z" stroke="rgb(0,0,0)" stroke-opacity="1" stroke-width="0" fill="rgb(0,0,0)" fill-opacity="1"></path></g></g></g></g></g><g><g transform="matrix(1,0,0,1,998.59375,107.79599999999999)"><path transform="matrix(0.050796,0,0,-0.050796,0,0)" d="" stroke="rgb(0,0,0)" stroke-opacity="1" stroke-width="0" fill="rgb(0,0,0)" fill-opacity="1"></path></g></g><g><g transform="matrix(1,0,0,1,1026.484375,107.79599999999999)"><path transform="matrix(0.050796,0,0,-0.050796,0,0)" d="M615 8L615 61L309 61C207 61 107 153 107 271C107 382 195 480 309 480L615 480L615 533L314 533C167 533 55 411 55 271C55 131 167 8 314 8Z" stroke="rgb(0,0,0)" stroke-opacity="1" stroke-width="0" fill="rgb(0,0,0)" fill-opacity="1"></path></g></g><g><g transform="matrix(1,0,0,1,1075.65625,107.79599999999999)"><path transform="matrix(0.050796,0,0,-0.050796,0,0)" d="M726 677C920 677 952 544 922 374C898 233 825 89 662 68L650 0C753 -2 858 -2 960 -6C972 44 985 95 1001 145L1001 148L982 148L982 145C960 92 957 75 897 75L769 75C913 131 1007 253 1033 398C1071 614 930 704 731 704C530 704 348 621 309 398C283 254 335 131 459 75L330 75C269 75 271 95 267 148L247 148C245 97 242 45 238 -6C342 -2 446 -3 549 0L561 68C404 89 385 235 410 377C441 552 536 677 726 677Z" stroke="rgb(0,0,0)" stroke-opacity="1" stroke-width="0" fill="rgb(0,0,0)" fill-opacity="1"></path></g></g><g><g><g><g><g transform="matrix(1,0,0,1,1131.671875,116.760325)"><path transform="matrix(0.035557200000000004,0,0,-0.035557200000000004,0,0)" d="M345 437L329 437L350 549C366 635 394 673 440 673C470 673 497 658 512 634L522 638C527 654 537 685 545 705L550 720C534 727 503 733 480 733C469 733 453 730 445 726C421 715 339 654 316 630C294 608 282 578 271 521L256 442C215 422 195 414 170 405L165 383L246 383L237 327C207 132 170 -54 148 -123C130 -182 100 -213 64 -213C41 -213 30 -206 12 -184L-2 -188C-6 -211 -20 -259 -25 -268C-16 -273 -1 -276 10 -276C51 -276 105 -245 144 -198C215 -114 235 -18 319 383L423 383C427 402 434 425 440 439L436 446C407 439 408 437 345 437ZM584 388L591 368L623 389C660 412 663 414 670 414C680 414 688 404 688 391C688 384 684 361 680 347L614 107C606 76 601 49 601 30C601 6 612 -9 631 -9C657 -9 693 12 791 85L781 103L755 86C726 67 703 56 694 56C687 56 681 66 681 76C681 86 683 95 688 116L765 420C769 437 771 448 771 456C771 473 762 482 746 482C724 482 687 461 612 408ZM778 712C749 712 720 679 720 645C720 620 735 604 759 604C790 604 814 633 814 671C814 695 799 712 778 712ZM851 388L858 368L890 389C927 412 930 414 937 414C948 414 955 404 955 389C955 338 914 145 873 2L880 -9C905 -2 928 4 950 8C969 134 990 199 1036 268C1090 352 1165 414 1210 414C1221 414 1227 405 1227 390C1227 372 1224 351 1216 319L1164 107C1155 70 1151 47 1151 31C1151 6 1162 -9 1181 -9C1207 -9 1243 12 1341 85L1331 103L1305 86C1276 67 1254 56 1244 56C1237 56 1231 65 1231 76C1231 81 1232 92 1233 96L1299 372C1306 401 1310 429 1310 446C1310 469 1299 482 1279 482C1237 482 1168 444 1109 389C1071 354 1043 320 991 247L1029 408C1033 426 1035 438 1035 449C1035 470 1027 482 1012 482C991 482 952 460 879 408ZM1416 388L1423 368L1455 389C1492 412 1495 414 1502 414C1512 414 1520 404 1520 391C1520 384 1516 361 1512 347L1446 107C1438 76 1433 49 1433 30C1433 6 1444 -9 1463 -9C1489 -9 1525 12 1623 85L1613 103L1587 86C1558 67 1535 56 1526 56C1519 56 1513 66 1513 76C1513 86 1515 95 1520 116L1597 420C1601 437 1603 448 1603 456C1603 473 1594 482 1578 482C1556 482 1519 461 1444 408ZM1610 712C1581 712 1552 679 1552 645C1552 620 1567 604 1591 604C1622 604 1646 633 1646 671C1646 695 1631 712 1610 712ZM1784 390L1728 107C1727 99 1715 61 1715 31C1715 6 1726 -9 1745 -9C1780 -9 1815 11 1893 74L1924 99L1914 117L1869 86C1840 66 1820 56 1809 56C1800 56 1795 64 1795 76C1795 102 1809 183 1838 328L1851 390L1958 390L1969 440C1931 436 1897 434 1859 434C1875 528 1886 577 1904 631L1893 646C1873 634 1846 622 1815 610L1790 440C1746 419 1720 408 1702 403L1700 390ZM2319 111L2295 94C2242 56 2194 36 2158 36C2111 36 2082 73 2082 133C2082 158 2085 185 2090 214C2107 218 2216 248 2241 259C2326 296 2365 342 2365 404C2365 451 2331 482 2281 482C2213 496 2103 423 2066 349C2036 299 2006 180 2006 113C2006 35 2050 -11 2122 -11C2179 -11 2235 17 2327 92ZM2104 274C2121 343 2141 386 2170 412C2188 428 2219 440 2243 440C2272 440 2291 420 2291 388C2291 344 2256 297 2204 272C2176 258 2140 247 2095 237Z" stroke="rgb(0,0,0)" stroke-opacity="1" stroke-width="0" fill="rgb(0,0,0)" fill-opacity="1"></path></g></g></g></g></g></g></g></g><g><g transform="matrix(1,0,0,1,1219.296875,107.82)"><path transform="matrix(0.04482,0,0,-0.04482,0,0)" d="M96 0L122 0L96 -125L138 -125L179 0L180 14L180 84L96 84Z" stroke="rgb(0,0,0)" stroke-opacity="1" stroke-width="0" fill="rgb(0,0,0)" fill-opacity="1"></path></g></g><g><g><g><g><g transform="matrix(1,0,0,1,1246.6875,107.79599999999999)"><path transform="matrix(0.050796,0,0,-0.050796,0,0)" d="M592 697L480 697L371 401L180 401L71 697L26 697L294 -15L311 -15ZM355 359L275 145L196 359Z" stroke="rgb(0,0,0)" stroke-opacity="1" stroke-width="0" fill="rgb(0,0,0)" fill-opacity="1"></path></g></g><g><g transform="matrix(1,0,0,1,1278.03125,107.79599999999999)"><path transform="matrix(0.050796,0,0,-0.050796,0,0)" d="M394 -12C554 -12 671 181 673 325C674 363 660 458 607 458C592 458 562 441 548 434L548 423C593 392 607 338 606 284C605 189 542 17 425 17C366 17 362 73 363 119C365 185 380 261 403 324L393 324C372 317 350 309 328 304C323 217 294 16 174 16C111 16 100 81 100 129C102 278 168 388 306 443L306 463C152 428 40 300 25 137C9 -29 213 -49 295 47C316 3 344 -12 394 -12Z" stroke="rgb(22,164,137)" stroke-opacity="1" stroke-width="0" fill="rgb(22,164,137)" fill-opacity="1"></path></g></g><g><g transform="matrix(1,0,0,1,1329.59375,107.79599999999999)"><path transform="matrix(0.050796,0,0,-0.050796,0,0)" d="M509 8L509 61L309 61C215 61 122 139 109 244L492 244L492 297L109 297C121 397 204 480 309 480L509 480L509 533L314 533C167 533 55 411 55 271C55 131 167 8 314 8Z" stroke="rgb(0,0,0)" stroke-opacity="1" stroke-width="0" fill="rgb(0,0,0)" fill-opacity="1"></path></g></g><g><g transform="matrix(1,0,0,1,1373.4375,107.79599999999999)"><path transform="matrix(0.050796,0,0,-0.050796,0,0)" d="M726 677C920 677 952 544 922 374C898 233 825 89 662 68L650 0C753 -2 858 -2 960 -6C972 44 985 95 1001 145L1001 148L982 148L982 145C960 92 957 75 897 75L769 75C913 131 1007 253 1033 398C1071 614 930 704 731 704C530 704 348 621 309 398C283 254 335 131 459 75L330 75C269 75 271 95 267 148L247 148C245 97 242 45 238 -6C342 -2 446 -3 549 0L561 68C404 89 385 235 410 377C441 552 536 677 726 677Z" stroke="rgb(0,0,0)" stroke-opacity="1" stroke-width="0" fill="rgb(0,0,0)" fill-opacity="1"></path></g></g><g><g><g><g><g transform="matrix(1,0,0,1,1429.453125,116.760325)"><path transform="matrix(0.035557200000000004,0,0,-0.035557200000000004,0,0)" d="M345 437L329 437L350 549C366 635 394 673 440 673C470 673 497 658 512 634L522 638C527 654 537 685 545 705L550 720C534 727 503 733 480 733C469 733 453 730 445 726C421 715 339 654 316 630C294 608 282 578 271 521L256 442C215 422 195 414 170 405L165 383L246 383L237 327C207 132 170 -54 148 -123C130 -182 100 -213 64 -213C41 -213 30 -206 12 -184L-2 -188C-6 -211 -20 -259 -25 -268C-16 -273 -1 -276 10 -276C51 -276 105 -245 144 -198C215 -114 235 -18 319 383L423 383C427 402 434 425 440 439L436 446C407 439 408 437 345 437ZM584 388L591 368L623 389C660 412 663 414 670 414C680 414 688 404 688 391C688 384 684 361 680 347L614 107C606 76 601 49 601 30C601 6 612 -9 631 -9C657 -9 693 12 791 85L781 103L755 86C726 67 703 56 694 56C687 56 681 66 681 76C681 86 683 95 688 116L765 420C769 437 771 448 771 456C771 473 762 482 746 482C724 482 687 461 612 408ZM778 712C749 712 720 679 720 645C720 620 735 604 759 604C790 604 814 633 814 671C814 695 799 712 778 712ZM851 388L858 368L890 389C927 412 930 414 937 414C948 414 955 404 955 389C955 338 914 145 873 2L880 -9C905 -2 928 4 950 8C969 134 990 199 1036 268C1090 352 1165 414 1210 414C1221 414 1227 405 1227 390C1227 372 1224 351 1216 319L1164 107C1155 70 1151 47 1151 31C1151 6 1162 -9 1181 -9C1207 -9 1243 12 1341 85L1331 103L1305 86C1276 67 1254 56 1244 56C1237 56 1231 65 1231 76C1231 81 1232 92 1233 96L1299 372C1306 401 1310 429 1310 446C1310 469 1299 482 1279 482C1237 482 1168 444 1109 389C1071 354 1043 320 991 247L1029 408C1033 426 1035 438 1035 449C1035 470 1027 482 1012 482C991 482 952 460 879 408ZM1416 388L1423 368L1455 389C1492 412 1495 414 1502 414C1512 414 1520 404 1520 391C1520 384 1516 361 1512 347L1446 107C1438 76 1433 49 1433 30C1433 6 1444 -9 1463 -9C1489 -9 1525 12 1623 85L1613 103L1587 86C1558 67 1535 56 1526 56C1519 56 1513 66 1513 76C1513 86 1515 95 1520 116L1597 420C1601 437 1603 448 1603 456C1603 473 1594 482 1578 482C1556 482 1519 461 1444 408ZM1610 712C1581 712 1552 679 1552 645C1552 620 1567 604 1591 604C1622 604 1646 633 1646 671C1646 695 1631 712 1610 712ZM1784 390L1728 107C1727 99 1715 61 1715 31C1715 6 1726 -9 1745 -9C1780 -9 1815 11 1893 74L1924 99L1914 117L1869 86C1840 66 1820 56 1809 56C1800 56 1795 64 1795 76C1795 102 1809 183 1838 328L1851 390L1958 390L1969 440C1931 436 1897 434 1859 434C1875 528 1886 577 1904 631L1893 646C1873 634 1846 622 1815 610L1790 440C1746 419 1720 408 1702 403L1700 390ZM2319 111L2295 94C2242 56 2194 36 2158 36C2111 36 2082 73 2082 133C2082 158 2085 185 2090 214C2107 218 2216 248 2241 259C2326 296 2365 342 2365 404C2365 451 2331 482 2281 482C2213 496 2103 423 2066 349C2036 299 2006 180 2006 113C2006 35 2050 -11 2122 -11C2179 -11 2235 17 2327 92ZM2104 274C2121 343 2141 386 2170 412C2188 428 2219 440 2243 440C2272 440 2291 420 2291 388C2291 344 2256 297 2204 272C2176 258 2140 247 2095 237Z" stroke="rgb(0,0,0)" stroke-opacity="1" stroke-width="0" fill="rgb(0,0,0)" fill-opacity="1"></path></g></g></g></g></g><g><g transform="matrix(1,0,0,1,1517.078125,107.79599999999999)"><path transform="matrix(0.050796,0,0,-0.050796,0,0)" d="M204 123C177 114 159 108 106 93C99 17 74 -48 16 -144L30 -155L71 -136C152 -31 190 32 218 109Z" stroke="rgb(0,0,0)" stroke-opacity="1" stroke-width="0" fill="rgb(0,0,0)" fill-opacity="1"></path></g></g><g><g transform="matrix(1,0,0,1,1539.890625,107.79599999999999)"><path transform="matrix(0.050796,0,0,-0.050796,0,0)" d="" stroke="rgb(0,0,0)" stroke-opacity="1" stroke-width="0" fill="rgb(0,0,0)" fill-opacity="1"></path></g></g><g><g transform="matrix(1,0,0,1,1552.546875,107.79599999999999)"><path transform="matrix(0.050796,0,0,-0.050796,0,0)" d="M572 0L572 697L57 697L57 658L421 658C448 658 468 642 468 616L468 384L136 384L136 345L468 345L468 92C468 55 453 39 434 39L46 39L46 0Z" stroke="rgb(0,0,0)" stroke-opacity="1" stroke-width="0" fill="rgb(0,0,0)" fill-opacity="1"></path></g></g><g><g transform="matrix(1,0,0,1,1583.890625,107.79599999999999)"><path transform="matrix(0.050796,0,0,-0.050796,0,0)" d="M394 -12C554 -12 671 181 673 325C674 363 660 458 607 458C592 458 562 441 548 434L548 423C593 392 607 338 606 284C605 189 542 17 425 17C366 17 362 73 363 119C365 185 380 261 403 324L393 324C372 317 350 309 328 304C323 217 294 16 174 16C111 16 100 81 100 129C102 278 168 388 306 443L306 463C152 428 40 300 25 137C9 -29 213 -49 295 47C316 3 344 -12 394 -12Z" stroke="rgb(0,79,175)" stroke-opacity="1" stroke-width="0" fill="rgb(0,79,175)" fill-opacity="1"></path></g></g><g><g><g><g><g transform="matrix(1,0,0,1,1621.734375,117.760325)"><path transform="matrix(0.035557200000000004,0,0,-0.035557200000000004,0,0)" d="M235 722L223 733C171 707 135 698 63 691L59 670L107 670C131 670 141 663 141 646C141 639 140 628 139 622L38 71C37 68 37 64 37 61C37 22 85 -11 140 -11C177 -11 228 8 271 39C367 107 433 244 433 376C433 414 424 453 412 468C405 477 392 482 377 482C353 482 323 474 295 460C244 433 211 403 149 324ZM322 424C348 424 361 401 361 352C361 288 340 202 310 137C277 68 237 36 183 36C137 36 112 59 112 101C112 135 127 276 208 361C241 395 293 424 322 424Z" stroke="rgb(0,79,175)" stroke-opacity="1" stroke-width="0" fill="rgb(0,79,175)" fill-opacity="1"></path></g></g></g></g></g><g><g transform="matrix(1,0,0,1,1641.21875,107.79599999999999)"><path transform="matrix(0.050796,0,0,-0.050796,0,0)" d="" stroke="rgb(0,0,0)" stroke-opacity="1" stroke-width="0" fill="rgb(0,0,0)" fill-opacity="1"></path></g></g><g><g transform="matrix(1,0,0,1,1669.109375,107.79599999999999)"><path transform="matrix(0.050796,0,0,-0.050796,0,0)" d="M509 8L509 61L309 61C215 61 122 139 109 244L492 244L492 297L109 297C121 397 204 480 309 480L509 480L509 533L314 533C167 533 55 411 55 271C55 131 167 8 314 8Z" stroke="rgb(0,0,0)" stroke-opacity="1" stroke-width="0" fill="rgb(0,0,0)" fill-opacity="1"></path></g></g><g><g transform="matrix(1,0,0,1,1712.953125,107.79599999999999)"><path transform="matrix(0.050796,0,0,-0.050796,0,0)" d="M726 677C920 677 952 544 922 374C898 233 825 89 662 68L650 0C753 -2 858 -2 960 -6C972 44 985 95 1001 145L1001 148L982 148L982 145C960 92 957 75 897 75L769 75C913 131 1007 253 1033 398C1071 614 930 704 731 704C530 704 348 621 309 398C283 254 335 131 459 75L330 75C269 75 271 95 267 148L247 148C245 97 242 45 238 -6C342 -2 446 -3 549 0L561 68C404 89 385 235 410 377C441 552 536 677 726 677Z" stroke="rgb(0,0,0)" stroke-opacity="1" stroke-width="0" fill="rgb(0,0,0)" fill-opacity="1"></path></g></g><g><g><g><g><g transform="matrix(1,0,0,1,1768.96875,117.760325)"><path transform="matrix(0.035557200000000004,0,0,-0.035557200000000004,0,0)" d="M543 227C543 337 459 353 377 365C434 385 459 397 490 425C536 464 559 511 559 562C559 644 501 692 401 692C399 692 389 692 374 691L311 690C299 689 263 689 251 689C232 689 201 690 152 691L100 692L97 664L150 662C174 661 185 653 185 635C185 621 181 589 176 559L89 55C85 37 73 30 31 23L26 -3L63 -2C90 0 105 0 117 0C128 0 154 -1 180 -2L217 -3L237 -4C256 -5 269 -6 277 -6C392 -6 543 87 543 227ZM166 41L217 340L302 340C405 340 455 298 455 211C455 108 382 34 282 34C228 34 207 38 166 41ZM352 655C433 655 473 619 473 544C473 439 399 376 275 376L223 376L272 650C288 650 329 655 352 655Z" stroke="rgb(0,0,0)" stroke-opacity="1" stroke-width="0" fill="rgb(0,0,0)" fill-opacity="1"></path></g></g></g></g></g><g><g transform="matrix(1,0,0,1,1803.859375,107.79599999999999)"><path transform="matrix(0.050796,0,0,-0.050796,0,0)" d="M297 714L242 714L-37 -169L18 -169Z" stroke="rgb(0,0,0)" stroke-opacity="1" stroke-width="0" fill="rgb(0,0,0)" fill-opacity="1"></path></g></g><g><g transform="matrix(1,0,0,1,1828.546875,107.79599999999999)"><path transform="matrix(0.050796,0,0,-0.050796,0,0)" d="" stroke="rgb(0,0,0)" stroke-opacity="1" stroke-width="0" fill="rgb(0,0,0)" fill-opacity="1"></path></g></g><g><g transform="matrix(1,0,0,1,1841.203125,107.79599999999999)"><path transform="matrix(0.050796,0,0,-0.050796,0,0)" d="M734 48C728 43 721 40 713 40C649 40 516 282 470 339C553 357 648 416 648 509C648 520 646 533 643 545C612 670 449 691 354 691C287 691 225 676 169 651C104 622 26 546 26 460C26 412 112 338 153 338C158 338 161 339 165 341C128 369 111 421 111 473C111 585 204 656 314 657C277 640 246 613 231 575C220 548 218 485 218 411C218 377 219 339 219 302C219 146 212 -14 146 -14L145 -14C154 -21 162 -22 171 -22C214 -22 265 17 284 49C304 82 307 177 307 253C307 286 306 315 306 335L363 328C421 276 580 -19 632 -19C665 -19 737 12 734 48ZM544 517C544 430 449 364 365 364C346 364 326 368 306 376C306 387 305 409 305 436C305 521 311 657 347 657C421 657 544 622 544 517Z" stroke="rgb(0,0,0)" stroke-opacity="1" stroke-width="0" fill="rgb(0,0,0)" fill-opacity="1"></path></g></g><g><g><g><g><g transform="matrix(1,0,0,1,1881.015625,116.760325)"><path transform="matrix(0.035557200000000004,0,0,-0.035557200000000004,0,0)" d="M394 -12C554 -12 671 181 673 325C674 363 660 458 607 458C592 458 562 441 548 434L548 423C593 392 607 338 606 284C605 189 542 17 425 17C366 17 362 73 363 119C365 185 380 261 403 324L393 324C372 317 350 309 328 304C323 217 294 16 174 16C111 16 100 81 100 129C102 278 168 388 306 443L306 463C152 428 40 300 25 137C9 -29 213 -49 295 47C316 3 344 -12 394 -12Z" stroke="rgb(0,79,175)" stroke-opacity="1" stroke-width="0" fill="rgb(0,79,175)" fill-opacity="1"></path></g></g><g><g><g><g><g transform="matrix(1,0,0,1,1907.5,124.030625)"><path transform="matrix(0.02489,0,0,-0.02489,0,0)" d="M235 722L223 733C171 707 135 698 63 691L59 670L107 670C131 670 141 663 141 646C141 639 140 628 139 622L38 71C37 68 37 64 37 61C37 22 85 -11 140 -11C177 -11 228 8 271 39C367 107 433 244 433 376C433 414 424 453 412 468C405 477 392 482 377 482C353 482 323 474 295 460C244 433 211 403 149 324ZM322 424C348 424 361 401 361 352C361 288 340 202 310 137C277 68 237 36 183 36C137 36 112 59 112 101C112 135 127 276 208 361C241 395 293 424 322 424Z" stroke="rgb(0,79,175)" stroke-opacity="1" stroke-width="0" fill="rgb(0,79,175)" fill-opacity="1"></path></g></g></g></g></g><g><g transform="matrix(1,0,0,1,1921.125,116.760325)"><path transform="matrix(0.035557200000000004,0,0,-0.035557200000000004,0,0)" d="M204 123C177 114 159 108 106 93C99 17 74 -48 16 -144L30 -155L71 -136C152 -31 190 32 218 109Z" stroke="rgb(0,0,0)" stroke-opacity="1" stroke-width="0" fill="rgb(0,0,0)" fill-opacity="1"></path></g></g><g><g transform="matrix(1,0,0,1,1929.984375,116.760325)"><path transform="matrix(0.035557200000000004,0,0,-0.035557200000000004,0,0)" d="M394 -12C554 -12 671 181 673 325C674 363 660 458 607 458C592 458 562 441 548 434L548 423C593 392 607 338 606 284C605 189 542 17 425 17C366 17 362 73 363 119C365 185 380 261 403 324L393 324C372 317 350 309 328 304C323 217 294 16 174 16C111 16 100 81 100 129C102 278 168 388 306 443L306 463C152 428 40 300 25 137C9 -29 213 -49 295 47C316 3 344 -12 394 -12Z" stroke="rgb(22,164,137)" stroke-opacity="1" stroke-width="0" fill="rgb(22,164,137)" fill-opacity="1"></path></g></g></g></g></g><g><g transform="matrix(1,0,0,1,1958.453125,107.79599999999999)"><path transform="matrix(0.050796,0,0,-0.050796,0,0)" d="" stroke="rgb(0,0,0)" stroke-opacity="1" stroke-width="0" fill="rgb(0,0,0)" fill-opacity="1"></path></g></g><g><g transform="matrix(1,0,0,1,1986.34375,107.79599999999999)"><path transform="matrix(0.050796,0,0,-0.050796,0,0)" d="M604 0L604 59L166 264L604 469L604 528L65 273L65 252Z" stroke="rgb(0,0,0)" stroke-opacity="1" stroke-width="0" fill="rgb(0,0,0)" fill-opacity="1"></path></g></g><g><g transform="matrix(1,0,0,1,2035.515625,107.79599999999999)"><path transform="matrix(0.050796,0,0,-0.050796,0,0)" d="M581 222C591 251 597 268 596 263C517 261 440 262 362 262C381 349 436 438 536 438C596 438 618 420 645 369L665 369L706 422C531 592 262 361 262 155C262 42 328 -11 435 -11C512 -11 576 47 635 92L635 111C588 78 532 39 473 39C399 39 338 126 354 220C366 219 554 222 581 222Z" stroke="rgb(0,0,0)" stroke-opacity="1" stroke-width="0" fill="rgb(0,0,0)" fill-opacity="1"></path></g></g></g></g></g></g><g></g><g><g><g transform="matrix(1,0,0,1,1190.25,222.63125)"><path transform="matrix(0.03735,0,0,-0.03735,0,0)" d="M35 623L177 623L295 624L295 0L384 0L384 624L501 623L643 623L643 689L35 689ZM760 0L838 0L838 240C838 314 863 394 940 394C1038 394 1038 319 1038 281L1038 0L1116 0L1116 288C1116 349 1112 455 979 455C910 455 867 422 835 384L835 722L760 722ZM1278 0L1353 0L1353 445L1278 445ZM1271 590L1361 590L1361 679L1271 679ZM1463 34C1538 -7 1599 -11 1633 -11C1767 -11 1796 72 1796 127C1796 192 1750 234 1709 252C1647 280 1540 267 1540 340C1540 365 1555 401 1624 401C1696 401 1728 383 1768 364L1779 430C1724 453 1689 461 1633 461C1497 461 1469 382 1469 329C1469 259 1529 220 1573 206C1604 196 1647 191 1669 184C1689 178 1725 158 1725 120C1725 93 1707 52 1632 52C1551 52 1503 86 1475 102ZM2233 0L2308 0L2308 445L2233 445ZM2226 590L2316 590L2316 679L2226 679ZM2418 34C2493 -7 2554 -11 2588 -11C2722 -11 2751 72 2751 127C2751 192 2705 234 2664 252C2602 280 2495 267 2495 340C2495 365 2510 401 2579 401C2651 401 2683 383 2723 364L2734 430C2679 453 2644 461 2588 461C2452 461 2424 382 2424 329C2424 259 2484 220 2528 206C2559 196 2602 191 2624 184C2644 178 2680 158 2680 120C2680 93 2662 52 2587 52C2506 52 2458 86 2430 102ZM3125 386L3209 386L3209 117C3209 7 3258 -11 3291 -11C3336 -11 3387 -1 3439 27L3423 86C3409 76 3378 53 3335 53C3283 53 3281 112 3281 140L3281 386L3422 386L3422 445L3281 445L3281 571L3211 571L3211 445L3125 445ZM3548 0L3626 0L3626 240C3626 314 3651 394 3728 394C3826 394 3826 319 3826 281L3826 0L3904 0L3904 288C3904 349 3900 455 3767 455C3698 455 3655 422 3623 384L3623 722L3548 722ZM4019 226C4019 102 4106 -11 4237 -11C4300 -11 4352 11 4395 40L4389 106C4345 74 4300 51 4237 51C4161 51 4093 117 4089 220L4399 220L4399 249C4390 420 4292 461 4221 461C4115 461 4019 360 4019 226ZM4094 275C4105 324 4145 399 4221 399C4250 399 4325 386 4342 275ZM4789 34C4864 -7 4925 -11 4959 -11C5093 -11 5122 72 5122 127C5122 192 5076 234 5035 252C4973 280 4866 267 4866 340C4866 365 4881 401 4950 401C5022 401 5054 383 5094 364L5105 430C5050 453 5015 461 4959 461C4823 461 4795 382 4795 329C4795 259 4855 220 4899 206C4930 196 4973 191 4995 184C5015 178 5051 158 5051 120C5051 93 5033 52 4958 52C4877 52 4829 86 4801 102ZM5179 226C5179 102 5266 -11 5397 -11C5460 -11 5512 11 5555 40L5549 106C5505 74 5460 51 5397 51C5321 51 5253 117 5249 220L5559 220L5559 249C5550 420 5452 461 5381 461C5275 461 5179 360 5179 226ZM5254 275C5265 324 5305 399 5381 399C5410 399 5485 386 5502 275ZM5607 386L5691 386L5691 117C5691 7 5740 -11 5773 -11C5818 -11 5869 -1 5921 27L5905 86C5891 76 5860 53 5817 53C5765 53 5763 112 5763 140L5763 386L5904 386L5904 445L5763 445L5763 571L5693 571L5693 445L5607 445ZM6318 223C6318 95 6412 -11 6535 -11C6604 -11 6653 11 6698 40L6693 107C6661 85 6614 53 6536 53C6452 53 6396 126 6396 223C6396 310 6440 397 6537 397C6616 397 6642 376 6681 351L6693 417C6632 452 6600 461 6538 461C6398 461 6318 339 6318 223ZM6757 221C6757 85 6862 -11 6976 -11C7090 -11 7196 84 7196 220C7196 345 7104 461 6976 461C6858 461 6757 357 6757 221ZM6835 231C6835 352 6912 399 6976 399C7040 399 7117 353 7117 231C7117 106 7043 53 6976 53C6910 53 6835 105 6835 231ZM7241 445L7413 0L7501 0L7673 445L7599 445C7502 193 7465 90 7459 50C7454 81 7448 97 7411 201L7318 445ZM7722 226C7722 102 7809 -11 7940 -11C8003 -11 8055 11 8098 40L8092 106C8048 74 8003 51 7940 51C7864 51 7796 117 7792 220L8102 220L8102 249C8093 420 7995 461 7924 461C7818 461 7722 360 7722 226ZM7797 275C7808 324 7848 399 7924 399C7953 399 8028 386 8045 275ZM8213 0L8288 0L8288 206C8288 352 8399 386 8458 388L8458 455C8352 453 8299 385 8283 360L8283 450L8213 450ZM8555 0L8630 0L8630 445L8555 445ZM8548 590L8638 590L8638 679L8548 679ZM8793 0L8871 0L8871 240C8871 314 8896 394 8973 394C9071 394 9071 319 9071 281L9071 0L9149 0L9149 288C9149 358 9140 455 9012 455C8924 455 8880 398 8866 380L8866 450L8793 450ZM9257 -71C9257 -148 9356 -206 9479 -206C9601 -206 9701 -148 9701 -70C9701 -58 9699 -45 9696 -33C9668 67 9546 69 9480 69L9405 69C9357 69 9349 103 9349 122C9349 129 9350 139 9360 159C9382 145 9407 129 9451 129C9544 129 9611 207 9611 292C9611 335 9598 364 9572 399L9581 391C9599 392 9630 395 9656 395C9676 395 9695 394 9715 392L9704 455C9650 455 9597 445 9547 424L9549 422C9516 445 9488 455 9451 455C9369 455 9292 389 9292 292C9292 272 9295 232 9325 193L9325 192C9307 168 9296 141 9296 108C9296 76 9305 55 9321 32C9282 9 9257 -30 9257 -71ZM9327 -71C9327 -42 9349 -8 9390 -4L9419 -3L9482 -3C9590 -3 9631 -31 9631 -72C9631 -118 9559 -149 9478 -149C9423 -149 9327 -127 9327 -71ZM9362 292C9362 377 9415 398 9451 398C9505 398 9541 358 9541 293C9541 208 9488 187 9452 187C9398 187 9362 227 9362 292ZM10144 -195L10222 -195L10222 46C10255 15 10298 -11 10357 -11C10454 -11 10543 83 10543 224C10543 343 10480 455 10385 455C10351 455 10283 448 10219 396L10219 445L10144 445ZM10222 126L10222 334C10228 341 10262 391 10328 391C10410 391 10464 310 10464 222C10464 116 10389 50 10319 50C10260 50 10222 102 10222 126ZM10633 0L10708 0L10708 206C10708 352 10819 386 10878 388L10878 455C10772 453 10719 385 10703 360L10703 450L10633 450ZM10924 221C10924 85 11029 -11 11143 -11C11257 -11 11363 84 11363 220C11363 345 11271 461 11143 461C11025 461 10924 357 10924 221ZM11002 231C11002 352 11079 399 11143 399C11207 399 11284 353 11284 231C11284 106 11210 53 11143 53C11077 53 11002 105 11002 231ZM11475 0L11553 0L11553 46C11587 15 11628 -11 11687 -11C11786 -11 11874 86 11874 224C11874 344 11809 455 11710 455C11679 455 11614 448 11550 397L11550 722L11475 722ZM11553 133L11553 320C11553 357 11608 394 11660 394C11714 394 11795 356 11795 223C11795 92 11709 50 11652 50C11623 50 11593 62 11570 90C11557 109 11553 107 11553 133ZM11992 0L12067 0L12067 722L11992 722ZM12184 226C12184 102 12271 -11 12402 -11C12465 -11 12517 11 12560 40L12554 106C12510 74 12465 51 12402 51C12326 51 12258 117 12254 220L12564 220L12564 249C12555 420 12457 461 12386 461C12280 461 12184 360 12184 226ZM12259 275C12270 324 12310 399 12386 399C12415 399 12490 386 12507 275ZM12674 0L12752 0L12752 240C12752 314 12777 394 12854 394C12952 394 12952 319 12952 281L12952 0L13030 0L13030 240C13030 314 13055 394 13132 394C13230 394 13229 281 13229 281L13229 0L13308 0L13308 288C13308 346 13305 455 13171 455C13080 455 13035 394 13020 374C13006 412 12976 455 12893 455C12805 455 12761 398 12747 380L12747 450L12674 450ZM13838 722L13839 671L13846 175L13913 175L13922 722ZM13838 0L13922 0L13922 84L13838 84Z" stroke="rgb(0,0,0)" stroke-opacity="1" stroke-width="0" fill="rgb(0,0,0)" fill-opacity="1"></path></g></g></g><g></g><g><g><g transform="matrix(1,0,0,1,1306.9375,327.19375)"><path transform="matrix(0.03735,0,0,-0.03735,0,0)" d="M95 0L173 0L173 624L212 544L486 0L611 0L611 694L533 694L533 70L494 150L220 694L95 694ZM803 0L893 0L893 289L1010 289C1021 289 1032 288 1043 288C1213 288 1290 401 1290 493C1290 558 1254 617 1193 655C1142 687 1093 694 1039 694L803 694ZM890 347L890 638L1023 638C1178 638 1209 544 1209 493C1209 435 1171 347 1023 347ZM1357 193L1623 193L1623 252L1357 252ZM1715 223C1715 95 1809 -11 1932 -11C2001 -11 2050 11 2095 40L2090 107C2058 85 2011 53 1933 53C1849 53 1793 126 1793 223C1793 310 1837 397 1934 397C2013 397 2039 376 2078 351L2090 417C2029 452 1997 461 1935 461C1795 461 1715 339 1715 223ZM2154 221C2154 85 2259 -11 2373 -11C2487 -11 2593 84 2593 220C2593 345 2501 461 2373 461C2255 461 2154 357 2154 221ZM2232 231C2232 352 2309 399 2373 399C2437 399 2514 353 2514 231C2514 106 2440 53 2373 53C2307 53 2232 105 2232 231ZM2704 0L2782 0L2782 240C2782 314 2807 394 2884 394C2982 394 2982 319 2982 281L2982 0L3060 0L3060 240C3060 314 3085 394 3162 394C3260 394 3259 281 3259 281L3259 0L3338 0L3338 288C3338 346 3335 455 3201 455C3110 455 3065 394 3050 374C3036 412 3006 455 2923 455C2835 455 2791 398 2777 380L2777 450L2704 450ZM3499 -195L3577 -195L3577 46C3610 15 3653 -11 3712 -11C3809 -11 3898 83 3898 224C3898 343 3835 455 3740 455C3706 455 3638 448 3574 396L3574 445L3499 445ZM3577 126L3577 334C3583 341 3617 391 3683 391C3765 391 3819 310 3819 222C3819 116 3744 50 3674 50C3615 50 3577 102 3577 126ZM4016 0L4091 0L4091 722L4016 722ZM4208 226C4208 102 4295 -11 4426 -11C4489 -11 4541 11 4584 40L4578 106C4534 74 4489 51 4426 51C4350 51 4282 117 4278 220L4588 220L4588 249C4579 420 4481 461 4410 461C4304 461 4208 360 4208 226ZM4283 275C4294 324 4334 399 4410 399C4439 399 4514 386 4531 275ZM4636 386L4720 386L4720 117C4720 7 4769 -11 4802 -11C4847 -11 4898 -1 4950 27L4934 86C4920 76 4889 53 4846 53C4794 53 4792 112 4792 140L4792 386L4933 386L4933 445L4792 445L4792 571L4722 571L4722 445L4636 445ZM5013 226C5013 102 5100 -11 5231 -11C5294 -11 5346 11 5389 40L5383 106C5339 74 5294 51 5231 51C5155 51 5087 117 5083 220L5393 220L5393 249C5384 420 5286 461 5215 461C5109 461 5013 360 5013 226ZM5088 275C5099 324 5139 399 5215 399C5244 399 5319 386 5336 275ZM5852 0L6100 0C6117 0 6134 0 6151 2C6265 13 6366 88 6366 188C6366 282 6270 347 6170 363C6285 392 6338 457 6338 520C6338 590 6268 694 6074 694L5852 694ZM5936 56L5936 293L5937 330L6056 330C6073 330 6090 331 6107 329C6201 320 6284 264 6284 189C6284 136 6229 56 6078 56ZM5936 392L5936 603L5937 638L6051 638C6205 638 6259 567 6259 519C6259 459 6189 392 6056 392ZM6517 245C6517 58 6658 -22 6769 -22C6881 -22 7016 62 7016 241L7016 694L6937 694L6937 258C6937 252 6938 246 6938 240C6938 80 6837 34 6769 34C6708 34 6606 71 6606 244C6606 256 6607 267 6607 279L6607 694L6517 694ZM7145 623L7287 623L7405 624L7405 0L7494 0L7494 624L7611 623L7753 623L7753 689L7145 689Z" stroke="rgb(0,0,0)" stroke-opacity="1" stroke-width="0" fill="rgb(0,0,0)" fill-opacity="1"></path></g></g></g><g></g><g><g><g transform="matrix(1,0,0,1,1079.40625,438.975)"><path transform="matrix(0.03735,0,0,-0.03735,0,0)" d="M27 0L102 0L178 204L468 204L545 0L637 0L377 694L288 694ZM199 260C278 476 315 587 323 624C329 587 356 512 447 260ZM1027 -71C1027 -148 1126 -206 1249 -206C1371 -206 1471 -148 1471 -70C1471 -58 1469 -45 1466 -33C1438 67 1316 69 1250 69L1175 69C1127 69 1119 103 1119 122C1119 129 1120 139 1130 159C1152 145 1177 129 1221 129C1314 129 1381 207 1381 292C1381 335 1368 364 1342 399L1351 391C1369 392 1400 395 1426 395C1446 395 1465 394 1485 392L1474 455C1420 455 1367 445 1317 424L1319 422C1286 445 1258 455 1221 455C1139 455 1062 389 1062 292C1062 272 1065 232 1095 193L1095 192C1077 168 1066 141 1066 108C1066 76 1075 55 1091 32C1052 9 1027 -30 1027 -71ZM1097 -71C1097 -42 1119 -8 1160 -4L1189 -3L1252 -3C1360 -3 1401 -31 1401 -72C1401 -118 1329 -149 1248 -149C1193 -149 1097 -127 1097 -71ZM1132 292C1132 377 1185 398 1221 398C1275 398 1311 358 1311 293C1311 208 1258 187 1222 187C1168 187 1132 227 1132 292ZM1581 0L1656 0L1656 206C1656 352 1767 386 1826 388L1826 455C1720 453 1667 385 1651 360L1651 450L1581 450ZM1876 226C1876 102 1963 -11 2094 -11C2157 -11 2209 11 2252 40L2246 106C2202 74 2157 51 2094 51C2018 51 1950 117 1946 220L2256 220L2256 249C2247 420 2149 461 2078 461C1972 461 1876 360 1876 226ZM1951 275C1962 324 2002 399 2078 399C2107 399 2182 386 2199 275ZM2320 226C2320 102 2407 -11 2538 -11C2601 -11 2653 11 2696 40L2690 106C2646 74 2601 51 2538 51C2462 51 2394 117 2390 220L2700 220L2700 249C2691 420 2593 461 2522 461C2416 461 2320 360 2320 226ZM2395 275C2406 324 2446 399 2522 399C2551 399 2626 386 2643 275ZM2765 221C2765 102 2835 -11 2937 -11C3003 -11 3051 19 3085 52L3085 0L3164 0L3164 722L3088 722L3088 401C3053 429 3006 456 2943 456C2844 456 2765 353 2765 221ZM2843 222C2843 353 2930 394 2988 394L2990 394C3001 394 3033 393 3064 364C3082 347 3085 341 3085 325L3085 134C3085 103 3038 51 2978 51C2924 51 2843 90 2843 222ZM3261 445L3448 18C3452 10 3453 6 3453 1C3453 -3 3452 -8 3449 -15C3406 -119 3398 -149 3356 -149C3339 -149 3317 -143 3283 -132L3288 -197C3312 -203 3342 -205 3361 -205C3407 -205 3436 -182 3476 -90L3693 445L3618 445C3552 281 3487 118 3485 50C3476 107 3476 134 3340 445ZM4085 113C4085 67 4115 -11 4199 -11C4309 -11 4364 34 4365 35L4365 0L4441 0L4441 305C4436 389 4370 461 4275 461C4212 461 4166 445 4118 417L4124 350C4157 373 4199 401 4274 401C4287 401 4313 400 4337 371C4362 341 4362 307 4363 279L4363 245C4260 244 4085 219 4085 113ZM4158 114C4158 177 4291 192 4363 193L4363 130C4363 65 4294 51 4251 51C4197 51 4158 78 4158 114ZM4602 0L4677 0L4677 722L4602 722ZM4787 -71C4787 -148 4886 -206 5009 -206C5131 -206 5231 -148 5231 -70C5231 -58 5229 -45 5226 -33C5198 67 5076 69 5010 69L4935 69C4887 69 4879 103 4879 122C4879 129 4880 139 4890 159C4912 145 4937 129 4981 129C5074 129 5141 207 5141 292C5141 335 5128 364 5102 399L5111 391C5129 392 5160 395 5186 395C5206 395 5225 394 5245 392L5234 455C5180 455 5127 445 5077 424L5079 422C5046 445 5018 455 4981 455C4899 455 4822 389 4822 292C4822 272 4825 232 4855 193L4855 192C4837 168 4826 141 4826 108C4826 76 4835 55 4851 32C4812 9 4787 -30 4787 -71ZM4857 -71C4857 -42 4879 -8 4920 -4L4949 -3L5012 -3C5120 -3 5161 -31 5161 -72C5161 -118 5089 -149 5008 -149C4953 -149 4857 -127 4857 -71ZM4892 292C4892 377 4945 398 4981 398C5035 398 5071 358 5071 293C5071 208 5018 187 4982 187C4928 187 4892 227 4892 292ZM5290 221C5290 85 5395 -11 5509 -11C5623 -11 5729 84 5729 220C5729 345 5637 461 5509 461C5391 461 5290 357 5290 221ZM5368 231C5368 352 5445 399 5509 399C5573 399 5650 353 5650 231C5650 106 5576 53 5509 53C5443 53 5368 105 5368 231ZM5813 0L5888 0L5888 206C5888 352 5999 386 6058 388L6058 455C5952 453 5899 385 5883 360L5883 450L5813 450ZM6155 0L6230 0L6230 445L6155 445ZM6148 590L6238 590L6238 679L6148 679ZM6331 386L6415 386L6415 117C6415 7 6464 -11 6497 -11C6542 -11 6593 -1 6645 27L6629 86C6615 76 6584 53 6541 53C6489 53 6487 112 6487 140L6487 386L6628 386L6628 445L6487 445L6487 571L6417 571L6417 445L6331 445ZM6754 0L6832 0L6832 240C6832 314 6857 394 6934 394C7032 394 7032 319 7032 281L7032 0L7110 0L7110 288C7110 349 7106 455 6973 455C6904 455 6861 422 6829 384L6829 722L6754 722ZM7271 0L7349 0L7349 240C7349 314 7374 394 7451 394C7549 394 7549 319 7549 281L7549 0L7627 0L7627 240C7627 314 7652 394 7729 394C7827 394 7826 281 7826 281L7826 0L7905 0L7905 288C7905 346 7902 455 7768 455C7677 455 7632 394 7617 374C7603 412 7573 455 7490 455C7402 455 7358 398 7344 380L7344 450L7271 450ZM8352 226C8352 102 8439 -11 8570 -11C8633 -11 8685 11 8728 40L8722 106C8678 74 8633 51 8570 51C8494 51 8426 117 8422 220L8732 220L8732 249C8723 420 8625 461 8554 461C8448 461 8352 360 8352 226ZM8427 275C8438 324 8478 399 8554 399C8583 399 8658 386 8675 275ZM8762 0L8845 0L8989 188L9139 0L9222 0L9022 229L9022 230L9206 445L9123 445L8990 280L8989 280L8851 445L8768 445L8956 230L8956 228ZM9304 0L9379 0L9379 445L9304 445ZM9297 590L9387 590L9387 679L9297 679ZM9489 34C9564 -7 9625 -11 9659 -11C9793 -11 9822 72 9822 127C9822 192 9776 234 9735 252C9673 280 9566 267 9566 340C9566 365 9581 401 9650 401C9722 401 9754 383 9794 364L9805 430C9750 453 9715 461 9659 461C9523 461 9495 382 9495 329C9495 259 9555 220 9599 206C9630 196 9673 191 9695 184C9715 178 9751 158 9751 120C9751 93 9733 52 9658 52C9577 52 9529 86 9501 102ZM9863 386L9947 386L9947 117C9947 7 9996 -11 10029 -11C10074 -11 10125 -1 10177 27L10161 86C10147 76 10116 53 10073 53C10021 53 10019 112 10019 140L10019 386L10160 386L10160 445L10019 445L10019 571L9949 571L9949 445L9863 445ZM10233 34C10308 -7 10369 -11 10403 -11C10537 -11 10566 72 10566 127C10566 192 10520 234 10479 252C10417 280 10310 267 10310 340C10310 365 10325 401 10394 401C10466 401 10498 383 10538 364L10549 430C10494 453 10459 461 10403 461C10267 461 10239 382 10239 329C10239 259 10299 220 10343 206C10374 196 10417 191 10439 184C10459 178 10495 158 10495 120C10495 93 10477 52 10402 52C10321 52 10273 86 10245 102Z" stroke="rgb(0,0,0)" stroke-opacity="1" stroke-width="0" fill="rgb(0,0,0)" fill-opacity="1"></path></g></g><g><g><g><g><g transform="matrix(1,0,0,1,1487.234375,438.955)"><path transform="matrix(0.04233,0,0,-0.04233,0,0)" d="M748 425C748 603 644 706 464 706C227 706 53 523 53 272C53 83 147 -18 323 -18C595 -18 748 207 748 425ZM660 409C660 221 571 24 360 24C216 24 141 110 141 277C141 425 199 664 433 664C549 664 660 610 660 409Z" stroke="rgb(0,0,0)" stroke-opacity="1" stroke-width="0" fill="rgb(0,0,0)" fill-opacity="1"></path></g></g><g><svg x="1523.078125" overflow="visible" y="394.625" height="59" width="21.15625"><path d=" M 15.62 4.23 c 0.00 -0.14 -0.10 -0.20 -0.21 -0.20 c -0.07 0.00 -0.14 0.03 -0.21 0.06 c -6.34 3.33 -11.57 9.28 -11.57 23.39 v 1.50 h 3.81 v -1.50 c 0.00 -8.04 1.59 -17.50 8.24 -22.55 c 0.31 -0.23 0.31 -0.48 0.31 -0.71 z   M 3.58 28.98 v 1.04 h 3.81 v -1.04 z" style="fill:rgb(0,0,0);fill-opacity:1;stroke-width:1px;stroke:none;stroke-opacity:1;"></path><path d=" M 15.62 54.77 c 0.00 0.14 -0.10 0.20 -0.21 0.20 c -0.07 0.00 -0.14 -0.03 -0.21 -0.06 c -6.34 -3.33 -11.57 -9.28 -11.57 -23.39 v -1.50 h 3.81 v 1.50 c 0.00 8.04 1.59 17.50 8.24 22.55 c 0.31 0.23 0.31 0.48 0.31 0.71 z" style="fill:rgb(0,0,0);fill-opacity:1;stroke-width:1px;stroke:none;stroke-opacity:1;"></path></svg></g><g><g transform="matrix(1,0,0,1,1540.015625,438.955)"><path transform="matrix(0.04233,0,0,-0.04233,0,0)" d="M582 103L237 692L75 692L70 664L105 662C150 660 184 615 185 606L92 102C80 40 74 32 38 28L7 25L2 -3L113 0C125 0 126 0 223 -3L228 25L186 28C146 31 137 39 137 72C137 80 138 91 140 102L220 566L558 -11L608 -11L702 542C723 655 725 659 762 662L799 664L802 691L589 692L584 664L631 662C657 661 667 654 667 638C667 631 584 116 582 103Z" stroke="rgb(0,0,0)" stroke-opacity="1" stroke-width="0" fill="rgb(0,0,0)" fill-opacity="1"></path></g></g><g><g><g><g><g transform="matrix(1,0,0,1,1575.34375,422.28725)"><path transform="matrix(0.029631,0,0,-0.029631,0,0)" d="M16 23L16 -3C203 -3 203 0 239 0C275 0 275 -3 468 -3L468 82C353 77 307 81 122 77L304 270C401 373 431 428 431 503C431 618 353 689 226 689C154 689 105 669 56 619L39 483L68 483L81 529C97 587 133 612 200 612C286 612 341 558 341 473C341 398 299 324 186 204Z" stroke="rgb(0,0,0)" stroke-opacity="1" stroke-width="0" fill="rgb(0,0,0)" fill-opacity="1"></path></g></g></g></g></g><g><svg x="1588.453125" overflow="visible" y="394.625" height="59" width="21.15625"><path d=" M 4.35 4.23 c 0.00 -0.14 0.10 -0.20 0.21 -0.20 c 0.07 0.00 0.14 0.03 0.21 0.06 c 6.34 3.33 11.57 9.28 11.57 23.39 v 1.50 h -3.81 v -1.50 c 0.00 -8.04 -1.59 -17.50 -8.24 -22.55 c -0.31 -0.23 -0.31 -0.48 -0.31 -0.71 z  M 16.39 28.98 v 1.04 h -3.81 v -1.04 z" style="fill:rgb(0,0,0);fill-opacity:1;stroke-width:1px;stroke:none;stroke-opacity:1;"></path><path d=" M 4.35 54.77 c 0.00 0.14 0.10 0.20 0.21 0.20 c 0.07 0.00 0.14 -0.03 0.21 -0.06 c 6.34 -3.33 11.57 -9.28 11.57 -23.39 v -1.50 h -3.81 v 1.50 c 0.00 8.04 -1.59 17.50 -8.24 22.55 c -0.31 0.23 -0.31 0.48 -0.31 0.71 z" style="fill:rgb(0,0,0);fill-opacity:1;stroke-width:1px;stroke:none;stroke-opacity:1;"></path></svg></g></g></g></g><g><g transform="matrix(1,0,0,1,1612.5625,438.975)"><path transform="matrix(0.03735,0,0,-0.03735,0,0)" d="M413 250C413 -54 540 -192 604 -250L666 -250L634 -216C517 -81 491 103 491 250C491 387 514 529 585 648C614 697 637 719 666 750L604 750C536 689 413 551 413 250ZM822 -250L988 -250L988 -189L897 -189L897 689L988 689L988 750L822 750ZM1052 180C1052 73 1142 -22 1260 -22C1380 -22 1468 75 1468 179C1468 276 1392 335 1329 354C1417 386 1454 443 1454 503C1454 591 1374 678 1260 678C1149 678 1066 595 1066 503C1066 419 1138 370 1191 354C1092 318 1052 250 1052 180ZM1133 181C1133 285 1204 323 1260 323C1335 323 1387 266 1387 182C1387 91 1331 40 1260 40C1184 40 1133 96 1133 181ZM1136 502C1136 572 1186 619 1260 619C1332 619 1384 574 1384 502C1384 433 1334 385 1259 385C1188 385 1136 431 1136 502ZM1532 -189L1532 -250L1698 -250L1698 750L1532 750L1532 689L1622 689L1622 -189ZM2199 347C2199 155 2330 -22 2527 -22C2611 -22 2651 -9 2721 33L2715 103C2665 71 2631 42 2528 42C2391 42 2289 178 2289 347C2289 515 2391 652 2525 652C2604 652 2646 629 2695 599L2710 682C2621 715 2576 716 2512 716C2369 716 2199 574 2199 347ZM2852 0L2930 0L2930 240C2930 314 2955 394 3032 394C3130 394 3130 319 3130 281L3130 0L3208 0L3208 288C3208 349 3204 455 3071 455C3002 455 2959 422 2927 384L2927 722L2852 722ZM3303 445L3475 0L3563 0L3735 445L3661 445C3564 193 3527 90 3521 50C3516 81 3510 97 3473 201L3380 445ZM3794 113C3794 67 3824 -11 3908 -11C4018 -11 4073 34 4074 35L4074 0L4150 0L4150 305C4145 389 4079 461 3984 461C3921 461 3875 445 3827 417L3833 350C3866 373 3908 401 3983 401C3996 401 4022 400 4046 371C4071 341 4071 307 4072 279L4072 245C3969 244 3794 219 3794 113ZM3867 114C3867 177 4000 192 4072 193L4072 130C4072 65 4003 51 3960 51C3906 51 3867 78 3867 114ZM4248 386L4332 386L4332 117C4332 7 4381 -11 4414 -11C4459 -11 4510 -1 4562 27L4546 86C4532 76 4501 53 4458 53C4406 53 4404 112 4404 140L4404 386L4545 386L4545 445L4404 445L4404 571L4334 571L4334 445L4248 445ZM4635 113C4635 67 4665 -11 4749 -11C4859 -11 4914 34 4915 35L4915 0L4991 0L4991 305C4986 389 4920 461 4825 461C4762 461 4716 445 4668 417L4674 350C4707 373 4749 401 4824 401C4837 401 4863 400 4887 371C4912 341 4912 307 4913 279L4913 245C4810 244 4635 219 4635 113ZM4708 114C4708 177 4841 192 4913 193L4913 130C4913 65 4844 51 4801 51C4747 51 4708 78 4708 114ZM5152 0L5227 0L5227 722L5152 722ZM5365 -250L5426 -250C5494 -189 5618 -51 5618 251C5618 550 5494 689 5426 750L5365 750C5412 700 5540 577 5540 250C5540 -64 5425 -186 5365 -250Z" stroke="rgb(0,0,0)" stroke-opacity="1" stroke-width="0" fill="rgb(0,0,0)" fill-opacity="1"></path></g></g></g></g></svg>
</svg>
